Vollkorn-Regular.ufo
<glyph name="quotedbl" format="2">
  <advance width="343"/>
  <unicode hex="0022"/>
  <outline>
    <contour>
      <point x="130" y="711"/>
      <point x="116" y="714" type="curve"/>
      <point x="103" y="704"/>
      <point x="78" y="696"/>
      <point x="60" y="693" type="curve"/>
      <point x="70" y="628"/>
      <point x="76" y="557"/>
      <point x="79" y="488" type="curve"/>
      <point x="85" y="482"/>
      <point x="105" y="479"/>
      <point x="118" y="479" type="curve"/>
      <point x="124" y="554"/>
      <point x="128" y="614"/>
      <point x="134" y="667" type="curve" smooth="yes"/>
      <point x="135" y="672"/>
      <point x="135" y="677"/>
      <point x="136" y="681" type="curve" smooth="yes"/>
      <point x="138" y="699"/>
    </contour>
    <contour>
      <point x="275" y="711"/>
      <point x="263" y="714" type="curve"/>
      <point x="249" y="705"/>
      <point x="224" y="696"/>
      <point x="206" y="693" type="curve"/>
      <point x="216" y="628"/>
      <point x="221" y="556"/>
      <point x="224" y="487" type="curve"/>
      <point x="231" y="481"/>
      <point x="251" y="478"/>
      <point x="265" y="478" type="curve"/>
      <point x="271" y="563"/>
      <point x="276" y="624"/>
      <point x="283" y="681" type="curve" smooth="yes"/>
      <point x="283" y="683"/>
      <point x="283" y="685"/>
      <point x="283" y="687" type="curve" smooth="yes"/>
      <point x="283" y="702"/>
    </contour>
  </outline>
</glyph>
<glyph name="percent" format="2">
  <advance width="863"/>
  <unicode hex="0025"/>
  <outline>
    <contour>
      <point x="174" y="-7" type="curve"/>
      <point x="733" y="657" type="line"/>
      <point x="721" y="671"/>
      <point x="710" y="682"/>
      <point x="691" y="686" type="curve"/>
      <point x="138" y="30" type="line"/>
      <point x="142" y="17"/>
      <point x="156" y="3"/>
    </contour>
    <component base="_part.percent"/>
    <component base="_part.percent" xOffset="370" yOffset="-367"/>
  </outline>
</glyph>
<glyph name="ampersand" format="2">
  <advance width="742"/>
  <unicode hex="0026"/>
  <outline>
    <contour>
      <point x="478" y="185" type="curve"/>
      <point x="510" y="149" type="line"/>
      <point x="553" y="224"/>
      <point x="577" y="278"/>
      <point x="594" y="338" type="curve" smooth="yes"/>
      <point x="607" y="385"/>
      <point x="622" y="405"/>
      <point x="663" y="420" type="curve"/>
      <point x="666" y="432"/>
      <point x="667" y="449"/>
      <point x="667" y="461" type="curve"/>
      <point x="644" y="459"/>
      <point x="600" y="458"/>
      <point x="567" y="458" type="curve" smooth="yes"/>
      <point x="534" y="458"/>
      <point x="493" y="459"/>
      <point x="465" y="461" type="curve"/>
      <point x="465" y="448"/>
      <point x="468" y="432"/>
      <point x="472" y="419" type="curve"/>
      <point x="542" y="405"/>
      <point x="560" y="386"/>
      <point x="547" y="334" type="curve" smooth="yes"/>
      <point x="536" y="290"/>
      <point x="516" y="246"/>
    </contour>
    <contour>
      <point x="605" y="67"/>
      <point x="572" y="102" type="curve" smooth="yes"/>
      <point x="415" y="269"/>
      <point x="357" y="339"/>
      <point x="315" y="391" type="curve" smooth="yes"/>
      <point x="238" y="487"/>
      <point x="221" y="528"/>
      <point x="221" y="587" type="curve" smooth="yes"/>
      <point x="221" y="641"/>
      <point x="254" y="673"/>
      <point x="300" y="673" type="curve" smooth="yes"/>
      <point x="354" y="673"/>
      <point x="379" y="642"/>
      <point x="384" y="557" type="curve"/>
      <point x="400" y="557"/>
      <point x="421" y="558"/>
      <point x="437" y="565" type="curve"/>
      <point x="435" y="605"/>
      <point x="437" y="647"/>
      <point x="442" y="682" type="curve"/>
      <point x="400" y="706"/>
      <point x="363" y="717"/>
      <point x="306" y="717" type="curve" smooth="yes"/>
      <point x="201" y="717"/>
      <point x="142" y="644"/>
      <point x="142" y="568" type="curve" smooth="yes"/>
      <point x="142" y="471"/>
      <point x="188" y="398"/>
      <point x="265" y="307" type="curve" smooth="yes"/>
      <point x="356" y="201"/>
      <point x="446" y="109"/>
      <point x="535" y="-9" type="curve"/>
      <point x="568" y="1"/>
      <point x="643" y="10"/>
      <point x="681" y="10" type="curve"/>
      <point x="686" y="24"/>
      <point x="687" y="42"/>
      <point x="687" y="55" type="curve"/>
      <point x="627" y="59"/>
    </contour>
    <contour>
      <point x="341" y="67"/>
      <point x="281" y="67" type="curve" smooth="yes"/>
      <point x="203" y="67"/>
      <point x="138" y="126"/>
      <point x="138" y="237" type="curve" smooth="yes"/>
      <point x="138" y="312"/>
      <point x="173" y="361"/>
      <point x="213" y="400" type="curve"/>
      <point x="200" y="433" type="line"/>
      <point x="119" y="383"/>
      <point x="54" y="309"/>
      <point x="54" y="208" type="curve" smooth="yes"/>
      <point x="54" y="106"/>
      <point x="108" y="-10"/>
      <point x="268" y="-10" type="curve" smooth="yes"/>
      <point x="346" y="-10"/>
      <point x="407" y="23"/>
      <point x="467" y="102" type="curve"/>
      <point x="437" y="141" type="line"/>
      <point x="386" y="87"/>
    </contour>
  </outline>
</glyph>
<glyph name="quotesingle" format="2">
  <advance width="198"/>
  <unicode hex="0027"/>
  <outline>
    <contour>
      <point x="129" y="712"/>
      <point x="117" y="714" type="curve"/>
      <point x="103" y="705"/>
      <point x="79" y="696"/>
      <point x="60" y="693" type="curve"/>
      <point x="71" y="627"/>
      <point x="77" y="557"/>
      <point x="80" y="487" type="curve"/>
      <point x="86" y="480"/>
      <point x="106" y="477"/>
      <point x="120" y="477" type="curve"/>
      <point x="126" y="564"/>
      <point x="130" y="623"/>
      <point x="138" y="681" type="curve" smooth="yes"/>
      <point x="138" y="684"/>
      <point x="138" y="687"/>
      <point x="138" y="690" type="curve" smooth="yes"/>
      <point x="137" y="703"/>
    </contour>
  </outline>
</glyph>
<glyph name="slash" format="2">
  <advance width="365"/>
  <unicode hex="002F"/>
  <outline>
    <contour>
      <point x="76" y="-9" type="curve"/>
      <point x="334" y="687" type="line"/>
      <point x="325" y="697"/>
      <point x="305" y="709"/>
      <point x="291" y="713" type="curve"/>
      <point x="33" y="17" type="line"/>
      <point x="40" y="8"/>
      <point x="57" y="-3"/>
    </contour>
  </outline>
</glyph>
<glyph name="one" format="2">
  <advance width="388"/>
  <unicode hex="0031"/>
  <outline>
    <contour>
      <point x="239" y="127" type="curve" smooth="yes"/>
      <point x="239" y="373" type="line" smooth="yes"/>
      <point x="239" y="438"/>
      <point x="255" y="457"/>
      <point x="308" y="460" type="curve"/>
      <point x="311" y="472"/>
      <point x="313" y="486"/>
      <point x="313" y="503" type="curve"/>
      <point x="281" y="501"/>
      <point x="236" y="500"/>
      <point x="194" y="500" type="curve" smooth="yes"/>
      <point x="162" y="500"/>
      <point x="107" y="501"/>
      <point x="75" y="503" type="curve"/>
      <point x="75" y="488"/>
      <point x="77" y="472"/>
      <point x="80" y="460" type="curve"/>
      <point x="135" y="457"/>
      <point x="149" y="438"/>
      <point x="149" y="373" type="curve" smooth="yes"/>
      <point x="149" y="127" type="line" smooth="yes"/>
      <point x="149" y="61"/>
      <point x="130" y="42"/>
      <point x="80" y="40" type="curve"/>
      <point x="76" y="26"/>
      <point x="75" y="11"/>
      <point x="75" y="-3" type="curve"/>
      <point x="111" y="-1"/>
      <point x="158" y="0"/>
      <point x="194" y="0" type="curve" smooth="yes"/>
      <point x="219" y="0"/>
      <point x="274" y="-1"/>
      <point x="313" y="-3" type="curve"/>
      <point x="313" y="11"/>
      <point x="312" y="26"/>
      <point x="308" y="40" type="curve"/>
      <point x="255" y="42"/>
      <point x="239" y="61"/>
    </contour>
  </outline>
</glyph>
<glyph name="four" format="2">
  <advance width="597"/>
  <unicode hex="0034"/>
  <outline>
    <contour>
      <point x="330" y="0" type="curve" smooth="yes"/>
      <point x="529" y="0" type="line"/>
      <point x="529" y="19"/>
      <point x="538" y="52"/>
      <point x="547" y="70" type="curve"/>
      <point x="541" y="76"/>
      <point x="532" y="79"/>
      <point x="518" y="79" type="curve" smooth="yes"/>
      <point x="417" y="79" type="line"/>
      <point x="395" y="79" type="line"/>
      <point x="131" y="79" type="line"/>
      <point x="139" y="59" type="line"/>
      <point x="356" y="386" type="line"/>
      <point x="337" y="379" type="line"/>
      <point x="337" y="35" type="line"/>
      <point x="337" y="21" type="line"/>
      <point x="337" y="-138" type="line" smooth="yes"/>
      <point x="337" y="-152"/>
      <point x="340" y="-163"/>
      <point x="348" y="-171" type="curve"/>
      <point x="352" y="-167"/>
      <point x="406" y="-152"/>
      <point x="431" y="-152" type="curve"/>
      <point x="431" y="496" type="line"/>
      <point x="421" y="502"/>
      <point x="402" y="506"/>
      <point x="386" y="506" type="curve"/>
      <point x="45" y="32" type="line"/>
      <point x="45" y="17"/>
      <point x="55" y="2"/>
      <point x="63" y="-6" type="curve"/>
      <point x="148" y="-3"/>
      <point x="228" y="0"/>
    </contour>
  </outline>
</glyph>
<glyph name="five" format="2">
  <advance width="481"/>
  <unicode hex="0035"/>
  <outline>
    <contour>
      <point x="134" y="502" type="curve"/>
      <point x="73" y="253" type="line"/>
      <point x="73" y="242"/>
      <point x="79" y="229"/>
      <point x="90" y="222" type="curve"/>
      <point x="195" y="212"/>
      <point x="321" y="154"/>
      <point x="321" y="40" type="curve" smooth="yes"/>
      <point x="321" y="-59"/>
      <point x="251" y="-121"/>
      <point x="171" y="-121" type="curve" smooth="yes"/>
      <point x="131" y="-121"/>
      <point x="90" y="-113"/>
      <point x="73" y="-106" type="curve"/>
      <point x="64" y="-117"/>
      <point x="60" y="-128"/>
      <point x="60" y="-139" type="curve"/>
      <point x="81" y="-157"/>
      <point x="125" y="-171"/>
      <point x="175" y="-171" type="curve" smooth="yes"/>
      <point x="282" y="-171"/>
      <point x="421" y="-87"/>
      <point x="421" y="67" type="curve" smooth="yes"/>
      <point x="421" y="208"/>
      <point x="307" y="269"/>
      <point x="136" y="306" type="curve"/>
      <point x="160" y="407" type="line"/>
      <point x="187" y="409"/>
      <point x="309" y="410"/>
      <point x="353" y="410" type="curve" smooth="yes"/>
      <point x="379" y="410"/>
      <point x="392" y="417"/>
      <point x="398" y="428" type="curve"/>
      <point x="398" y="475"/>
      <point x="399" y="517"/>
      <point x="404" y="553" type="curve"/>
      <point x="389" y="553"/>
      <point x="371" y="552"/>
      <point x="359" y="548" type="curve"/>
      <point x="359" y="521"/>
      <point x="346" y="500"/>
      <point x="307" y="500" type="curve" smooth="yes"/>
      <point x="249" y="500"/>
      <point x="204" y="500"/>
    </contour>
  </outline>
</glyph>
<glyph name="question" format="2">
  <advance width="537"/>
  <unicode hex="003F"/>
  <outline>
    <contour>
      <point x="274" y="714" type="curve" smooth="yes"/>
      <point x="199" y="714"/>
      <point x="153" y="692"/>
      <point x="120" y="671" type="curve"/>
      <point x="125" y="629"/>
      <point x="124" y="601"/>
      <point x="120" y="554" type="curve"/>
      <point x="133" y="547"/>
      <point x="158" y="544"/>
      <point x="177" y="544" type="curve"/>
      <point x="188" y="636"/>
      <point x="215" y="673"/>
      <point x="265" y="673" type="curve" smooth="yes"/>
      <point x="307" y="673"/>
      <point x="346" y="634"/>
      <point x="346" y="577" type="curve" smooth="yes"/>
      <point x="346" y="478"/>
      <point x="219" y="448"/>
      <point x="219" y="315" type="curve" smooth="yes"/>
      <point x="219" y="258"/>
      <point x="243" y="208"/>
      <point x="265" y="193" type="curve"/>
      <point x="278" y="193"/>
      <point x="289" y="194"/>
      <point x="301" y="201" type="curve"/>
      <point x="295" y="220"/>
      <point x="290" y="253"/>
      <point x="290" y="269" type="curve" smooth="yes"/>
      <point x="290" y="409"/>
      <point x="435" y="455"/>
      <point x="435" y="586" type="curve" smooth="yes"/>
      <point x="435" y="669"/>
      <point x="368" y="714"/>
    </contour>
    <component base="period" xOffset="156"/>
  </outline>
</glyph>
<glyph name="at" format="2">
  <advance width="997"/>
  <unicode hex="0040"/>
  <outline>
    <contour>
      <point x="661" y="461"/>
      <point x="643" y="467" type="curve"/>
      <point x="624" y="460"/>
      <point x="604" y="458"/>
      <point x="587" y="458" type="curve"/>
      <point x="584" y="359"/>
      <point x="580" y="157"/>
      <point x="580" y="89" type="curve" smooth="yes"/>
      <point x="580" y="28"/>
      <point x="596" y="-9"/>
      <point x="648" y="-9" type="curve" smooth="yes"/>
      <point x="748" y="-9"/>
      <point x="872" y="144"/>
      <point x="872" y="359" type="curve" smooth="yes"/>
      <point x="872" y="524"/>
      <point x="761" y="660"/>
      <point x="536" y="660" type="curve" smooth="yes"/>
      <point x="275" y="660"/>
      <point x="125" y="467"/>
      <point x="125" y="228" type="curve" smooth="yes"/>
      <point x="125" y="-21"/>
      <point x="253" y="-202"/>
      <point x="526" y="-202" type="curve" smooth="yes"/>
      <point x="664" y="-202"/>
      <point x="792" y="-153"/>
      <point x="853" y="-68" type="curve"/>
      <point x="849" y="-54"/>
      <point x="839" y="-46"/>
      <point x="822" y="-43" type="curve"/>
      <point x="752" y="-122"/>
      <point x="650" y="-157"/>
      <point x="540" y="-157" type="curve" smooth="yes"/>
      <point x="301" y="-157"/>
      <point x="187" y="28"/>
      <point x="187" y="237" type="curve" smooth="yes"/>
      <point x="187" y="457"/>
      <point x="300" y="619"/>
      <point x="526" y="619" type="curve" smooth="yes"/>
      <point x="723" y="619"/>
      <point x="823" y="495"/>
      <point x="823" y="351" type="curve" smooth="yes"/>
      <point x="823" y="167"/>
      <point x="741" y="69"/>
      <point x="701" y="69" type="curve" smooth="yes"/>
      <point x="668" y="69"/>
      <point x="665" y="81"/>
      <point x="665" y="180" type="curve" smooth="yes"/>
      <point x="665" y="371" type="line" smooth="yes"/>
      <point x="665" y="445"/>
    </contour>
    <contour>
      <point x="540" y="467"/>
      <point x="502" y="467" type="curve" smooth="yes"/>
      <point x="391" y="467"/>
      <point x="315" y="356"/>
      <point x="315" y="198" type="curve" smooth="yes"/>
      <point x="315" y="47"/>
      <point x="365" y="-9"/>
      <point x="439" y="-9" type="curve" smooth="yes"/>
      <point x="539" y="-9"/>
      <point x="602" y="166"/>
      <point x="611" y="363" type="curve"/>
      <point x="584" y="339" type="line"/>
      <point x="567" y="162"/>
      <point x="498" y="73"/>
      <point x="465" y="73" type="curve" smooth="yes"/>
      <point x="433" y="73"/>
      <point x="405" y="112"/>
      <point x="405" y="228" type="curve" smooth="yes"/>
      <point x="405" y="365"/>
      <point x="432" y="422"/>
      <point x="496" y="422" type="curve" smooth="yes"/>
      <point x="527" y="422"/>
      <point x="563" y="411"/>
      <point x="593" y="387" type="curve"/>
      <point x="610" y="454" type="line"/>
      <point x="569" y="464"/>
    </contour>
  </outline>
</glyph>
<glyph name="B" format="2">
  <advance width="623"/>
  <unicode hex="0042"/>
  <outline>
    <contour>
      <point x="57" y="679" type="curve"/>
      <point x="57" y="663"/>
      <point x="58" y="647"/>
      <point x="62" y="636" type="curve"/>
      <point x="115" y="633"/>
      <point x="131" y="616"/>
      <point x="131" y="549" type="curve" smooth="yes"/>
      <point x="131" y="138" type="line" smooth="yes"/>
      <point x="131" y="60"/>
      <point x="114" y="43"/>
      <point x="61" y="40" type="curve"/>
      <point x="57" y="29"/>
      <point x="56" y="15"/>
      <point x="56" y="-3" type="curve"/>
      <point x="106" y="-1"/>
      <point x="254" y="0"/>
      <point x="328" y="0" type="curve" smooth="yes"/>
      <point x="498" y="0"/>
      <point x="568" y="88"/>
      <point x="568" y="197" type="curve" smooth="yes"/>
      <point x="568" y="321"/>
      <point x="477" y="361"/>
      <point x="372" y="367" type="curve"/>
      <point x="461" y="380"/>
      <point x="517" y="446"/>
      <point x="517" y="532" type="curve" smooth="yes"/>
      <point x="517" y="649"/>
      <point x="419" y="678"/>
      <point x="304" y="678" type="curve" smooth="yes"/>
      <point x="257" y="678"/>
      <point x="209" y="676"/>
      <point x="161" y="676" type="curve" smooth="yes"/>
      <point x="125" y="676"/>
      <point x="84" y="677"/>
    </contour>
    <contour>
      <point x="225" y="641" type="line"/>
      <point x="211" y="626" type="line"/>
      <point x="234" y="632"/>
      <point x="248" y="634"/>
      <point x="266" y="634" type="curve" smooth="yes"/>
      <point x="332" y="634"/>
      <point x="415" y="605"/>
      <point x="415" y="502" type="curve" smooth="yes"/>
      <point x="415" y="437"/>
      <point x="385" y="375"/>
      <point x="256" y="375" type="curve" smooth="yes"/>
      <point x="213" y="375" type="line"/>
      <point x="213" y="332" type="line"/>
      <point x="248" y="332" type="line" smooth="yes"/>
      <point x="346" y="332"/>
      <point x="461" y="308"/>
      <point x="461" y="183" type="curve" smooth="yes"/>
      <point x="461" y="96"/>
      <point x="416" y="43"/>
      <point x="318" y="43" type="curve" smooth="yes"/>
      <point x="243" y="43"/>
      <point x="225" y="56"/>
      <point x="225" y="138" type="curve" smooth="yes"/>
    </contour>
  </outline>
</glyph>
<glyph name="C" format="2">
  <advance width="653"/>
  <unicode hex="0043"/>
  <anchor x="358" y="0" name="bottom"/>
  <anchor x="88" y="350" name="center"/>
  <anchor x="374" y="676" name="top"/>
  <outline>
    <contour>
      <point x="353" y="-9" type="curve" smooth="yes"/>
      <point x="454" y="-9"/>
      <point x="524" y="19"/>
      <point x="603" y="80" type="curve"/>
      <point x="602" y="89"/>
      <point x="593" y="104"/>
      <point x="585" y="111" type="curve"/>
      <point x="529" y="75"/>
      <point x="459" y="52"/>
      <point x="395" y="52" type="curve" smooth="yes"/>
      <point x="235" y="52"/>
      <point x="140" y="191"/>
      <point x="140" y="370" type="curve" smooth="yes"/>
      <point x="140" y="510"/>
      <point x="208" y="644"/>
      <point x="377" y="644" type="curve" smooth="yes"/>
      <point x="465" y="644"/>
      <point x="522" y="611"/>
      <point x="527" y="469" type="curve"/>
      <point x="548" y="469"/>
      <point x="563" y="471"/>
      <point x="580" y="478" type="curve"/>
      <point x="580" y="533"/>
      <point x="581" y="586"/>
      <point x="591" y="633" type="curve"/>
      <point x="517" y="668"/>
      <point x="453" y="685"/>
      <point x="369" y="685" type="curve" smooth="yes"/>
      <point x="199" y="685"/>
      <point x="35" y="572"/>
      <point x="35" y="343" type="curve" smooth="yes"/>
      <point x="35" y="135"/>
      <point x="167" y="-9"/>
    </contour>
  </outline>
</glyph>
<glyph name="I" format="2">
  <advance width="354"/>
  <unicode hex="0049"/>
  <anchor x="177" y="0" name="bottom"/>
  <anchor x="228" y="0" name="ogonek"/>
  <anchor x="177" y="676" name="top"/>
  <outline>
    <contour>
      <point x="130" y="549" type="curve" smooth="yes"/>
      <point x="130" y="127" type="line" smooth="yes"/>
      <point x="130" y="60"/>
      <point x="114" y="43"/>
      <point x="61" y="40" type="curve"/>
      <point x="57" y="29"/>
      <point x="56" y="15"/>
      <point x="56" y="-3" type="curve"/>
      <point x="90" y="-1"/>
      <point x="138" y="0"/>
      <point x="177" y="0" type="curve" smooth="yes"/>
      <point x="216" y="0"/>
      <point x="258" y="-1"/>
      <point x="298" y="-3" type="curve"/>
      <point x="298" y="15"/>
      <point x="297" y="29"/>
      <point x="293" y="40" type="curve"/>
      <point x="240" y="43"/>
      <point x="224" y="60"/>
      <point x="224" y="127" type="curve" smooth="yes"/>
      <point x="224" y="549" type="line" smooth="yes"/>
      <point x="224" y="616"/>
      <point x="240" y="633"/>
      <point x="293" y="636" type="curve"/>
      <point x="297" y="647"/>
      <point x="298" y="661"/>
      <point x="298" y="679" type="curve"/>
      <point x="258" y="677"/>
      <point x="220" y="676"/>
      <point x="177" y="676" type="curve" smooth="yes"/>
      <point x="134" y="676"/>
      <point x="93" y="677"/>
      <point x="56" y="679" type="curve"/>
      <point x="56" y="661"/>
      <point x="57" y="647"/>
      <point x="61" y="636" type="curve"/>
      <point x="114" y="633"/>
      <point x="130" y="616"/>
    </contour>
  </outline>
</glyph>
<glyph name="J" format="2">
  <advance width="329"/>
  <unicode hex="004A"/>
  <anchor x="167" y="676" name="top"/>
  <outline>
    <contour>
      <point x="214" y="125" type="curve" smooth="yes"/>
      <point x="214" y="549" type="line" smooth="yes"/>
      <point x="214" y="616"/>
      <point x="232" y="633"/>
      <point x="283" y="636" type="curve"/>
      <point x="287" y="647"/>
      <point x="288" y="661"/>
      <point x="288" y="679" type="curve"/>
      <point x="264" y="677"/>
      <point x="211" y="676"/>
      <point x="167" y="676" type="curve" smooth="yes"/>
      <point x="123" y="676"/>
      <point x="75" y="677"/>
      <point x="46" y="679" type="curve"/>
      <point x="46" y="661"/>
      <point x="47" y="647"/>
      <point x="51" y="636" type="curve"/>
      <point x="104" y="633"/>
      <point x="120" y="616"/>
      <point x="120" y="549" type="curve" smooth="yes"/>
      <point x="120" y="34" type="line" smooth="yes"/>
      <point x="120" y="-93"/>
      <point x="78" y="-160"/>
      <point x="3" y="-223" type="curve"/>
      <point x="5" y="-234"/>
      <point x="11" y="-244"/>
      <point x="20" y="-249" type="curve"/>
      <point x="191" y="-156"/>
      <point x="214" y="-61"/>
    </contour>
  </outline>
</glyph>
<glyph name="M" format="2">
  <advance width="931"/>
  <unicode hex="004D"/>
  <anchor x="456" y="0" name="bottom"/>
  <anchor x="891" y="41" name="bottomright"/>
  <anchor x="466" y="676" name="top"/>
  <outline>
    <contour>
      <point x="437" y="-9" type="line"/>
      <point x="453" y="-9"/>
      <point x="466" y="-7"/>
      <point x="478" y="-2" type="curve"/>
      <point x="694" y="519" type="line"/>
      <point x="683" y="519" type="line"/>
      <point x="721" y="155" type="line" smooth="yes"/>
      <point x="730" y="67"/>
      <point x="724" y="46"/>
      <point x="660" y="40" type="curve"/>
      <point x="656" y="27"/>
      <point x="654" y="9"/>
      <point x="654" y="-3" type="curve"/>
      <point x="688" y="-1"/>
      <point x="740" y="0"/>
      <point x="776" y="0" type="curve" smooth="yes"/>
      <point x="812" y="0"/>
      <point x="865" y="-1"/>
      <point x="896" y="-3" type="curve"/>
      <point x="896" y="10"/>
      <point x="895" y="27"/>
      <point x="891" y="41" type="curve"/>
      <point x="844" y="45"/>
      <point x="828" y="69"/>
      <point x="818" y="168" type="curve" smooth="yes"/>
      <point x="782" y="535" type="line" smooth="yes"/>
      <point x="774" y="615"/>
      <point x="803" y="636"/>
      <point x="850" y="636" type="curve"/>
      <point x="854" y="651"/>
      <point x="855" y="665"/>
      <point x="855" y="679" type="curve"/>
      <point x="828" y="677"/>
      <point x="805" y="676"/>
      <point x="779" y="676" type="curve" smooth="yes"/>
      <point x="753" y="676"/>
      <point x="724" y="677"/>
      <point x="701" y="679" type="curve"/>
      <point x="473" y="100" type="line"/>
      <point x="495" y="100" type="line"/>
      <point x="233" y="679" type="line"/>
      <point x="207" y="677"/>
      <point x="182" y="676"/>
      <point x="157" y="676" type="curve" smooth="yes"/>
      <point x="132" y="676"/>
      <point x="101" y="677"/>
      <point x="81" y="679" type="curve"/>
      <point x="81" y="667"/>
      <point x="82" y="649"/>
      <point x="86" y="636" type="curve"/>
      <point x="141" y="636"/>
      <point x="159" y="612"/>
      <point x="153" y="541" type="curve" smooth="yes"/>
      <point x="121" y="185" type="line" smooth="yes"/>
      <point x="110" y="64"/>
      <point x="93" y="45"/>
      <point x="40" y="40" type="curve"/>
      <point x="36" y="26"/>
      <point x="35" y="6"/>
      <point x="35" y="-3" type="curve"/>
      <point x="62" y="-1"/>
      <point x="106" y="0"/>
      <point x="135" y="0" type="curve" smooth="yes"/>
      <point x="164" y="0"/>
      <point x="210" y="-1"/>
      <point x="242" y="-3" type="curve"/>
      <point x="242" y="6"/>
      <point x="241" y="26"/>
      <point x="237" y="40" type="curve"/>
      <point x="178" y="45"/>
      <point x="161" y="70"/>
      <point x="172" y="176" type="curve" smooth="yes"/>
      <point x="206" y="515" type="line"/>
      <point x="196" y="515" type="line"/>
    </contour>
  </outline>
</glyph>
<glyph name="N" format="2">
  <advance width="742"/>
  <unicode hex="004E"/>
  <anchor x="398" y="0" name="bottom"/>
  <anchor x="384" y="355" name="center"/>
  <anchor x="376" y="676" name="top"/>
  <outline>
    <contour>
      <point x="594" y="-6" type="line"/>
      <point x="596" y="150" type="line"/>
      <point x="197" y="679" type="line"/>
      <point x="179" y="677"/>
      <point x="155" y="676"/>
      <point x="130" y="676" type="curve" smooth="yes"/>
      <point x="105" y="676"/>
      <point x="76" y="677"/>
      <point x="56" y="679" type="curve"/>
      <point x="56" y="668"/>
      <point x="57" y="650"/>
      <point x="61" y="636" type="curve"/>
      <point x="94" y="633"/>
      <point x="107" y="629"/>
      <point x="126" y="605" type="curve" smooth="yes"/>
    </contour>
    <contour>
      <point x="56" y="-3" type="curve"/>
      <point x="81" y="-1"/>
      <point x="127" y="0"/>
      <point x="156" y="0" type="curve" smooth="yes"/>
      <point x="185" y="0"/>
      <point x="225" y="-1"/>
      <point x="255" y="-3" type="curve"/>
      <point x="255" y="16"/>
      <point x="254" y="28"/>
      <point x="250" y="40" type="curve"/>
      <point x="196" y="40"/>
      <point x="181" y="74"/>
      <point x="181" y="187" type="curve" smooth="yes"/>
      <point x="181" y="610" type="line"/>
      <point x="130" y="610" type="line"/>
      <point x="130" y="187" type="line" smooth="yes"/>
      <point x="130" y="74"/>
      <point x="115" y="40"/>
      <point x="61" y="40" type="curve"/>
      <point x="57" y="28"/>
      <point x="56" y="14"/>
    </contour>
    <contour>
      <point x="594" y="-6" type="line"/>
      <point x="608" y="-6"/>
      <point x="626" y="-4"/>
      <point x="637" y="0" type="curve"/>
      <point x="637" y="494" type="line" smooth="yes"/>
      <point x="637" y="603"/>
      <point x="652" y="636"/>
      <point x="696" y="636" type="curve"/>
      <point x="700" y="650"/>
      <point x="701" y="666"/>
      <point x="701" y="679" type="curve"/>
      <point x="674" y="677"/>
      <point x="634" y="676"/>
      <point x="606" y="676" type="curve" smooth="yes"/>
      <point x="578" y="676"/>
      <point x="541" y="677"/>
      <point x="512" y="679" type="curve"/>
      <point x="512" y="667"/>
      <point x="513" y="659"/>
      <point x="517" y="636" type="curve"/>
      <point x="571" y="636"/>
      <point x="586" y="603"/>
      <point x="586" y="494" type="curve" smooth="yes"/>
      <point x="586" y="94" type="line"/>
    </contour>
  </outline>
</glyph>
<glyph name="O" format="2">
  <advance width="731"/>
  <unicode hex="004F"/>
  <anchor x="366" y="0" name="bottom"/>
  <anchor x="373" y="347" name="center"/>
  <anchor x="514" y="25" name="ogonek"/>
  <anchor x="366" y="676" name="top"/>
  <anchor x="607" y="676" name="topright"/>
  <outline>
    <contour>
      <point x="365" y="-9" type="curve" smooth="yes"/>
      <point x="559" y="-9"/>
      <point x="696" y="143"/>
      <point x="696" y="340" type="curve" smooth="yes"/>
      <point x="696" y="545"/>
      <point x="556" y="685"/>
      <point x="365" y="685" type="curve" smooth="yes"/>
      <point x="180" y="685"/>
      <point x="35" y="544"/>
      <point x="35" y="340" type="curve" smooth="yes"/>
      <point x="35" y="141"/>
      <point x="167" y="-9"/>
    </contour>
    <contour>
      <point x="385" y="40" type="curve" smooth="yes"/>
      <point x="226" y="40"/>
      <point x="138" y="198"/>
      <point x="138" y="367" type="curve" smooth="yes"/>
      <point x="138" y="529"/>
      <point x="226" y="637"/>
      <point x="344" y="637" type="curve" smooth="yes"/>
      <point x="487" y="637"/>
      <point x="593" y="494"/>
      <point x="593" y="314" type="curve" smooth="yes"/>
      <point x="593" y="161"/>
      <point x="515" y="40"/>
    </contour>
  </outline>
</glyph>
<glyph name="R" format="2">
  <advance width="684"/>
  <unicode hex="0052"/>
  <anchor x="346" y="0" name="bottom"/>
  <anchor x="307" y="676" name="top"/>
  <outline>
    <contour>
      <point x="497" y="-9" type="curve"/>
      <point x="546" y="-1"/>
      <point x="604" y="0"/>
      <point x="654" y="0" type="curve"/>
      <point x="658" y="14"/>
      <point x="658" y="27"/>
      <point x="658" y="43" type="curve"/>
      <point x="584" y="47"/>
      <point x="565" y="69"/>
      <point x="523" y="140" type="curve" smooth="yes"/>
      <point x="464" y="240"/>
      <point x="440" y="279"/>
      <point x="385" y="337" type="curve"/>
      <point x="380" y="325" type="line"/>
      <point x="492" y="350"/>
      <point x="561" y="417"/>
      <point x="561" y="510" type="curve" smooth="yes"/>
      <point x="561" y="605"/>
      <point x="494" y="678"/>
      <point x="343" y="678" type="curve" smooth="yes"/>
      <point x="287" y="678"/>
      <point x="231" y="676"/>
      <point x="176" y="676" type="curve" smooth="yes"/>
      <point x="129" y="676"/>
      <point x="76" y="677"/>
      <point x="56" y="678" type="curve"/>
      <point x="56" y="662"/>
      <point x="57" y="649"/>
      <point x="61" y="636" type="curve"/>
      <point x="115" y="636"/>
      <point x="130" y="616"/>
      <point x="130" y="549" type="curve" smooth="yes"/>
      <point x="130" y="127" type="line" smooth="yes"/>
      <point x="130" y="60"/>
      <point x="115" y="43"/>
      <point x="61" y="40" type="curve"/>
      <point x="57" y="27"/>
      <point x="56" y="11"/>
      <point x="56" y="-3" type="curve"/>
      <point x="86" y="-1"/>
      <point x="141" y="0"/>
      <point x="176" y="0" type="curve" smooth="yes"/>
      <point x="201" y="0"/>
      <point x="252" y="0"/>
      <point x="295" y="-3" type="curve"/>
      <point x="295" y="11"/>
      <point x="294" y="28"/>
      <point x="290" y="40" type="curve"/>
      <point x="239" y="43"/>
      <point x="224" y="60"/>
      <point x="224" y="127" type="curve" smooth="yes"/>
      <point x="224" y="636" type="line"/>
      <point x="219" y="625" type="line"/>
      <point x="245" y="631"/>
      <point x="267" y="634"/>
      <point x="298" y="634" type="curve" smooth="yes"/>
      <point x="418" y="634"/>
      <point x="463" y="579"/>
      <point x="463" y="500" type="curve" smooth="yes"/>
      <point x="463" y="396"/>
      <point x="377" y="351"/>
      <point x="268" y="351" type="curve" smooth="yes"/>
      <point x="251" y="351"/>
      <point x="236" y="352"/>
      <point x="217" y="355" type="curve"/>
      <point x="217" y="308" type="line"/>
      <point x="243" y="306"/>
      <point x="272" y="306"/>
      <point x="307" y="308" type="curve"/>
      <point x="281" y="321" type="line"/>
      <point x="351" y="248"/>
      <point x="380" y="202"/>
      <point x="418" y="131" type="curve" smooth="yes"/>
      <point x="443" y="84"/>
      <point x="456" y="57"/>
    </contour>
  </outline>
</glyph>
<glyph name="S" format="2">
  <advance width="552"/>
  <unicode hex="0053"/>
  <anchor x="289" y="0" name="bottom"/>
  <anchor x="278" y="676" name="top"/>
  <outline>
    <contour>
      <point x="271" y="-9" type="curve" smooth="yes"/>
      <point x="430" y="-9"/>
      <point x="499" y="83"/>
      <point x="499" y="183" type="curve" smooth="yes"/>
      <point x="499" y="403"/>
      <point x="167" y="365"/>
      <point x="167" y="542" type="curve" smooth="yes"/>
      <point x="167" y="605"/>
      <point x="209" y="641"/>
      <point x="280" y="641" type="curve" smooth="yes"/>
      <point x="340" y="641"/>
      <point x="378" y="615"/>
      <point x="398" y="500" type="curve"/>
      <point x="416" y="500"/>
      <point x="439" y="503"/>
      <point x="454" y="509" type="curve"/>
      <point x="449" y="545"/>
      <point x="448" y="602"/>
      <point x="448" y="641" type="curve"/>
      <point x="413" y="664"/>
      <point x="350" y="685"/>
      <point x="281" y="685" type="curve" smooth="yes"/>
      <point x="157" y="685"/>
      <point x="80" y="617"/>
      <point x="80" y="505" type="curve" smooth="yes"/>
      <point x="80" y="273"/>
      <point x="413" y="320"/>
      <point x="413" y="143" type="curve" smooth="yes"/>
      <point x="413" y="85"/>
      <point x="377" y="39"/>
      <point x="285" y="39" type="curve" smooth="yes"/>
      <point x="178" y="39"/>
      <point x="136" y="101"/>
      <point x="131" y="203" type="curve"/>
      <point x="114" y="203"/>
      <point x="92" y="201"/>
      <point x="77" y="197" type="curve"/>
      <point x="77" y="160"/>
      <point x="76" y="105"/>
      <point x="68" y="55" type="curve"/>
      <point x="132" y="16"/>
      <point x="188" y="-9"/>
    </contour>
  </outline>
</glyph>
<glyph name="T" format="2">
  <advance width="585"/>
  <unicode hex="0054"/>
  <anchor x="295" y="0" name="bottom"/>
  <anchor x="421" y="40" name="bottomright"/>
  <anchor x="297" y="350" name="center"/>
  <anchor x="297" y="676" name="top"/>
  <outline>
    <contour>
      <point x="198" y="632" type="curve" smooth="yes"/>
      <point x="396" y="632" type="line" smooth="yes"/>
      <point x="474" y="632"/>
      <point x="507" y="588"/>
      <point x="509" y="510" type="curve"/>
      <point x="529" y="509"/>
      <point x="545" y="512"/>
      <point x="559" y="519" type="curve"/>
      <point x="553" y="583"/>
      <point x="551" y="631"/>
      <point x="553" y="679" type="curve"/>
      <point x="498" y="676"/>
      <point x="397" y="676"/>
      <point x="296" y="676" type="curve" smooth="yes"/>
      <point x="195" y="676"/>
      <point x="97" y="676"/>
      <point x="41" y="679" type="curve"/>
      <point x="41" y="633"/>
      <point x="35" y="575"/>
      <point x="25" y="519" type="curve"/>
      <point x="37" y="512"/>
      <point x="58" y="510"/>
      <point x="73" y="510" type="curve"/>
      <point x="87" y="583"/>
      <point x="101" y="632"/>
    </contour>
    <contour>
      <point x="249" y="649" type="line"/>
      <point x="249" y="127" type="line" smooth="yes"/>
      <point x="249" y="60"/>
      <point x="233" y="43"/>
      <point x="169" y="40" type="curve"/>
      <point x="165" y="29"/>
      <point x="164" y="15"/>
      <point x="164" y="-3" type="curve"/>
      <point x="201" y="-1"/>
      <point x="253" y="0"/>
      <point x="295" y="0" type="curve" smooth="yes"/>
      <point x="337" y="0"/>
      <point x="383" y="-1"/>
      <point x="426" y="-3" type="curve"/>
      <point x="426" y="15"/>
      <point x="425" y="29"/>
      <point x="421" y="40" type="curve"/>
      <point x="356" y="43"/>
      <point x="343" y="60"/>
      <point x="343" y="127" type="curve" smooth="yes"/>
      <point x="343" y="649" type="line"/>
    </contour>
  </outline>
</glyph>
<glyph name="V" format="2">
  <advance width="686"/>
  <unicode hex="0056"/>
  <anchor x="337" y="0" name="bottom"/>
  <anchor x="371" y="676" name="top"/>
  <outline>
    <contour>
      <point x="322" y="-6" type="curve"/>
      <point x="338" y="-6"/>
      <point x="348" y="-5"/>
      <point x="361" y="-2" type="curve"/>
      <point x="433" y="172"/>
      <point x="503" y="346"/>
      <point x="570" y="518" type="curve" smooth="yes"/>
      <point x="595" y="584"/>
      <point x="614" y="626"/>
      <point x="656" y="636" type="curve"/>
      <point x="660" y="651"/>
      <point x="661" y="664"/>
      <point x="661" y="679" type="curve"/>
      <point x="632" y="677"/>
      <point x="590" y="676"/>
      <point x="559" y="676" type="curve" smooth="yes"/>
      <point x="528" y="676"/>
      <point x="503" y="677"/>
      <point x="474" y="679" type="curve"/>
      <point x="474" y="668"/>
      <point x="475" y="651"/>
      <point x="479" y="636" type="curve"/>
      <point x="539" y="629"/>
      <point x="545" y="588"/>
      <point x="520" y="514" type="curve" smooth="yes"/>
      <point x="472" y="379"/>
      <point x="420" y="253"/>
      <point x="363" y="123" type="curve"/>
      <point x="378" y="123" type="line"/>
      <point x="326" y="266"/>
      <point x="276" y="397"/>
      <point x="222" y="526" type="curve" smooth="yes"/>
      <point x="182" y="617"/>
      <point x="195" y="632"/>
      <point x="262" y="636" type="curve"/>
      <point x="265" y="650"/>
      <point x="267" y="667"/>
      <point x="267" y="679" type="curve"/>
      <point x="229" y="677"/>
      <point x="188" y="676"/>
      <point x="146" y="676" type="curve" smooth="yes"/>
      <point x="104" y="676"/>
      <point x="51" y="677"/>
      <point x="25" y="679" type="curve"/>
      <point x="25" y="668"/>
      <point x="26" y="652"/>
      <point x="30" y="636" type="curve"/>
      <point x="66" y="632"/>
      <point x="73" y="619"/>
      <point x="115" y="521" type="curve" smooth="yes"/>
      <point x="174" y="382"/>
      <point x="250" y="188"/>
    </contour>
  </outline>
</glyph>
<glyph name="W" format="2">
  <advance width="1003"/>
  <unicode hex="0057"/>
  <anchor x="506" y="0" name="bottom"/>
  <anchor x="506" y="281" name="center"/>
  <anchor x="523" y="676" name="top"/>
  <outline>
    <contour>
      <point x="57" y="677"/>
      <point x="25" y="679" type="curve"/>
      <point x="25" y="665"/>
      <point x="26" y="649"/>
      <point x="30" y="636" type="curve"/>
      <point x="66" y="632"/>
      <point x="72" y="628"/>
      <point x="109" y="521" type="curve" smooth="yes"/>
      <point x="167" y="346"/>
      <point x="223" y="168"/>
      <point x="277" y="-9" type="curve"/>
      <point x="292" y="-9"/>
      <point x="309" y="-7"/>
      <point x="320" y="-3" type="curve"/>
      <point x="500" y="535" type="line"/>
      <point x="491" y="535" type="line"/>
      <point x="556" y="365"/>
      <point x="631" y="162"/>
      <point x="691" y="-9" type="curve"/>
      <point x="706" y="-9"/>
      <point x="720" y="-7"/>
      <point x="731" y="-3" type="curve"/>
      <point x="887" y="491" type="line" smooth="yes"/>
      <point x="922" y="601"/>
      <point x="936" y="628"/>
      <point x="971" y="636" type="curve"/>
      <point x="976" y="650"/>
      <point x="978" y="666"/>
      <point x="978" y="679" type="curve"/>
      <point x="951" y="677"/>
      <point x="914" y="676"/>
      <point x="883" y="676" type="curve" smooth="yes"/>
      <point x="847" y="676"/>
      <point x="814" y="677"/>
      <point x="786" y="679" type="curve"/>
      <point x="786" y="668"/>
      <point x="788" y="649"/>
      <point x="793" y="636" type="curve"/>
      <point x="858" y="628"/>
      <point x="872" y="594"/>
      <point x="841" y="494" type="curve" smooth="yes"/>
      <point x="726" y="128" type="line"/>
      <point x="746" y="128" type="line"/>
      <point x="686" y="301"/>
      <point x="610" y="512"/>
      <point x="544" y="684" type="curve"/>
      <point x="523" y="684"/>
      <point x="510" y="683"/>
      <point x="500" y="679" type="curve"/>
      <point x="312" y="125" type="line"/>
      <point x="334" y="125" type="line"/>
      <point x="298" y="249"/>
      <point x="247" y="411"/>
      <point x="207" y="533" type="curve" smooth="yes"/>
      <point x="176" y="622"/>
      <point x="184" y="632"/>
      <point x="254" y="636" type="curve"/>
      <point x="258" y="652"/>
      <point x="259" y="668"/>
      <point x="259" y="679" type="curve"/>
      <point x="222" y="677"/>
      <point x="169" y="676"/>
      <point x="138" y="676" type="curve" smooth="yes"/>
      <point x="107" y="676"/>
    </contour>
  </outline>
</glyph>
<glyph name="X" format="2">
  <advance width="667"/>
  <unicode hex="0058"/>
  <anchor x="621" y="40" name="bottomright"/>
  <anchor x="346" y="337" name="center"/>
  <anchor x="357" y="676" name="top"/>
  <outline>
    <contour>
      <point x="627" y="-3" type="curve"/>
      <point x="627" y="12"/>
      <point x="625" y="28"/>
      <point x="621" y="40" type="curve"/>
      <point x="589" y="45"/>
      <point x="568" y="64"/>
      <point x="512" y="157" type="curve" smooth="yes"/>
      <point x="438" y="281"/>
      <point x="361" y="405"/>
      <point x="279" y="529" type="curve" smooth="yes"/>
      <point x="230" y="604"/>
      <point x="239" y="626"/>
      <point x="295" y="636" type="curve"/>
      <point x="298" y="651"/>
      <point x="299" y="666"/>
      <point x="299" y="678" type="curve"/>
      <point x="268" y="677"/>
      <point x="216" y="676"/>
      <point x="178" y="676" type="curve" smooth="yes"/>
      <point x="140" y="676"/>
      <point x="91" y="677"/>
      <point x="56" y="679" type="curve"/>
      <point x="56" y="665"/>
      <point x="57" y="651"/>
      <point x="62" y="635" type="curve"/>
      <point x="94" y="629"/>
      <point x="100" y="624"/>
      <point x="171" y="516" type="curve" smooth="yes"/>
      <point x="253" y="392"/>
      <point x="331" y="268"/>
      <point x="404" y="144" type="curve" smooth="yes"/>
      <point x="455" y="58"/>
      <point x="439" y="45"/>
      <point x="388" y="40" type="curve"/>
      <point x="385" y="26"/>
      <point x="384" y="10"/>
      <point x="384" y="-2" type="curve"/>
      <point x="414" y="-1"/>
      <point x="464" y="0"/>
      <point x="505" y="0" type="curve" smooth="yes"/>
      <point x="546" y="0"/>
      <point x="598" y="-1"/>
    </contour>
    <contour>
      <point x="40" y="-3" type="curve"/>
      <point x="67" y="-1"/>
      <point x="107" y="0"/>
      <point x="144" y="0" type="curve" smooth="yes"/>
      <point x="181" y="0"/>
      <point x="220" y="-1"/>
      <point x="254" y="-3" type="curve"/>
      <point x="254" y="10"/>
      <point x="253" y="26"/>
      <point x="249" y="40" type="curve"/>
      <point x="183" y="52"/>
      <point x="181" y="80"/>
      <point x="232" y="155" type="curve" smooth="yes"/>
      <point x="327" y="295" type="line"/>
      <point x="298" y="334" type="line"/>
      <point x="165" y="144" type="line" smooth="yes"/>
      <point x="116" y="76"/>
      <point x="78" y="50"/>
      <point x="46" y="42" type="curve"/>
      <point x="41" y="28"/>
      <point x="40" y="8"/>
    </contour>
    <contour>
      <point x="369" y="328" type="line"/>
      <point x="496" y="521" type="line" smooth="yes"/>
      <point x="556" y="612"/>
      <point x="580" y="628"/>
      <point x="611" y="636" type="curve"/>
      <point x="615" y="651"/>
      <point x="615" y="666"/>
      <point x="615" y="679" type="curve"/>
      <point x="590" y="677"/>
      <point x="546" y="676"/>
      <point x="516" y="676" type="curve" smooth="yes"/>
      <point x="486" y="676"/>
      <point x="447" y="677"/>
      <point x="414" y="679" type="curve"/>
      <point x="414" y="668"/>
      <point x="415" y="651"/>
      <point x="419" y="636" type="curve"/>
      <point x="480" y="628"/>
      <point x="488" y="604"/>
      <point x="434" y="518" type="curve" smooth="yes"/>
      <point x="339" y="369" type="line"/>
    </contour>
  </outline>
</glyph>
<glyph name="Y" format="2">
  <advance width="630"/>
  <unicode hex="0059"/>
  <anchor x="317" y="0" name="bottom"/>
  <anchor x="318" y="236" name="center"/>
  <anchor x="342" y="676" name="top"/>
  <outline>
    <contour>
      <point x="365" y="264" type="line"/>
      <point x="271" y="264" type="line"/>
      <point x="271" y="150" type="line" smooth="yes"/>
      <point x="271" y="56"/>
      <point x="262" y="46"/>
      <point x="191" y="40" type="curve"/>
      <point x="187" y="28"/>
      <point x="185" y="12"/>
      <point x="185" y="-2" type="curve"/>
      <point x="213" y="-1"/>
      <point x="277" y="0"/>
      <point x="321" y="0" type="curve" smooth="yes"/>
      <point x="358" y="0"/>
      <point x="404" y="-2"/>
      <point x="448" y="-3" type="curve"/>
      <point x="448" y="13"/>
      <point x="446" y="28"/>
      <point x="442" y="40" type="curve"/>
      <point x="374" y="49"/>
      <point x="365" y="57"/>
      <point x="365" y="163" type="curve" smooth="yes"/>
    </contour>
    <contour>
      <point x="357" y="244" type="line"/>
      <point x="500" y="531" type="line" smooth="yes"/>
      <point x="534" y="599"/>
      <point x="565" y="629"/>
      <point x="601" y="639" type="curve"/>
      <point x="604" y="653"/>
      <point x="605" y="664"/>
      <point x="605" y="678" type="curve"/>
      <point x="582" y="677"/>
      <point x="549" y="676"/>
      <point x="519" y="676" type="curve" smooth="yes"/>
      <point x="489" y="676"/>
      <point x="445" y="676"/>
      <point x="421" y="678" type="curve"/>
      <point x="421" y="663"/>
      <point x="424" y="651"/>
      <point x="428" y="637" type="curve"/>
      <point x="481" y="629"/>
      <point x="491" y="612"/>
      <point x="455" y="542" type="curve" smooth="yes"/>
      <point x="424" y="480"/>
      <point x="386" y="400"/>
      <point x="343" y="305" type="curve"/>
      <point x="351" y="305" type="line"/>
      <point x="310" y="398"/>
      <point x="266" y="488"/>
      <point x="230" y="557" type="curve" smooth="yes"/>
      <point x="200" y="614"/>
      <point x="206" y="634"/>
      <point x="258" y="639" type="curve"/>
      <point x="262" y="653"/>
      <point x="263" y="663"/>
      <point x="263" y="678" type="curve"/>
      <point x="232" y="676"/>
      <point x="167" y="676"/>
      <point x="129" y="676" type="curve" smooth="yes"/>
      <point x="91" y="676"/>
      <point x="53" y="677"/>
      <point x="25" y="678" type="curve"/>
      <point x="25" y="664"/>
      <point x="26" y="652"/>
      <point x="31" y="637" type="curve"/>
      <point x="68" y="635"/>
      <point x="84" y="619"/>
      <point x="105" y="578" type="curve" smooth="yes"/>
      <point x="279" y="244" type="line"/>
    </contour>
  </outline>
</glyph>
<glyph name="backslash" format="2">
  <advance width="380"/>
  <unicode hex="005C"/>
  <outline>
    <contour>
      <point x="37" y="712"/>
      <point x="31" y="709" type="curve"/>
      <point x="295" y="-3" type="line"/>
      <point x="304" y="-6"/>
      <point x="337" y="-4"/>
      <point x="347" y="0" type="curve"/>
      <point x="84" y="709" type="line"/>
      <point x="78" y="712"/>
      <point x="68" y="713"/>
      <point x="57" y="713" type="curve" smooth="yes"/>
      <point x="47" y="713"/>
    </contour>
  </outline>
</glyph>
<glyph name="bracketright" format="2">
  <advance width="272"/>
  <unicode hex="005D"/>
  <outline>
    <contour>
      <point x="237" y="-269" type="curve"/>
      <point x="237" y="742" type="line"/>
      <point x="202" y="740"/>
      <point x="168" y="740"/>
      <point x="142" y="740" type="curve" smooth="yes"/>
      <point x="107" y="740"/>
      <point x="84" y="740"/>
      <point x="46" y="742" type="curve"/>
      <point x="37" y="734"/>
      <point x="35" y="718"/>
      <point x="35" y="704" type="curve"/>
      <point x="142" y="695"/>
      <point x="167" y="688"/>
      <point x="167" y="610" type="curve" smooth="yes"/>
      <point x="167" y="-157" type="line" smooth="yes"/>
      <point x="167" y="-221"/>
      <point x="127" y="-225"/>
      <point x="46" y="-229" type="curve"/>
      <point x="37" y="-239"/>
      <point x="35" y="-250"/>
      <point x="35" y="-269" type="curve"/>
      <point x="63" y="-267"/>
      <point x="104" y="-267"/>
      <point x="131" y="-267" type="curve" smooth="yes"/>
      <point x="164" y="-267"/>
      <point x="203" y="-267"/>
    </contour>
  </outline>
</glyph>
<glyph name="a" format="2">
  <advance width="498"/>
  <unicode hex="0061"/>
  <anchor x="252" y="0" name="bottom"/>
  <anchor x="452" y="22" name="ogonek"/>
  <anchor x="239" y="458" name="top"/>
  <outline>
    <contour>
      <point x="343" y="-9" type="curve"/>
      <point x="374" y="8"/>
      <point x="419" y="20"/>
      <point x="452" y="22" type="curve"/>
      <point x="457" y="36"/>
      <point x="458" y="54"/>
      <point x="458" y="68" type="curve"/>
      <point x="404" y="71"/>
      <point x="396" y="89"/>
      <point x="396" y="146" type="curve" smooth="yes"/>
      <point x="396" y="256" type="line" smooth="yes"/>
      <point x="396" y="345"/>
      <point x="388" y="395"/>
      <point x="354" y="429" type="curve" smooth="yes"/>
      <point x="332" y="451"/>
      <point x="297" y="467"/>
      <point x="248" y="467" type="curve" smooth="yes"/>
      <point x="197" y="467"/>
      <point x="132" y="450"/>
      <point x="78" y="422" type="curve"/>
      <point x="84" y="392"/>
      <point x="86" y="346"/>
      <point x="83" y="313" type="curve"/>
      <point x="93" y="308"/>
      <point x="120" y="306"/>
      <point x="135" y="306" type="curve"/>
      <point x="137" y="348"/>
      <point x="156" y="422"/>
      <point x="223" y="422" type="curve" smooth="yes"/>
      <point x="248" y="422"/>
      <point x="269" y="412"/>
      <point x="285" y="392" type="curve" smooth="yes"/>
      <point x="302" y="371"/>
      <point x="306" y="350"/>
      <point x="306" y="268" type="curve"/>
      <point x="224" y="256"/>
      <point x="50" y="229"/>
      <point x="50" y="99" type="curve" smooth="yes"/>
      <point x="50" y="33"/>
      <point x="95" y="-7"/>
      <point x="179" y="-7" type="curve" smooth="yes"/>
      <point x="228" y="-7"/>
      <point x="262" y="7"/>
      <point x="285" y="27" type="curve" smooth="yes"/>
      <point x="307" y="46"/>
      <point x="322" y="73"/>
      <point x="326" y="94" type="curve"/>
      <point x="324" y="94" type="line"/>
      <point x="320" y="81"/>
      <point x="319" y="62"/>
      <point x="319" y="50" type="curve" smooth="yes"/>
      <point x="319" y="12"/>
      <point x="328" y="-3"/>
    </contour>
    <contour>
      <point x="207" y="48" type="curve" smooth="yes"/>
      <point x="175" y="48"/>
      <point x="147" y="70"/>
      <point x="147" y="119" type="curve" smooth="yes"/>
      <point x="147" y="206"/>
      <point x="238" y="218"/>
      <point x="306" y="227" type="curve"/>
      <point x="306" y="189" type="line" smooth="yes"/>
      <point x="306" y="89"/>
      <point x="251" y="48"/>
    </contour>
  </outline>
</glyph>
<glyph name="c" format="2">
  <advance width="447"/>
  <unicode hex="0063"/>
  <anchor x="260" y="0" name="bottom"/>
  <anchor x="244" y="458" name="top"/>
  <outline>
    <contour>
      <point x="376" y="21"/>
      <point x="412" y="78" type="curve"/>
      <point x="408" y="90"/>
      <point x="397" y="101"/>
      <point x="387" y="106" type="curve"/>
      <point x="358" y="68"/>
      <point x="319" y="48"/>
      <point x="276" y="48" type="curve" smooth="yes"/>
      <point x="183" y="48"/>
      <point x="133" y="142"/>
      <point x="133" y="242" type="curve" smooth="yes"/>
      <point x="133" y="356"/>
      <point x="174" y="420"/>
      <point x="240" y="420" type="curve" smooth="yes"/>
      <point x="298" y="420"/>
      <point x="338" y="377"/>
      <point x="346" y="300" type="curve"/>
      <point x="360" y="300"/>
      <point x="381" y="302"/>
      <point x="392" y="308" type="curve"/>
      <point x="392" y="346"/>
      <point x="393" y="383"/>
      <point x="399" y="422" type="curve"/>
      <point x="361" y="452"/>
      <point x="309" y="467"/>
      <point x="248" y="467" type="curve" smooth="yes"/>
      <point x="113" y="467"/>
      <point x="40" y="347"/>
      <point x="40" y="227" type="curve" smooth="yes"/>
      <point x="40" y="70"/>
      <point x="146" y="-9"/>
      <point x="248" y="-9" type="curve" smooth="yes"/>
      <point x="324" y="-9"/>
    </contour>
  </outline>
</glyph>
<glyph name="d" format="2">
  <advance width="564"/>
  <unicode hex="0064"/>
  <anchor x="280" y="0" name="bottom"/>
  <anchor x="389" y="555" name="center"/>
  <anchor x="330" y="708" name="top"/>
  <anchor x="539" y="458" name="topright"/>
  <outline>
    <contour>
      <point x="289" y="467" type="curve" smooth="yes"/>
      <point x="139" y="467"/>
      <point x="40" y="353"/>
      <point x="40" y="213" type="curve" smooth="yes"/>
      <point x="40" y="59"/>
      <point x="110" y="-9"/>
      <point x="227" y="-9" type="curve" smooth="yes"/>
      <point x="294" y="-9"/>
      <point x="346" y="35"/>
      <point x="364" y="65" type="curve" smooth="yes"/>
      <point x="371" y="76"/>
      <point x="384" y="96"/>
      <point x="401" y="139" type="curve"/>
      <point x="372" y="245" type="line"/>
      <point x="372" y="105"/>
      <point x="310" y="54"/>
      <point x="251" y="54" type="curve" smooth="yes"/>
      <point x="207" y="54"/>
      <point x="139" y="98"/>
      <point x="139" y="226" type="curve" smooth="yes"/>
      <point x="139" y="385"/>
      <point x="229" y="421"/>
      <point x="284" y="421" type="curve" smooth="yes"/>
      <point x="331" y="421"/>
      <point x="359" y="400"/>
      <point x="386" y="372" type="curve"/>
      <point x="386" y="449" type="line"/>
      <point x="352" y="460"/>
      <point x="327" y="467"/>
    </contour>
    <contour>
      <point x="462" y="136" type="curve"/>
      <point x="393" y="136" type="line"/>
      <point x="384" y="88"/>
      <point x="379" y="75"/>
      <point x="379" y="49" type="curve" smooth="yes"/>
      <point x="379" y="3"/>
      <point x="390" y="-3"/>
      <point x="404" y="-9" type="curve"/>
      <point x="435" y="8"/>
      <point x="485" y="20"/>
      <point x="518" y="22" type="curve"/>
      <point x="523" y="36"/>
      <point x="524" y="54"/>
      <point x="524" y="68" type="curve"/>
      <point x="469" y="68"/>
      <point x="462" y="89"/>
    </contour>
    <contour>
      <point x="462" y="575" type="line"/>
      <point x="372" y="575" type="line"/>
      <point x="372" y="127" type="line"/>
      <point x="462" y="127" type="line"/>
    </contour>
    <contour>
      <point x="440" y="717" type="curve"/>
      <point x="416" y="700"/>
      <point x="336" y="683"/>
      <point x="306" y="683" type="curve"/>
      <point x="299" y="672"/>
      <point x="297" y="661"/>
      <point x="297" y="646" type="curve"/>
      <point x="365" y="646"/>
      <point x="372" y="622"/>
      <point x="372" y="575" type="curve" smooth="yes"/>
      <point x="372" y="538" type="line"/>
      <point x="462" y="538" type="line"/>
      <point x="462" y="677" type="line" smooth="yes"/>
      <point x="462" y="702"/>
      <point x="452" y="713"/>
    </contour>
  </outline>
</glyph>
<glyph name="e" format="2">
  <advance width="474"/>
  <unicode hex="0065"/>
  <anchor x="258" y="0" name="bottom"/>
  <anchor x="40" y="229" name="left"/>
  <anchor x="395" y="38" name="ogonek"/>
  <anchor x="243" y="458" name="top"/>
  <outline>
    <contour>
      <point x="252" y="-9" type="curve" smooth="yes"/>
      <point x="325" y="-9"/>
      <point x="384" y="14"/>
      <point x="430" y="74" type="curve"/>
      <point x="428" y="85"/>
      <point x="417" y="99"/>
      <point x="406" y="105" type="curve"/>
      <point x="373" y="67"/>
      <point x="328" y="47"/>
      <point x="284" y="47" type="curve" smooth="yes"/>
      <point x="168" y="47"/>
      <point x="138" y="152"/>
      <point x="138" y="250" type="curve" smooth="yes"/>
      <point x="138" y="383"/>
      <point x="189" y="419"/>
      <point x="238" y="419" type="curve" smooth="yes"/>
      <point x="296" y="419"/>
      <point x="330" y="359"/>
      <point x="330" y="271" type="curve"/>
      <point x="118" y="271" type="line"/>
      <point x="118" y="220" type="line"/>
      <point x="224" y="226"/>
      <point x="374" y="226"/>
      <point x="419" y="226" type="curve"/>
      <point x="426" y="235"/>
      <point x="431" y="246"/>
      <point x="434" y="260" type="curve"/>
      <point x="426" y="374"/>
      <point x="377" y="467"/>
      <point x="247" y="467" type="curve" smooth="yes"/>
      <point x="119" y="467"/>
      <point x="40" y="357"/>
      <point x="40" y="229" type="curve" smooth="yes"/>
      <point x="40" y="98"/>
      <point x="110" y="-9"/>
    </contour>
  </outline>
</glyph>
<glyph name="f" format="2">
  <advance width="342"/>
  <unicode hex="0066"/>
  <anchor x="161" y="0" name="bottom"/>
  <anchor x="161" y="224" name="center"/>
  <anchor x="284" y="708" name="top"/>
  <outline>
    <contour>
      <point x="308" y="448" type="curve"/>
      <point x="197" y="448" type="line"/>
      <point x="197" y="389" type="line"/>
      <point x="225" y="398"/>
      <point x="259" y="403"/>
      <point x="298" y="403" type="curve"/>
      <point x="306" y="416"/>
      <point x="308" y="435"/>
    </contour>
    <contour>
      <point x="116" y="488" type="curve" smooth="yes"/>
      <point x="116" y="222" type="line"/>
      <point x="206" y="222" type="line"/>
      <point x="206" y="519" type="line" smooth="yes"/>
      <point x="206" y="608"/>
      <point x="227" y="659"/>
      <point x="281" y="659" type="curve" smooth="yes"/>
      <point x="337" y="659"/>
      <point x="359" y="618"/>
      <point x="359" y="564" type="curve"/>
      <point x="377" y="564"/>
      <point x="399" y="567"/>
      <point x="416" y="572" type="curve"/>
      <point x="416" y="608"/>
      <point x="417" y="647"/>
      <point x="420" y="689" type="curve"/>
      <point x="398" y="702"/>
      <point x="377" y="714"/>
      <point x="325" y="714" type="curve" smooth="yes"/>
      <point x="221" y="714"/>
      <point x="116" y="638"/>
    </contour>
    <contour>
      <point x="131" y="448" type="line"/>
      <point x="50" y="448" type="line"/>
      <point x="40" y="435"/>
      <point x="36" y="420"/>
      <point x="36" y="403" type="curve"/>
      <point x="60" y="403"/>
      <point x="98" y="400"/>
      <point x="131" y="391" type="curve"/>
    </contour>
    <contour>
      <point x="206" y="147" type="curve" smooth="yes"/>
      <point x="206" y="227" type="line"/>
      <point x="116" y="227" type="line"/>
      <point x="116" y="127" type="line" smooth="yes"/>
      <point x="116" y="60"/>
      <point x="100" y="43"/>
      <point x="47" y="40" type="curve"/>
      <point x="43" y="29"/>
      <point x="42" y="15"/>
      <point x="42" y="-3" type="curve"/>
      <point x="68" y="-1"/>
      <point x="127" y="0"/>
      <point x="174" y="0" type="curve" smooth="yes"/>
      <point x="221" y="0"/>
      <point x="269" y="-1"/>
      <point x="300" y="-3" type="curve"/>
      <point x="300" y="15"/>
      <point x="299" y="29"/>
      <point x="295" y="40" type="curve"/>
      <point x="232" y="43"/>
      <point x="206" y="60"/>
    </contour>
  </outline>
</glyph>
<glyph name="h" format="2">
  <advance width="596"/>
  <unicode hex="0068"/>
  <anchor x="303" y="0" name="bottom"/>
  <anchor x="555" y="40" name="bottomright"/>
  <anchor x="155" y="538" name="center"/>
  <anchor x="262" y="676" name="top"/>
  <outline>
    <contour>
      <point x="496" y="127" type="curve" smooth="yes"/>
      <point x="496" y="299" type="line"/>
      <point x="496" y="421"/>
      <point x="429" y="462"/>
      <point x="353" y="462" type="curve" smooth="yes"/>
      <point x="282" y="462"/>
      <point x="230" y="421"/>
      <point x="208" y="390" type="curve" smooth="yes"/>
      <point x="200" y="379"/>
      <point x="197" y="371"/>
      <point x="193" y="364" type="curve"/>
      <point x="199" y="387"/>
      <point x="200" y="407"/>
      <point x="200" y="423" type="curve"/>
      <point x="110" y="325" type="line"/>
      <point x="110" y="127" type="line" smooth="yes"/>
      <point x="110" y="60"/>
      <point x="93" y="40"/>
      <point x="41" y="40" type="curve"/>
      <point x="37" y="29"/>
      <point x="36" y="15"/>
      <point x="36" y="-3" type="curve"/>
      <point x="65" y="-1"/>
      <point x="114" y="0"/>
      <point x="155" y="0" type="curve" smooth="yes"/>
      <point x="196" y="0"/>
      <point x="246" y="-2"/>
      <point x="274" y="-3" type="curve"/>
      <point x="274" y="15"/>
      <point x="273" y="28"/>
      <point x="269" y="40" type="curve"/>
      <point x="217" y="40"/>
      <point x="200" y="60"/>
      <point x="200" y="127" type="curve" smooth="yes"/>
      <point x="200" y="234" type="line" smooth="yes"/>
      <point x="200" y="356"/>
      <point x="261" y="401"/>
      <point x="313" y="401" type="curve" smooth="yes"/>
      <point x="367" y="401"/>
      <point x="406" y="373"/>
      <point x="406" y="279" type="curve" smooth="yes"/>
      <point x="406" y="127" type="line" smooth="yes"/>
      <point x="406" y="60"/>
      <point x="385" y="40"/>
      <point x="337" y="40" type="curve"/>
      <point x="333" y="29"/>
      <point x="332" y="15"/>
      <point x="332" y="-3" type="curve"/>
      <point x="363" y="-2"/>
      <point x="410" y="0"/>
      <point x="451" y="0" type="curve" smooth="yes"/>
      <point x="492" y="0"/>
      <point x="531" y="-1"/>
      <point x="560" y="-3" type="curve"/>
      <point x="560" y="15"/>
      <point x="559" y="28"/>
      <point x="555" y="40" type="curve"/>
      <point x="515" y="40"/>
      <point x="496" y="58"/>
    </contour>
    <contour>
      <point x="110" y="575" type="curve" smooth="yes"/>
      <point x="110" y="538" type="line"/>
      <point x="200" y="538" type="line"/>
      <point x="200" y="677" type="line" smooth="yes"/>
      <point x="200" y="702"/>
      <point x="190" y="713"/>
      <point x="178" y="717" type="curve"/>
      <point x="154" y="700"/>
      <point x="74" y="683"/>
      <point x="44" y="683" type="curve"/>
      <point x="37" y="672"/>
      <point x="35" y="661"/>
      <point x="35" y="646" type="curve"/>
      <point x="103" y="646"/>
      <point x="110" y="622"/>
    </contour>
    <contour>
      <point x="110" y="575" type="line"/>
      <point x="110" y="310" type="line"/>
      <point x="200" y="423" type="line"/>
      <point x="200" y="575" type="line"/>
    </contour>
  </outline>
</glyph>
<glyph name="m" format="2">
  <advance width="885"/>
  <unicode hex="006D"/>
  <anchor x="443" y="0" name="bottom"/>
  <anchor x="443" y="229" name="center"/>
  <anchor x="443" y="458" name="top"/>
  <outline>
    <contour>
      <point x="37" y="-3" type="curve"/>
      <point x="69" y="-1"/>
      <point x="121" y="0"/>
      <point x="156" y="0" type="curve" smooth="yes"/>
      <point x="191" y="0"/>
      <point x="241" y="-1"/>
      <point x="275" y="-3" type="curve"/>
      <point x="275" y="15"/>
      <point x="274" y="28"/>
      <point x="270" y="40" type="curve"/>
      <point x="217" y="43"/>
      <point x="200" y="60"/>
      <point x="200" y="127" type="curve" smooth="yes"/>
      <point x="200" y="239" type="line" smooth="yes"/>
      <point x="200" y="361"/>
      <point x="260" y="406"/>
      <point x="311" y="406" type="curve" smooth="yes"/>
      <point x="365" y="406"/>
      <point x="403" y="378"/>
      <point x="403" y="284" type="curve" smooth="yes"/>
      <point x="403" y="127" type="line" smooth="yes"/>
      <point x="403" y="60"/>
      <point x="387" y="43"/>
      <point x="334" y="40" type="curve"/>
      <point x="330" y="29"/>
      <point x="329" y="15"/>
      <point x="329" y="-3" type="curve"/>
      <point x="365" y="-1"/>
      <point x="409" y="0"/>
      <point x="448" y="0" type="curve" smooth="yes"/>
      <point x="487" y="0"/>
      <point x="533" y="-1"/>
      <point x="567" y="-3" type="curve"/>
      <point x="567" y="15"/>
      <point x="566" y="28"/>
      <point x="562" y="40" type="curve"/>
      <point x="511" y="43"/>
      <point x="492" y="58"/>
      <point x="492" y="127" type="curve" smooth="yes"/>
      <point x="492" y="234" type="line" smooth="yes"/>
      <point x="492" y="356"/>
      <point x="552" y="401"/>
      <point x="603" y="401" type="curve" smooth="yes"/>
      <point x="657" y="401"/>
      <point x="695" y="373"/>
      <point x="695" y="279" type="curve" smooth="yes"/>
      <point x="695" y="127" type="line" smooth="yes"/>
      <point x="695" y="60"/>
      <point x="679" y="43"/>
      <point x="626" y="40" type="curve"/>
      <point x="622" y="29"/>
      <point x="621" y="15"/>
      <point x="621" y="-3" type="curve"/>
      <point x="654" y="-1"/>
      <point x="700" y="0"/>
      <point x="740" y="0" type="curve" smooth="yes"/>
      <point x="780" y="0"/>
      <point x="819" y="-1"/>
      <point x="849" y="-3" type="curve"/>
      <point x="849" y="15"/>
      <point x="848" y="28"/>
      <point x="844" y="40" type="curve"/>
      <point x="803" y="43"/>
      <point x="784" y="58"/>
      <point x="784" y="127" type="curve" smooth="yes"/>
      <point x="784" y="299" type="line" smooth="yes"/>
      <point x="784" y="421"/>
      <point x="718" y="462"/>
      <point x="643" y="462" type="curve" smooth="yes"/>
      <point x="573" y="462"/>
      <point x="522" y="421"/>
      <point x="500" y="390" type="curve" smooth="yes"/>
      <point x="492" y="379"/>
      <point x="487" y="369"/>
      <point x="480" y="350" type="curve"/>
      <point x="483" y="350" type="line"/>
      <point x="483" y="363"/>
      <point x="482" y="374"/>
      <point x="479" y="383" type="curve" smooth="yes"/>
      <point x="458" y="444"/>
      <point x="407" y="467"/>
      <point x="351" y="467" type="curve" smooth="yes"/>
      <point x="281" y="467"/>
      <point x="229" y="426"/>
      <point x="208" y="395" type="curve" smooth="yes"/>
      <point x="204" y="390"/>
      <point x="197" y="377"/>
      <point x="178" y="327" type="curve"/>
      <point x="188" y="328" type="line"/>
      <point x="195" y="382"/>
      <point x="196" y="405"/>
      <point x="196" y="427" type="curve" smooth="yes"/>
      <point x="196" y="452"/>
      <point x="186" y="463"/>
      <point x="174" y="467" type="curve"/>
      <point x="148" y="452"/>
      <point x="79" y="435"/>
      <point x="45" y="433" type="curve"/>
      <point x="38" y="422"/>
      <point x="36" y="411"/>
      <point x="36" y="396" type="curve"/>
      <point x="102" y="394"/>
      <point x="111" y="372"/>
      <point x="111" y="325" type="curve" smooth="yes"/>
      <point x="111" y="127" type="line" smooth="yes"/>
      <point x="111" y="60"/>
      <point x="95" y="43"/>
      <point x="42" y="40" type="curve"/>
      <point x="38" y="29"/>
      <point x="37" y="15"/>
    </contour>
  </outline>
</glyph>
<glyph name="o" format="2">
  <advance width="532"/>
  <unicode hex="006F"/>
  <anchor x="267" y="0" name="bottom"/>
  <anchor x="254" y="230" name="center"/>
  <anchor x="332" y="0" name="ogonek"/>
  <anchor x="263" y="458" name="top"/>
  <anchor x="462" y="458" name="topright"/>
  <outline>
    <contour>
      <point x="266" y="-9" type="curve" smooth="yes"/>
      <point x="401" y="-9"/>
      <point x="492" y="92"/>
      <point x="492" y="229" type="curve" smooth="yes"/>
      <point x="492" y="371"/>
      <point x="408" y="467"/>
      <point x="266" y="467" type="curve" smooth="yes"/>
      <point x="133" y="467"/>
      <point x="40" y="365"/>
      <point x="40" y="229" type="curve" smooth="yes"/>
      <point x="40" y="85"/>
      <point x="129" y="-9"/>
    </contour>
    <contour>
      <point x="274" y="39" type="curve" smooth="yes"/>
      <point x="193" y="39"/>
      <point x="141" y="115"/>
      <point x="141" y="250" type="curve" smooth="yes"/>
      <point x="141" y="350"/>
      <point x="179" y="419"/>
      <point x="256" y="419" type="curve" smooth="yes"/>
      <point x="330" y="419"/>
      <point x="392" y="341"/>
      <point x="392" y="217" type="curve" smooth="yes"/>
      <point x="392" y="112"/>
      <point x="354" y="39"/>
    </contour>
  </outline>
</glyph>
<glyph name="q" format="2">
  <advance width="546"/>
  <unicode hex="0071"/>
  <outline>
    <contour>
      <point x="375" y="467"/>
      <point x="284" y="467" type="curve" smooth="yes"/>
      <point x="138" y="467"/>
      <point x="40" y="350"/>
      <point x="40" y="214" type="curve" smooth="yes"/>
      <point x="40" y="71"/>
      <point x="127" y="-1"/>
      <point x="224" y="-1" type="curve" smooth="yes"/>
      <point x="277" y="-1"/>
      <point x="331" y="28"/>
      <point x="358" y="63" type="curve" smooth="yes"/>
      <point x="370" y="79"/>
      <point x="384" y="112"/>
      <point x="392" y="137" type="curve"/>
      <point x="372" y="233" type="line"/>
      <point x="372" y="103"/>
      <point x="307" y="60"/>
      <point x="261" y="60" type="curve" smooth="yes"/>
      <point x="204" y="60"/>
      <point x="139" y="102"/>
      <point x="139" y="227" type="curve" smooth="yes"/>
      <point x="139" y="352"/>
      <point x="201" y="421"/>
      <point x="288" y="421" type="curve" smooth="yes"/>
      <point x="321" y="421"/>
      <point x="357" y="402"/>
      <point x="372" y="386" type="curve"/>
      <point x="482" y="400" type="line"/>
      <point x="440" y="441"/>
    </contour>
    <contour>
      <point x="356" y="-199"/>
      <point x="293" y="-202" type="curve"/>
      <point x="289" y="-213"/>
      <point x="288" y="-227"/>
      <point x="288" y="-245" type="curve"/>
      <point x="322" y="-243"/>
      <point x="369" y="-242"/>
      <point x="412" y="-242" type="curve" smooth="yes"/>
      <point x="455" y="-242"/>
      <point x="511" y="-243"/>
      <point x="536" y="-245" type="curve"/>
      <point x="536" y="-227"/>
      <point x="535" y="-214"/>
      <point x="531" y="-202" type="curve"/>
      <point x="478" y="-199"/>
      <point x="462" y="-182"/>
      <point x="462" y="-115" type="curve" smooth="yes"/>
      <point x="462" y="291" type="line" smooth="yes"/>
      <point x="462" y="350"/>
      <point x="469" y="380"/>
      <point x="482" y="400" type="curve"/>
      <point x="372" y="400" type="line"/>
      <point x="372" y="137" type="line"/>
      <point x="390" y="134" type="line"/>
      <point x="377" y="84"/>
      <point x="372" y="53"/>
      <point x="372" y="20" type="curve" smooth="yes"/>
      <point x="372" y="-115" type="line" smooth="yes"/>
      <point x="372" y="-182"/>
    </contour>
  </outline>
</glyph>
<glyph name="r" format="2">
  <advance width="419"/>
  <unicode hex="0072"/>
  <anchor x="166" y="0" name="bottom"/>
  <anchor x="156" y="194" name="center"/>
  <anchor x="230" y="458" name="top"/>
  <outline>
    <contour>
      <point x="201" y="147" type="curve" smooth="yes"/>
      <point x="201" y="227" type="line"/>
      <point x="111" y="227" type="line"/>
      <point x="111" y="127" type="line" smooth="yes"/>
      <point x="111" y="60"/>
      <point x="95" y="43"/>
      <point x="42" y="40" type="curve"/>
      <point x="38" y="29"/>
      <point x="37" y="15"/>
      <point x="37" y="-3" type="curve"/>
      <point x="63" y="-1"/>
      <point x="122" y="0"/>
      <point x="169" y="0" type="curve" smooth="yes"/>
      <point x="216" y="0"/>
      <point x="264" y="-1"/>
      <point x="295" y="-3" type="curve"/>
      <point x="295" y="15"/>
      <point x="294" y="29"/>
      <point x="290" y="40" type="curve"/>
      <point x="227" y="43"/>
      <point x="201" y="60"/>
    </contour>
    <contour>
      <point x="201" y="293" type="line"/>
      <point x="184" y="307" type="line"/>
      <point x="191" y="343"/>
      <point x="201" y="377"/>
      <point x="201" y="423" type="curve"/>
      <point x="111" y="325" type="line"/>
      <point x="111" y="214" type="line"/>
      <point x="201" y="214" type="line"/>
    </contour>
    <contour>
      <point x="179" y="301" type="curve"/>
      <point x="201" y="243" type="line"/>
      <point x="201" y="321"/>
      <point x="251" y="385"/>
      <point x="286" y="385" type="curve" smooth="yes"/>
      <point x="312" y="385"/>
      <point x="332" y="371"/>
      <point x="335" y="307" type="curve"/>
      <point x="357" y="307"/>
      <point x="380" y="312"/>
      <point x="392" y="316" type="curve"/>
      <point x="392" y="351"/>
      <point x="394" y="401"/>
      <point x="399" y="434" type="curve"/>
      <point x="378" y="450"/>
      <point x="357" y="458"/>
      <point x="330" y="458" type="curve" smooth="yes"/>
      <point x="278" y="458"/>
      <point x="238" y="423"/>
      <point x="209" y="377" type="curve" smooth="yes"/>
      <point x="199" y="361"/>
      <point x="193" y="338"/>
    </contour>
    <contour>
      <point x="111" y="214" type="line"/>
      <point x="201" y="423" type="line"/>
      <point x="201" y="452"/>
      <point x="191" y="463"/>
      <point x="179" y="467" type="curve"/>
      <point x="148" y="451"/>
      <point x="86" y="436"/>
      <point x="45" y="433" type="curve"/>
      <point x="38" y="422"/>
      <point x="36" y="411"/>
      <point x="36" y="396" type="curve"/>
      <point x="102" y="394"/>
      <point x="111" y="372"/>
      <point x="111" y="325" type="curve" smooth="yes"/>
    </contour>
  </outline>
</glyph>
<glyph name="u" format="2">
  <advance width="564"/>
  <unicode hex="0075"/>
  <anchor x="277" y="0" name="bottom"/>
  <anchor x="524" y="68" name="bottomright"/>
  <anchor x="272" y="248" name="center"/>
  <anchor x="518" y="22" name="ogonek"/>
  <anchor x="263" y="458" name="top"/>
  <anchor x="440" y="467" name="topright"/>
  <outline>
    <contour>
      <point x="225" y="-4" type="curve" smooth="yes"/>
      <point x="279" y="-4"/>
      <point x="315" y="12"/>
      <point x="350" y="47" type="curve" smooth="yes"/>
      <point x="365" y="62"/>
      <point x="377" y="78"/>
      <point x="384" y="96" type="curve"/>
      <point x="462" y="133" type="line"/>
      <point x="462" y="423" type="line" smooth="yes"/>
      <point x="462" y="452"/>
      <point x="452" y="463"/>
      <point x="440" y="467" type="curve"/>
      <point x="410" y="453"/>
      <point x="356" y="441"/>
      <point x="304" y="438" type="curve"/>
      <point x="297" y="426"/>
      <point x="297" y="416"/>
      <point x="297" y="401" type="curve"/>
      <point x="363" y="399"/>
      <point x="372" y="377"/>
      <point x="372" y="330" type="curve" smooth="yes"/>
      <point x="372" y="228" type="line" smooth="yes"/>
      <point x="372" y="112"/>
      <point x="321" y="57"/>
      <point x="255" y="57" type="curve" smooth="yes"/>
      <point x="193" y="57"/>
      <point x="172" y="106"/>
      <point x="172" y="196" type="curve" smooth="yes"/>
      <point x="172" y="423" type="line" smooth="yes"/>
      <point x="172" y="452"/>
      <point x="162" y="463"/>
      <point x="150" y="467" type="curve"/>
      <point x="119" y="451"/>
      <point x="64" y="436"/>
      <point x="23" y="433" type="curve"/>
      <point x="17" y="421"/>
      <point x="16" y="411"/>
      <point x="16" y="396" type="curve"/>
      <point x="77" y="394"/>
      <point x="82" y="372"/>
      <point x="82" y="325" type="curve" smooth="yes"/>
      <point x="82" y="174" type="line" smooth="yes"/>
      <point x="82" y="41"/>
      <point x="135" y="-4"/>
    </contour>
    <contour>
      <point x="404" y="-9" type="curve"/>
      <point x="435" y="8"/>
      <point x="485" y="20"/>
      <point x="518" y="22" type="curve"/>
      <point x="523" y="36"/>
      <point x="524" y="54"/>
      <point x="524" y="68" type="curve"/>
      <point x="469" y="68"/>
      <point x="462" y="89"/>
      <point x="462" y="136" type="curve"/>
      <point x="389" y="136" type="line"/>
      <point x="380" y="88"/>
      <point x="379" y="63"/>
      <point x="379" y="49" type="curve" smooth="yes"/>
      <point x="379" y="3"/>
      <point x="390" y="-3"/>
    </contour>
  </outline>
</glyph>
<glyph name="x" format="2">
  <advance width="521"/>
  <unicode hex="0078"/>
  <anchor x="487" y="40" name="bottomright"/>
  <anchor x="265" y="232" name="center"/>
  <anchor x="258" y="458" name="top"/>
  <outline>
    <contour>
      <point x="252" y="198" type="line"/>
      <point x="221" y="231" type="line"/>
      <point x="148" y="129" type="line" smooth="yes"/>
      <point x="98" y="59"/>
      <point x="72" y="42"/>
      <point x="36" y="40" type="curve"/>
      <point x="31" y="29"/>
      <point x="30" y="12"/>
      <point x="30" y="-2" type="curve"/>
      <point x="71" y="0"/>
      <point x="98" y="0"/>
      <point x="113" y="0" type="curve" smooth="yes"/>
      <point x="133" y="0"/>
      <point x="181" y="0"/>
      <point x="218" y="-2" type="curve"/>
      <point x="218" y="12"/>
      <point x="216" y="30"/>
      <point x="212" y="40" type="curve"/>
      <point x="173" y="40"/>
      <point x="161" y="65"/>
      <point x="203" y="126" type="curve" smooth="yes"/>
    </contour>
    <contour>
      <point x="284" y="130"/>
      <point x="302" y="102" type="curve" smooth="yes"/>
      <point x="333" y="56"/>
      <point x="323" y="41"/>
      <point x="276" y="40" type="curve"/>
      <point x="272" y="28"/>
      <point x="272" y="15"/>
      <point x="272" y="-2" type="curve"/>
      <point x="311" y="0"/>
      <point x="353" y="0"/>
      <point x="387" y="0" type="curve" smooth="yes"/>
      <point x="421" y="0"/>
      <point x="451" y="0"/>
      <point x="492" y="-2" type="curve"/>
      <point x="492" y="15"/>
      <point x="492" y="27"/>
      <point x="487" y="40" type="curve"/>
      <point x="461" y="41"/>
      <point x="444" y="59"/>
      <point x="401" y="122" type="curve" smooth="yes"/>
      <point x="375" y="160"/>
      <point x="336" y="213"/>
      <point x="301" y="260" type="curve"/>
      <point x="289" y="276" type="line"/>
      <point x="268" y="305"/>
      <point x="249" y="330"/>
      <point x="237" y="346" type="curve" smooth="yes"/>
      <point x="195" y="403"/>
      <point x="205" y="418"/>
      <point x="252" y="420" type="curve"/>
      <point x="254" y="431"/>
      <point x="257" y="447"/>
      <point x="257" y="460" type="curve"/>
      <point x="223" y="458"/>
      <point x="181" y="458"/>
      <point x="142" y="458" type="curve" smooth="yes"/>
      <point x="103" y="458"/>
      <point x="66" y="459"/>
      <point x="37" y="460" type="curve"/>
      <point x="37" y="445"/>
      <point x="39" y="431"/>
      <point x="44" y="420" type="curve"/>
      <point x="75" y="417"/>
      <point x="85" y="407"/>
      <point x="142" y="331" type="curve" smooth="yes"/>
      <point x="165" y="300"/>
      <point x="195" y="259"/>
      <point x="225" y="216" type="curve"/>
      <point x="240" y="194" type="line"/>
      <point x="262" y="162"/>
    </contour>
    <contour>
      <point x="267" y="261" type="line"/>
      <point x="297" y="227" type="line"/>
      <point x="385" y="351" type="line" smooth="yes"/>
      <point x="426" y="409"/>
      <point x="442" y="418"/>
      <point x="472" y="420" type="curve"/>
      <point x="475" y="431"/>
      <point x="478" y="446"/>
      <point x="478" y="460" type="curve"/>
      <point x="457" y="459"/>
      <point x="434" y="458"/>
      <point x="394" y="458" type="curve" smooth="yes"/>
      <point x="354" y="458"/>
      <point x="330" y="459"/>
      <point x="305" y="460" type="curve"/>
      <point x="305" y="446"/>
      <point x="306" y="432"/>
      <point x="311" y="420" type="curve"/>
      <point x="355" y="418"/>
      <point x="356" y="399"/>
      <point x="322" y="346" type="curve" smooth="yes"/>
    </contour>
  </outline>
</glyph>
<glyph name="y" format="2">
  <advance width="541"/>
  <unicode hex="0079"/>
  <anchor x="367" y="0" name="bottom"/>
  <anchor x="294" y="458" name="top"/>
  <outline>
    <contour>
      <point x="379" y="298" type="curve" smooth="yes"/>
      <point x="310" y="124" type="line" smooth="yes"/>
      <point x="268" y="17"/>
      <point x="227" y="-72"/>
      <point x="209" y="-100" type="curve" smooth="yes"/>
      <point x="183" y="-142"/>
      <point x="147" y="-159"/>
      <point x="108" y="-159" type="curve" smooth="yes"/>
      <point x="88" y="-159"/>
      <point x="67" y="-157"/>
      <point x="44" y="-153" type="curve"/>
      <point x="40" y="-170"/>
      <point x="38" y="-206"/>
      <point x="43" y="-226" type="curve"/>
      <point x="56" y="-236"/>
      <point x="78" y="-249"/>
      <point x="118" y="-249" type="curve" smooth="yes"/>
      <point x="179" y="-249"/>
      <point x="216" y="-219"/>
      <point x="292" y="-37" type="curve" smooth="yes"/>
      <point x="439" y="313" type="line" smooth="yes"/>
      <point x="471" y="389"/>
      <point x="483" y="408"/>
      <point x="520" y="417" type="curve"/>
      <point x="526" y="431"/>
      <point x="526" y="447"/>
      <point x="526" y="460" type="curve"/>
      <point x="496" y="458"/>
      <point x="463" y="458"/>
      <point x="426" y="458" type="curve" smooth="yes"/>
      <point x="389" y="458"/>
      <point x="358" y="458"/>
      <point x="327" y="460" type="curve"/>
      <point x="327" y="445"/>
      <point x="329" y="431"/>
      <point x="334" y="417" type="curve"/>
      <point x="393" y="406"/>
      <point x="413" y="383"/>
    </contour>
    <contour>
      <point x="262" y="-21" type="curve"/>
      <point x="307" y="85" type="line"/>
      <point x="283" y="146"/>
      <point x="239" y="249"/>
      <point x="211" y="307" type="curve" smooth="yes"/>
      <point x="175" y="382"/>
      <point x="182" y="405"/>
      <point x="254" y="417" type="curve"/>
      <point x="259" y="429"/>
      <point x="261" y="443"/>
      <point x="261" y="460" type="curve"/>
      <point x="220" y="459"/>
      <point x="163" y="458"/>
      <point x="128" y="458" type="curve" smooth="yes"/>
      <point x="93" y="458"/>
      <point x="53" y="459"/>
      <point x="15" y="460" type="curve"/>
      <point x="15" y="444"/>
      <point x="17" y="429"/>
      <point x="21" y="417" type="curve"/>
      <point x="55" y="410"/>
      <point x="72" y="394"/>
      <point x="119" y="294" type="curve" smooth="yes"/>
      <point x="154" y="219"/>
      <point x="214" y="85"/>
    </contour>
  </outline>
</glyph>
<glyph name="z" format="2">
  <advance width="501"/>
  <unicode hex="007A"/>
  <anchor x="251" y="0" name="bottom"/>
  <anchor x="249" y="234" name="center"/>
  <anchor x="251" y="458" name="top"/>
  <outline>
    <contour>
      <point x="67" y="-2" type="curve"/>
      <point x="103" y="-1"/>
      <point x="157" y="0"/>
      <point x="245" y="0" type="curve" smooth="yes"/>
      <point x="332" y="0"/>
      <point x="373" y="-1"/>
      <point x="424" y="-2" type="curve" smooth="yes"/>
      <point x="440" y="-2"/>
      <point x="451" y="6"/>
      <point x="456" y="17" type="curve"/>
      <point x="450" y="53"/>
      <point x="448" y="117"/>
      <point x="448" y="150" type="curve"/>
      <point x="428" y="155"/>
      <point x="411" y="156"/>
      <point x="395" y="156" type="curve"/>
      <point x="388" y="60"/>
      <point x="368" y="45"/>
      <point x="297" y="45" type="curve" smooth="yes"/>
      <point x="153" y="45" type="line"/>
      <point x="161" y="33" type="line"/>
      <point x="229" y="122"/>
      <point x="371" y="319"/>
      <point x="440" y="418" type="curve"/>
      <point x="440" y="432"/>
      <point x="436" y="450"/>
      <point x="427" y="461" type="curve"/>
      <point x="388" y="459"/>
      <point x="309" y="458"/>
      <point x="250" y="458" type="curve" smooth="yes"/>
      <point x="189" y="458"/>
      <point x="108" y="459"/>
      <point x="67" y="461" type="curve"/>
      <point x="67" y="410"/>
      <point x="64" y="360"/>
      <point x="60" y="316" type="curve"/>
      <point x="75" y="310"/>
      <point x="96" y="308"/>
      <point x="112" y="308" type="curve"/>
      <point x="131" y="396"/>
      <point x="151" y="414"/>
      <point x="223" y="414" type="curve" smooth="yes"/>
      <point x="343" y="414" type="line"/>
      <point x="323" y="426" type="line"/>
      <point x="279" y="357"/>
      <point x="121" y="134"/>
      <point x="51" y="38" type="curve"/>
      <point x="51" y="22"/>
      <point x="58" y="7"/>
    </contour>
  </outline>
</glyph>
<glyph name="braceright" format="2">
  <advance width="327"/>
  <unicode hex="007D"/>
  <outline>
    <contour>
      <point x="41" y="-271" type="curve"/>
      <point x="177" y="-229"/>
      <point x="203" y="-148"/>
      <point x="203" y="-63" type="curve" smooth="yes"/>
      <point x="203" y="-13"/>
      <point x="194" y="38"/>
      <point x="194" y="84" type="curve" smooth="yes"/>
      <point x="194" y="149"/>
      <point x="211" y="202"/>
      <point x="292" y="228" type="curve"/>
      <point x="292" y="240"/>
      <point x="292" y="248"/>
      <point x="287" y="260" type="curve"/>
      <point x="210" y="286"/>
      <point x="192" y="335"/>
      <point x="192" y="394" type="curve" smooth="yes"/>
      <point x="192" y="442"/>
      <point x="204" y="497"/>
      <point x="204" y="549" type="curve" smooth="yes"/>
      <point x="204" y="626"/>
      <point x="178" y="699"/>
      <point x="50" y="741" type="curve"/>
      <point x="44" y="732"/>
      <point x="41" y="723"/>
      <point x="41" y="714" type="curve"/>
      <point x="109" y="691"/>
      <point x="127" y="645"/>
      <point x="127" y="591" type="curve" smooth="yes"/>
      <point x="127" y="531"/>
      <point x="105" y="461"/>
      <point x="104" y="399" type="curve" smooth="yes"/>
      <point x="103" y="330"/>
      <point x="126" y="271"/>
      <point x="231" y="246" type="curve"/>
      <point x="128" y="219"/>
      <point x="103" y="158"/>
      <point x="103" y="86" type="curve" smooth="yes"/>
      <point x="103" y="21"/>
      <point x="123" y="-51"/>
      <point x="123" y="-113" type="curve" smooth="yes"/>
      <point x="123" y="-171"/>
      <point x="105" y="-220"/>
      <point x="35" y="-242" type="curve"/>
      <point x="35" y="-255"/>
      <point x="35" y="-263"/>
    </contour>
  </outline>
</glyph>
<glyph name="exclamdown" format="2">
  <advance width="411"/>
  <unicode hex="00A1"/>
  <outline>
    <contour>
      <point x="147" y="-224" type="curve" smooth="yes"/>
      <point x="145" y="-241"/>
      <point x="151" y="-250"/>
      <point x="165" y="-255" type="curve"/>
      <point x="187" y="-243"/>
      <point x="239" y="-228"/>
      <point x="266" y="-222" type="curve"/>
      <point x="248" y="-84"/>
      <point x="237" y="43"/>
      <point x="226" y="234" type="curve"/>
      <point x="209" y="234"/>
      <point x="193" y="233"/>
      <point x="181" y="228" type="curve"/>
      <point x="175" y="78"/>
      <point x="160" y="-101"/>
    </contour>
    <contour>
      <point x="145" y="409" type="curve" smooth="yes"/>
      <point x="145" y="386"/>
      <point x="166" y="357"/>
      <point x="200" y="357" type="curve" smooth="yes"/>
      <point x="236" y="357"/>
      <point x="261" y="383"/>
      <point x="261" y="414" type="curve" smooth="yes"/>
      <point x="261" y="445"/>
      <point x="240" y="467"/>
      <point x="204" y="467" type="curve" smooth="yes"/>
      <point x="173" y="467"/>
      <point x="145" y="449"/>
    </contour>
  </outline>
</glyph>
<glyph name="sterling" format="2">
  <advance width="557"/>
  <unicode hex="00A3"/>
  <outline>
    <contour>
      <point x="493" y="98"/>
      <point x="478" y="100" type="curve"/>
      <point x="465" y="88"/>
      <point x="451" y="83"/>
      <point x="440" y="83" type="curve" smooth="yes"/>
      <point x="404" y="83"/>
      <point x="358" y="135"/>
      <point x="287" y="135" type="curve" smooth="yes"/>
      <point x="245" y="135"/>
      <point x="211" y="126"/>
      <point x="156" y="82" type="curve"/>
      <point x="161" y="78" type="line"/>
      <point x="233" y="161"/>
      <point x="262" y="230"/>
      <point x="262" y="308" type="curve" smooth="yes"/>
      <point x="262" y="400"/>
      <point x="194" y="435"/>
      <point x="194" y="530" type="curve" smooth="yes"/>
      <point x="194" y="594"/>
      <point x="234" y="638"/>
      <point x="284" y="638" type="curve" smooth="yes"/>
      <point x="355" y="638"/>
      <point x="391" y="601"/>
      <point x="397" y="509" type="curve"/>
      <point x="414" y="508"/>
      <point x="432" y="509"/>
      <point x="451" y="518" type="curve"/>
      <point x="448" y="569"/>
      <point x="446" y="609"/>
      <point x="450" y="650" type="curve"/>
      <point x="406" y="674"/>
      <point x="368" y="685"/>
      <point x="296" y="685" type="curve" smooth="yes"/>
      <point x="175" y="685"/>
      <point x="110" y="591"/>
      <point x="110" y="494" type="curve" smooth="yes"/>
      <point x="110" y="377"/>
      <point x="176" y="334"/>
      <point x="176" y="238" type="curve" smooth="yes"/>
      <point x="176" y="150"/>
      <point x="132" y="94"/>
      <point x="56" y="22" type="curve"/>
      <point x="64" y="9"/>
      <point x="75" y="-2"/>
      <point x="90" y="-8" type="curve"/>
      <point x="135" y="37"/>
      <point x="178" y="57"/>
      <point x="230" y="57" type="curve" smooth="yes"/>
      <point x="309" y="57"/>
      <point x="326" y="21"/>
      <point x="370" y="2" type="curve" smooth="yes"/>
      <point x="387" y="-6"/>
      <point x="404" y="-9"/>
      <point x="426" y="-9" type="curve"/>
      <point x="443" y="16"/>
      <point x="483" y="55"/>
      <point x="516" y="80" type="curve"/>
      <point x="504" y="92"/>
    </contour>
    <contour>
      <point x="151" y="290"/>
      <point x="233" y="290" type="curve" smooth="yes"/>
      <point x="289" y="290"/>
      <point x="324" y="290"/>
      <point x="368" y="289" type="curve"/>
      <point x="375" y="303"/>
      <point x="378" y="314"/>
      <point x="378" y="334" type="curve"/>
      <point x="75" y="334" type="line"/>
      <point x="67" y="318"/>
      <point x="64" y="309"/>
      <point x="64" y="288" type="curve"/>
      <point x="103" y="289"/>
    </contour>
  </outline>
</glyph>
<glyph name="section" format="2">
  <advance width="528"/>
  <unicode hex="00A7"/>
  <outline>
    <contour>
      <point x="151" y="166"/>
      <point x="257" y="114" type="curve" smooth="yes"/>
      <point x="382" y="53"/>
      <point x="416" y="-2"/>
      <point x="416" y="-84" type="curve" smooth="yes"/>
      <point x="416" y="-169"/>
      <point x="370" y="-242"/>
      <point x="255" y="-242" type="curve" smooth="yes"/>
      <point x="172" y="-242"/>
      <point x="136" y="-215"/>
      <point x="108" y="-191" type="curve"/>
      <point x="110" y="-145"/>
      <point x="111" y="-100"/>
      <point x="107" y="-56" type="curve"/>
      <point x="121" y="-52"/>
      <point x="142" y="-50"/>
      <point x="158" y="-50" type="curve"/>
      <point x="169" y="-173"/>
      <point x="211" y="-196"/>
      <point x="261" y="-196" type="curve" smooth="yes"/>
      <point x="315" y="-196"/>
      <point x="348" y="-165"/>
      <point x="348" y="-115" type="curve" smooth="yes"/>
      <point x="348" y="-59"/>
      <point x="332" y="-35"/>
      <point x="217" y="24" type="curve" smooth="yes"/>
      <point x="101" y="84"/>
      <point x="61" y="141"/>
      <point x="61" y="241" type="curve" smooth="yes"/>
      <point x="61" y="320"/>
      <point x="107" y="390"/>
      <point x="186" y="413" type="curve"/>
      <point x="235" y="379" type="line"/>
      <point x="163" y="369"/>
      <point x="127" y="325"/>
      <point x="127" y="266" type="curve" smooth="yes"/>
      <point x="127" y="211"/>
    </contour>
    <contour>
      <point x="315" y="62" type="curve"/>
      <point x="264" y="102" type="line"/>
      <point x="367" y="109"/>
      <point x="398" y="163"/>
      <point x="398" y="214" type="curve" smooth="yes"/>
      <point x="398" y="267"/>
      <point x="375" y="310"/>
      <point x="244" y="369" type="curve" smooth="yes"/>
      <point x="121" y="424"/>
      <point x="101" y="492"/>
      <point x="101" y="561" type="curve" smooth="yes"/>
      <point x="101" y="640"/>
      <point x="162" y="714"/>
      <point x="257" y="714" type="curve" smooth="yes"/>
      <point x="323" y="714"/>
      <point x="363" y="693"/>
      <point x="390" y="672" type="curve"/>
      <point x="387" y="638"/>
      <point x="387" y="593"/>
      <point x="391" y="555" type="curve"/>
      <point x="374" y="550"/>
      <point x="360" y="547"/>
      <point x="340" y="547" type="curve"/>
      <point x="323" y="645"/>
      <point x="295" y="668"/>
      <point x="255" y="668" type="curve" smooth="yes"/>
      <point x="202" y="668"/>
      <point x="168" y="626"/>
      <point x="168" y="585" type="curve" smooth="yes"/>
      <point x="168" y="537"/>
      <point x="181" y="507"/>
      <point x="283" y="461" type="curve" smooth="yes"/>
      <point x="418" y="400"/>
      <point x="466" y="353"/>
      <point x="466" y="246" type="curve" smooth="yes"/>
      <point x="466" y="160"/>
      <point x="410" y="85"/>
    </contour>
  </outline>
</glyph>
<glyph name="copyright" format="2">
  <advance width="802"/>
  <unicode hex="00A9"/>
  <outline>
    <contour>
      <point x="401" y="571" type="curve" smooth="yes"/>
      <point x="210" y="571"/>
      <point x="60" y="421"/>
      <point x="60" y="230" type="curve" smooth="yes"/>
      <point x="60" y="38"/>
      <point x="208" y="-111"/>
      <point x="401" y="-111" type="curve" smooth="yes"/>
      <point x="591" y="-111"/>
      <point x="742" y="40"/>
      <point x="742" y="230" type="curve" smooth="yes"/>
      <point x="742" y="421"/>
      <point x="591" y="571"/>
    </contour>
    <contour>
      <point x="410" y="453" type="curve" smooth="yes"/>
      <point x="285" y="453"/>
      <point x="197" y="363"/>
      <point x="197" y="228" type="curve" smooth="yes"/>
      <point x="197" y="80"/>
      <point x="296" y="5"/>
      <point x="393" y="5" type="curve" smooth="yes"/>
      <point x="470" y="5"/>
      <point x="521" y="33"/>
      <point x="556" y="84" type="curve"/>
      <point x="552" y="94"/>
      <point x="547" y="101"/>
      <point x="539" y="108" type="curve"/>
      <point x="502" y="68"/>
      <point x="457" y="57"/>
      <point x="419" y="57" type="curve" smooth="yes"/>
      <point x="326" y="57"/>
      <point x="289" y="147"/>
      <point x="289" y="239" type="curve" smooth="yes"/>
      <point x="289" y="331"/>
      <point x="316" y="408"/>
      <point x="392" y="408" type="curve" smooth="yes"/>
      <point x="477" y="408"/>
      <point x="499" y="350"/>
      <point x="504" y="296" type="curve"/>
      <point x="517" y="296"/>
      <point x="538" y="298"/>
      <point x="547" y="303" type="curve"/>
      <point x="547" y="339"/>
      <point x="548" y="374"/>
      <point x="554" y="410" type="curve"/>
      <point x="507" y="439"/>
      <point x="472" y="453"/>
    </contour>
    <contour>
      <point x="401" y="528" type="curve" smooth="yes"/>
      <point x="569" y="528"/>
      <point x="699" y="398"/>
      <point x="699" y="230" type="curve" smooth="yes"/>
      <point x="699" y="63"/>
      <point x="569" y="-67"/>
      <point x="401" y="-67" type="curve" smooth="yes"/>
      <point x="232" y="-67"/>
      <point x="103" y="61"/>
      <point x="103" y="230" type="curve" smooth="yes"/>
      <point x="103" y="398"/>
      <point x="234" y="528"/>
    </contour>
  </outline>
</glyph>
<glyph name="guillemetleft" format="2">
  <advance width="510"/>
  <unicode hex="00AB"/>
  <outline>
    <contour>
      <point x="231" y="415"/>
      <point x="215" y="417" type="curve"/>
      <point x="167" y="367"/>
      <point x="122" y="323"/>
      <point x="66" y="274" type="curve"/>
      <point x="62" y="262"/>
      <point x="60" y="252"/>
      <point x="60" y="240" type="curve"/>
      <point x="113" y="191"/>
      <point x="164" y="143"/>
      <point x="223" y="83" type="curve"/>
      <point x="235" y="91"/>
      <point x="241" y="103"/>
      <point x="243" y="117" type="curve"/>
      <point x="209" y="162"/>
      <point x="175" y="212"/>
      <point x="146" y="264" type="curve"/>
      <point x="169" y="298"/>
      <point x="216" y="358"/>
      <point x="250" y="401" type="curve"/>
      <point x="241" y="410"/>
    </contour>
    <contour>
      <point x="381" y="412"/>
      <point x="368" y="413" type="curve"/>
      <point x="328" y="365"/>
      <point x="292" y="323"/>
      <point x="245" y="273" type="curve"/>
      <point x="242" y="266"/>
      <point x="239" y="254"/>
      <point x="239" y="240" type="curve"/>
      <point x="287" y="190"/>
      <point x="322" y="151"/>
      <point x="375" y="88" type="curve"/>
      <point x="387" y="94"/>
      <point x="394" y="103"/>
      <point x="398" y="116" type="curve"/>
      <point x="371" y="162"/>
      <point x="341" y="217"/>
      <point x="316" y="267" type="curve"/>
      <point x="342" y="310"/>
      <point x="371" y="354"/>
      <point x="402" y="398" type="curve"/>
      <point x="393" y="407"/>
    </contour>
  </outline>
</glyph>
<glyph name="degree" format="2">
  <advance width="384"/>
  <unicode hex="00B0"/>
  <outline>
    <contour>
      <point x="276" y="700"/>
      <point x="190" y="700" type="curve" smooth="yes"/>
      <point x="114" y="700"/>
      <point x="60" y="647"/>
      <point x="60" y="578" type="curve" smooth="yes"/>
      <point x="60" y="506"/>
      <point x="108" y="454"/>
      <point x="190" y="454" type="curve" smooth="yes"/>
      <point x="271" y="454"/>
      <point x="324" y="509"/>
      <point x="324" y="579" type="curve" smooth="yes"/>
      <point x="324" y="648"/>
    </contour>
    <contour>
      <point x="153" y="662"/>
      <point x="184" y="662" type="curve" smooth="yes"/>
      <point x="227" y="662"/>
      <point x="254" y="626"/>
      <point x="254" y="568" type="curve" smooth="yes"/>
      <point x="254" y="518"/>
      <point x="232" y="494"/>
      <point x="204" y="494" type="curve" smooth="yes"/>
      <point x="165" y="494"/>
      <point x="130" y="535"/>
      <point x="130" y="597" type="curve" smooth="yes"/>
      <point x="130" y="631"/>
    </contour>
  </outline>
</glyph>
<glyph name="twosuperior" format="2">
  <advance width="370"/>
  <unicode hex="00B2"/>
  <outline>
    <contour>
      <point x="49" y="408" type="curve"/>
      <point x="71" y="408"/>
      <point x="116" y="410"/>
      <point x="165" y="410" type="curve" smooth="yes"/>
      <point x="213" y="410"/>
      <point x="263" y="408"/>
      <point x="293" y="408" type="curve" smooth="yes"/>
      <point x="310" y="408"/>
      <point x="320" y="417"/>
      <point x="325" y="428" type="curve"/>
      <point x="318" y="464"/>
      <point x="317" y="495"/>
      <point x="317" y="530" type="curve"/>
      <point x="307" y="533"/>
      <point x="294" y="534"/>
      <point x="280" y="534" type="curve"/>
      <point x="278" y="492"/>
      <point x="257" y="478"/>
      <point x="225" y="478" type="curve" smooth="yes"/>
      <point x="145" y="478" type="line"/>
      <point x="178" y="507"/>
      <point x="209" y="534"/>
      <point x="233" y="556" type="curve" smooth="yes"/>
      <point x="276" y="595"/>
      <point x="296" y="624"/>
      <point x="296" y="676" type="curve" smooth="yes"/>
      <point x="296" y="744"/>
      <point x="237" y="767"/>
      <point x="189" y="767" type="curve" smooth="yes"/>
      <point x="134" y="767"/>
      <point x="102" y="758"/>
      <point x="61" y="734" type="curve"/>
      <point x="65" y="704"/>
      <point x="65" y="663"/>
      <point x="62" y="631" type="curve"/>
      <point x="75" y="626"/>
      <point x="96" y="625"/>
      <point x="111" y="625" type="curve"/>
      <point x="120" y="698"/>
      <point x="131" y="724"/>
      <point x="164" y="724" type="curve" smooth="yes"/>
      <point x="192" y="724"/>
      <point x="215" y="699"/>
      <point x="215" y="662" type="curve" smooth="yes"/>
      <point x="215" y="613"/>
      <point x="195" y="581"/>
      <point x="148" y="539" type="curve" smooth="yes"/>
      <point x="124" y="518"/>
      <point x="83" y="482"/>
      <point x="40" y="441" type="curve"/>
      <point x="40" y="430"/>
      <point x="42" y="419"/>
    </contour>
  </outline>
</glyph>
<glyph name="threesuperior" format="2">
  <advance width="369"/>
  <unicode hex="00B3"/>
  <outline>
    <contour>
      <point x="137" y="288" type="curve" smooth="yes"/>
      <point x="253" y="288"/>
      <point x="324" y="361"/>
      <point x="324" y="448" type="curve" smooth="yes"/>
      <point x="324" y="536"/>
      <point x="256" y="585"/>
      <point x="187" y="579" type="curve"/>
      <point x="229" y="635"/>
      <point x="273" y="688"/>
      <point x="306" y="724" type="curve"/>
      <point x="306" y="739"/>
      <point x="305" y="747"/>
      <point x="298" y="759" type="curve"/>
      <point x="280" y="758"/>
      <point x="242" y="758"/>
      <point x="184" y="758" type="curve" smooth="yes"/>
      <point x="124" y="758"/>
      <point x="84" y="758"/>
      <point x="61" y="759" type="curve"/>
      <point x="61" y="726"/>
      <point x="59" y="688"/>
      <point x="54" y="647" type="curve"/>
      <point x="63" y="641"/>
      <point x="79" y="638"/>
      <point x="91" y="638" type="curve"/>
      <point x="111" y="687"/>
      <point x="120" y="698"/>
      <point x="164" y="698" type="curve" smooth="yes"/>
      <point x="226" y="698" type="line"/>
      <point x="199" y="662"/>
      <point x="167" y="622"/>
      <point x="111" y="552" type="curve"/>
      <point x="114" y="539"/>
      <point x="120" y="532"/>
      <point x="128" y="526" type="curve"/>
      <point x="135" y="528"/>
      <point x="140" y="529"/>
      <point x="150" y="529" type="curve" smooth="yes"/>
      <point x="209" y="529"/>
      <point x="239" y="489"/>
      <point x="239" y="438" type="curve" smooth="yes"/>
      <point x="239" y="367"/>
      <point x="179" y="328"/>
      <point x="131" y="328" type="curve" smooth="yes"/>
      <point x="92" y="328"/>
      <point x="67" y="339"/>
      <point x="58" y="347" type="curve"/>
      <point x="48" y="340"/>
      <point x="42" y="333"/>
      <point x="35" y="320" type="curve"/>
      <point x="45" y="311"/>
      <point x="77" y="288"/>
    </contour>
  </outline>
</glyph>
<glyph name="paragraph" format="2">
  <advance width="540"/>
  <unicode hex="00B6"/>
  <outline>
    <contour>
      <point x="398" y="-249" type="line"/>
      <point x="417" y="-249"/>
      <point x="432" y="-247"/>
      <point x="448" y="-239" type="curve"/>
      <point x="448" y="550" type="line" smooth="yes"/>
      <point x="448" y="610"/>
      <point x="456" y="633"/>
      <point x="515" y="636" type="curve"/>
      <point x="520" y="650"/>
      <point x="521" y="663"/>
      <point x="521" y="678" type="curve"/>
      <point x="493" y="676"/>
      <point x="462" y="676"/>
      <point x="439" y="676" type="curve" smooth="yes"/>
      <point x="391" y="676"/>
      <point x="350" y="678"/>
      <point x="287" y="678" type="curve" smooth="yes"/>
      <point x="108" y="678"/>
      <point x="36" y="598"/>
      <point x="36" y="493" type="curve" smooth="yes"/>
      <point x="36" y="359"/>
      <point x="119" y="316"/>
      <point x="254" y="316" type="curve" smooth="yes"/>
      <point x="271" y="316"/>
      <point x="284" y="317"/>
      <point x="301" y="321" type="curve"/>
      <point x="301" y="355" type="line"/>
      <point x="268" y="355" type="line" smooth="yes"/>
      <point x="194" y="355"/>
      <point x="127" y="398"/>
      <point x="127" y="496" type="curve" smooth="yes"/>
      <point x="127" y="608"/>
      <point x="173" y="641"/>
      <point x="301" y="641" type="curve" smooth="yes"/>
      <point x="339" y="641"/>
      <point x="370" y="640"/>
      <point x="412" y="634" type="curve"/>
      <point x="398" y="648" type="line"/>
    </contour>
    <contour>
      <point x="287" y="-249" type="line"/>
      <point x="306" y="-249"/>
      <point x="320" y="-247"/>
      <point x="337" y="-239" type="curve"/>
      <point x="337" y="656" type="line"/>
      <point x="287" y="652" type="line"/>
    </contour>
  </outline>
</glyph>
<glyph name="onesuperior" format="2">
  <advance width="308"/>
  <unicode hex="00B9"/>
  <outline>
    <contour>
      <point x="54" y="407" type="curve"/>
      <point x="86" y="409"/>
      <point x="124" y="410"/>
      <point x="155" y="410" type="curve" smooth="yes"/>
      <point x="185" y="410"/>
      <point x="223" y="409"/>
      <point x="254" y="407" type="curve"/>
      <point x="254" y="421"/>
      <point x="253" y="434"/>
      <point x="250" y="448" type="curve"/>
      <point x="210" y="448"/>
      <point x="195" y="466"/>
      <point x="195" y="509" type="curve" smooth="yes"/>
      <point x="195" y="659" type="line" smooth="yes"/>
      <point x="195" y="699"/>
      <point x="210" y="719"/>
      <point x="250" y="719" type="curve"/>
      <point x="253" y="732"/>
      <point x="254" y="746"/>
      <point x="254" y="761" type="curve"/>
      <point x="228" y="759"/>
      <point x="180" y="758"/>
      <point x="155" y="758" type="curve" smooth="yes"/>
      <point x="128" y="758"/>
      <point x="76" y="759"/>
      <point x="54" y="761" type="curve"/>
      <point x="54" y="746"/>
      <point x="55" y="732"/>
      <point x="58" y="719" type="curve"/>
      <point x="98" y="719"/>
      <point x="113" y="699"/>
      <point x="113" y="659" type="curve" smooth="yes"/>
      <point x="113" y="509" type="line" smooth="yes"/>
      <point x="113" y="466"/>
      <point x="98" y="448"/>
      <point x="58" y="448" type="curve"/>
      <point x="55" y="435"/>
      <point x="54" y="421"/>
    </contour>
  </outline>
</glyph>
<glyph name="ordmasculine" format="2">
  <advance width="418"/>
  <unicode hex="00BA"/>
  <outline>
    <contour>
      <point x="132" y="457"/>
      <point x="132" y="554" type="curve" smooth="yes"/>
      <point x="132" y="626"/>
      <point x="155" y="677"/>
      <point x="202" y="677" type="curve" smooth="yes"/>
      <point x="250" y="677"/>
      <point x="289" y="621"/>
      <point x="289" y="525" type="curve" smooth="yes"/>
      <point x="289" y="450"/>
      <point x="264" y="398"/>
      <point x="217" y="398" type="curve" smooth="yes"/>
      <point x="164" y="398"/>
    </contour>
    <contour>
      <point x="40" y="644"/>
      <point x="40" y="535" type="curve" smooth="yes"/>
      <point x="40" y="427"/>
      <point x="103" y="357"/>
      <point x="208" y="357" type="curve" smooth="yes"/>
      <point x="312" y="357"/>
      <point x="379" y="431"/>
      <point x="379" y="539" type="curve" smooth="yes"/>
      <point x="379" y="644"/>
      <point x="320" y="717"/>
      <point x="210" y="717" type="curve" smooth="yes"/>
      <point x="113" y="717"/>
    </contour>
  </outline>
</glyph>
<glyph name="guillemetright" format="2">
  <advance width="518"/>
  <unicode hex="00BB"/>
  <outline>
    <contour>
      <point x="135" y="98"/>
      <point x="147" y="91" type="curve"/>
      <point x="189" y="146"/>
      <point x="233" y="200"/>
      <point x="278" y="253" type="curve"/>
      <point x="278" y="265"/>
      <point x="277" y="274"/>
      <point x="273" y="284" type="curve"/>
      <point x="228" y="327"/>
      <point x="187" y="369"/>
      <point x="147" y="414" type="curve"/>
      <point x="133" y="414"/>
      <point x="118" y="409"/>
      <point x="108" y="400" type="curve"/>
      <point x="137" y="354"/>
      <point x="176" y="289"/>
      <point x="198" y="249" type="curve"/>
      <point x="172" y="203"/>
      <point x="146" y="160"/>
      <point x="120" y="119" type="curve"/>
      <point x="126" y="109"/>
    </contour>
    <contour>
      <point x="291" y="94"/>
      <point x="302" y="87" type="curve"/>
      <point x="352" y="143"/>
      <point x="404" y="199"/>
      <point x="458" y="253" type="curve"/>
      <point x="458" y="265"/>
      <point x="457" y="275"/>
      <point x="452" y="285" type="curve"/>
      <point x="399" y="329"/>
      <point x="350" y="372"/>
      <point x="302" y="418" type="curve"/>
      <point x="290" y="418"/>
      <point x="276" y="413"/>
      <point x="265" y="404" type="curve"/>
      <point x="300" y="357"/>
      <point x="347" y="290"/>
      <point x="373" y="249" type="curve"/>
      <point x="343" y="201"/>
      <point x="312" y="158"/>
      <point x="279" y="116" type="curve"/>
      <point x="283" y="105"/>
    </contour>
  </outline>
</glyph>
<glyph name="questiondown" format="2">
  <advance width="537"/>
  <unicode hex="00BF"/>
  <outline>
    <contour>
      <point x="263" y="-256" type="curve" smooth="yes"/>
      <point x="338" y="-256"/>
      <point x="384" y="-234"/>
      <point x="417" y="-213" type="curve"/>
      <point x="412" y="-171"/>
      <point x="413" y="-143"/>
      <point x="417" y="-96" type="curve"/>
      <point x="404" y="-89"/>
      <point x="379" y="-86"/>
      <point x="360" y="-86" type="curve"/>
      <point x="349" y="-178"/>
      <point x="322" y="-215"/>
      <point x="272" y="-215" type="curve" smooth="yes"/>
      <point x="230" y="-215"/>
      <point x="191" y="-176"/>
      <point x="191" y="-119" type="curve" smooth="yes"/>
      <point x="191" y="-20"/>
      <point x="318" y="10"/>
      <point x="318" y="143" type="curve" smooth="yes"/>
      <point x="318" y="200"/>
      <point x="294" y="250"/>
      <point x="272" y="265" type="curve"/>
      <point x="259" y="265"/>
      <point x="248" y="264"/>
      <point x="236" y="257" type="curve"/>
      <point x="242" y="238"/>
      <point x="247" y="205"/>
      <point x="247" y="189" type="curve" smooth="yes"/>
      <point x="247" y="49"/>
      <point x="102" y="3"/>
      <point x="102" y="-128" type="curve" smooth="yes"/>
      <point x="102" y="-211"/>
      <point x="169" y="-256"/>
    </contour>
    <contour>
      <point x="264.6" y="467.6" type="curve" smooth="yes"/>
      <point x="227.4" y="467.6"/>
      <point x="193.8" y="446.0"/>
      <point x="193.8" y="398.0" type="curve" smooth="yes"/>
      <point x="193.8" y="370.4"/>
      <point x="219.0" y="335.6"/>
      <point x="259.8" y="335.6" type="curve" smooth="yes"/>
      <point x="303.0" y="335.6"/>
      <point x="333.0" y="366.8"/>
      <point x="333.0" y="404.0" type="curve" smooth="yes"/>
      <point x="333.0" y="441.2"/>
      <point x="307.8" y="467.6"/>
    </contour>
  </outline>
</glyph>
<glyph name="divide" format="2">
  <advance width="550"/>
  <unicode hex="00F7"/>
  <outline>
    <contour>
      <point x="49" y="237" type="curve"/>
      <point x="134" y="238"/>
      <point x="203" y="239"/>
      <point x="285" y="239" type="curve" smooth="yes"/>
      <point x="366" y="239"/>
      <point x="388" y="239"/>
      <point x="491" y="238" type="curve"/>
      <point x="500" y="252"/>
      <point x="501" y="268"/>
      <point x="501" y="288" type="curve"/>
      <point x="59" y="288" type="line"/>
      <point x="53" y="279"/>
      <point x="49" y="252"/>
    </contour>
    <contour>
      <point x="276" y="61" type="curve" smooth="yes"/>
      <point x="302" y="61"/>
      <point x="325" y="80"/>
      <point x="325" y="109" type="curve" smooth="yes"/>
      <point x="325" y="139"/>
      <point x="310" y="158"/>
      <point x="274" y="158" type="curve" smooth="yes"/>
      <point x="239" y="158"/>
      <point x="225" y="136"/>
      <point x="225" y="109" type="curve" smooth="yes"/>
      <point x="225" y="82"/>
      <point x="247" y="61"/>
    </contour>
    <contour>
      <point x="279" y="369" type="curve" smooth="yes"/>
      <point x="314" y="369"/>
      <point x="326" y="393"/>
      <point x="326" y="424" type="curve" smooth="yes"/>
      <point x="326" y="451"/>
      <point x="303" y="467"/>
      <point x="276" y="467" type="curve" smooth="yes"/>
      <point x="249" y="467"/>
      <point x="225" y="453"/>
      <point x="225" y="424" type="curve" smooth="yes"/>
      <point x="225" y="391"/>
      <point x="242" y="369"/>
    </contour>
  </outline>
</glyph>
<glyph name="thorn" format="2">
  <advance width="572"/>
  <unicode hex="00FE"/>
  <outline>
    <contour>
      <point x="36" y="-245" type="curve"/>
      <point x="62" y="-243"/>
      <point x="121" y="-242"/>
      <point x="168" y="-242" type="curve" smooth="yes"/>
      <point x="215" y="-242"/>
      <point x="263" y="-243"/>
      <point x="294" y="-245" type="curve"/>
      <point x="294" y="-227"/>
      <point x="293" y="-213"/>
      <point x="289" y="-202" type="curve"/>
      <point x="226" y="-199"/>
      <point x="200" y="-182"/>
      <point x="200" y="-95" type="curve" smooth="yes"/>
      <point x="200" y="306" type="line"/>
      <point x="194" y="362" type="line"/>
      <point x="197" y="377"/>
      <point x="200" y="392"/>
      <point x="200" y="416" type="curve" smooth="yes"/>
      <point x="200" y="677" type="line" smooth="yes"/>
      <point x="200" y="702"/>
      <point x="190" y="713"/>
      <point x="178" y="717" type="curve"/>
      <point x="154" y="700"/>
      <point x="74" y="683"/>
      <point x="44" y="683" type="curve"/>
      <point x="37" y="672"/>
      <point x="35" y="661"/>
      <point x="35" y="646" type="curve"/>
      <point x="103" y="646"/>
      <point x="110" y="622"/>
      <point x="110" y="575" type="curve" smooth="yes"/>
      <point x="110" y="-115" type="line" smooth="yes"/>
      <point x="110" y="-182"/>
      <point x="94" y="-199"/>
      <point x="41" y="-202" type="curve"/>
      <point x="37" y="-213"/>
      <point x="36" y="-227"/>
    </contour>
    <contour>
      <point x="283" y="-9" type="curve" smooth="yes"/>
      <point x="433" y="-9"/>
      <point x="532" y="105"/>
      <point x="532" y="254" type="curve" smooth="yes"/>
      <point x="532" y="399"/>
      <point x="462" y="467"/>
      <point x="345" y="467" type="curve" smooth="yes"/>
      <point x="278" y="467"/>
      <point x="226" y="423"/>
      <point x="208" y="393" type="curve" smooth="yes"/>
      <point x="201" y="382"/>
      <point x="188" y="362"/>
      <point x="171" y="319" type="curve"/>
      <point x="200" y="213" type="line"/>
      <point x="200" y="353"/>
      <point x="262" y="404"/>
      <point x="321" y="404" type="curve" smooth="yes"/>
      <point x="385" y="404"/>
      <point x="433" y="337"/>
      <point x="433" y="232" type="curve" smooth="yes"/>
      <point x="433" y="73"/>
      <point x="343" y="37"/>
      <point x="288" y="37" type="curve" smooth="yes"/>
      <point x="241" y="37"/>
      <point x="213" y="58"/>
      <point x="186" y="86" type="curve"/>
      <point x="186" y="9" type="line"/>
      <point x="220" y="-2"/>
      <point x="245" y="-9"/>
    </contour>
  </outline>
</glyph>
<glyph name="dcaron" format="2">
  <advance width="660"/>
  <unicode hex="010F"/>
  <outline>
    <contour>
      <point x="435" y="336" type="move"/>
    </contour>
    <component base="d"/>
    <component base="quoteright" xOffset="463"/>
  </outline>
</glyph>
<glyph name="eogonek" format="2">
  <advance width="474"/>
  <unicode hex="0119"/>
  <outline>
    <contour>
      <point x="317" y="-249" type="curve" smooth="yes"/>
      <point x="324" y="-249"/>
      <point x="330" y="-249"/>
      <point x="336" y="-247" type="curve"/>
      <point x="360" y="-224"/>
      <point x="384" y="-207"/>
      <point x="410" y="-194" type="curve"/>
      <point x="411" y="-178"/>
      <point x="409" y="-166"/>
      <point x="403" y="-155" type="curve"/>
      <point x="388" y="-161"/>
      <point x="373" y="-163"/>
      <point x="361" y="-163" type="curve" smooth="yes"/>
      <point x="328" y="-163"/>
      <point x="298" y="-148"/>
      <point x="298" y="-99" type="curve" smooth="yes"/>
      <point x="298" y="-50"/>
      <point x="328" y="-12"/>
      <point x="384" y="29" type="curve"/>
      <point x="368" y="38" type="line"/>
      <point x="254" y="-21"/>
      <point x="220" y="-76"/>
      <point x="220" y="-140" type="curve" smooth="yes"/>
      <point x="220" y="-220"/>
      <point x="274" y="-249"/>
    </contour>
    <component base="e"/>
  </outline>
</glyph>
<glyph name="Iogonek" format="2">
  <advance width="354"/>
  <unicode hex="012E"/>
  <outline>
    <contour>
      <point x="192" y="20" type="line"/>
      <point x="109" y="-37"/>
      <point x="73" y="-92"/>
      <point x="73" y="-151" type="curve" smooth="yes"/>
      <point x="73" y="-230"/>
      <point x="137" y="-249"/>
      <point x="170" y="-249" type="curve" smooth="yes"/>
      <point x="177" y="-249"/>
      <point x="183" y="-249"/>
      <point x="189" y="-247" type="curve"/>
      <point x="213" y="-224"/>
      <point x="237" y="-207"/>
      <point x="263" y="-194" type="curve"/>
      <point x="264" y="-178"/>
      <point x="262" y="-166"/>
      <point x="256" y="-155" type="curve"/>
      <point x="241" y="-161"/>
      <point x="226" y="-163"/>
      <point x="214" y="-163" type="curve" smooth="yes"/>
      <point x="174" y="-163"/>
      <point x="151" y="-144"/>
      <point x="151" y="-106" type="curve" smooth="yes"/>
      <point x="151" y="-68"/>
      <point x="173" y="-32"/>
      <point x="215" y="0" type="curve"/>
    </contour>
    <component base="I"/>
  </outline>
</glyph>
<glyph name="iogonek" format="2">
  <advance width="301"/>
  <unicode hex="012F"/>
  <outline>
    <contour>
      <point x="172" y="20" type="line"/>
      <point x="89" y="-37"/>
      <point x="53" y="-92"/>
      <point x="53" y="-151" type="curve" smooth="yes"/>
      <point x="53" y="-230"/>
      <point x="117" y="-249"/>
      <point x="150" y="-249" type="curve" smooth="yes"/>
      <point x="157" y="-249"/>
      <point x="163" y="-249"/>
      <point x="169" y="-247" type="curve"/>
      <point x="193" y="-224"/>
      <point x="217" y="-207"/>
      <point x="243" y="-194" type="curve"/>
      <point x="244" y="-178"/>
      <point x="242" y="-166"/>
      <point x="236" y="-155" type="curve"/>
      <point x="221" y="-161"/>
      <point x="206" y="-163"/>
      <point x="194" y="-163" type="curve" smooth="yes"/>
      <point x="154" y="-163"/>
      <point x="131" y="-144"/>
      <point x="131" y="-106" type="curve" smooth="yes"/>
      <point x="131" y="-68"/>
      <point x="153" y="-32"/>
      <point x="195" y="0" type="curve"/>
    </contour>
    <component base="i"/>
  </outline>
</glyph>
<glyph name="IJ" format="2">
  <advance width="604"/>
  <unicode hex="0132"/>
  <outline>
    <contour>
      <point x="178" y="252" type="move"/>
    </contour>
    <component base="I"/>
    <component base="J" xOffset="275"/>
  </outline>
</glyph>
<glyph name="ij" format="2">
  <advance width="535"/>
  <unicode hex="0133"/>
  <outline>
    <contour>
      <point x="166" y="254" type="move"/>
    </contour>
    <component base="i"/>
    <component base="j" xOffset="252"/>
  </outline>
</glyph>
<glyph name="kgreenlandic" format="2">
  <advance width="546"/>
  <unicode hex="0138"/>
  <anchor x="274" y="0" name="bottom"/>
  <anchor x="274" y="458" name="top"/>
  <outline>
    <contour>
      <point x="37" y="-3" type="curve"/>
      <point x="70" y="-1"/>
      <point x="114" y="0"/>
      <point x="152" y="0" type="curve" smooth="yes"/>
      <point x="190" y="0"/>
      <point x="230" y="-1"/>
      <point x="265" y="-3" type="curve"/>
      <point x="265" y="6"/>
      <point x="264" y="26"/>
      <point x="260" y="40" type="curve"/>
      <point x="217" y="40"/>
      <point x="201" y="60"/>
      <point x="201" y="127" type="curve" smooth="yes"/>
      <point x="201" y="427" type="line" smooth="yes"/>
      <point x="201" y="452"/>
      <point x="191" y="463"/>
      <point x="179" y="467" type="curve"/>
      <point x="155" y="450"/>
      <point x="75" y="433"/>
      <point x="45" y="433" type="curve"/>
      <point x="38" y="422"/>
      <point x="36" y="411"/>
      <point x="36" y="396" type="curve"/>
      <point x="104" y="396"/>
      <point x="111" y="372"/>
      <point x="111" y="325" type="curve" smooth="yes"/>
      <point x="111" y="127" type="line" smooth="yes"/>
      <point x="111" y="60"/>
      <point x="95" y="40"/>
      <point x="42" y="40" type="curve"/>
      <point x="38" y="27"/>
      <point x="37" y="10"/>
    </contour>
    <contour>
      <point x="393" y="-9" type="curve"/>
      <point x="437" y="-2"/>
      <point x="473" y="0"/>
      <point x="521" y="0" type="curve"/>
      <point x="525" y="11"/>
      <point x="526" y="24"/>
      <point x="526" y="43" type="curve"/>
      <point x="480" y="45"/>
      <point x="468" y="49"/>
      <point x="422" y="106" type="curve" smooth="yes"/>
      <point x="352" y="191"/>
      <point x="308" y="241"/>
      <point x="261" y="289" type="curve"/>
      <point x="263" y="257" type="line"/>
      <point x="373" y="357" type="line" smooth="yes"/>
      <point x="423" y="402"/>
      <point x="456" y="417"/>
      <point x="495" y="418" type="curve"/>
      <point x="500" y="430"/>
      <point x="502" y="447"/>
      <point x="502" y="460" type="curve"/>
      <point x="466" y="458"/>
      <point x="430" y="458"/>
      <point x="408" y="458" type="curve" smooth="yes"/>
      <point x="381" y="458"/>
      <point x="347" y="458"/>
      <point x="304" y="460" type="curve"/>
      <point x="304" y="445"/>
      <point x="306" y="432"/>
      <point x="310" y="419" type="curve"/>
      <point x="328" y="419"/>
      <point x="339" y="414"/>
      <point x="339" y="403" type="curve" smooth="yes"/>
      <point x="339" y="389"/>
      <point x="321" y="364"/>
      <point x="275" y="323" type="curve"/>
      <point x="186" y="243" type="line"/>
      <point x="185" y="242" type="line"/>
      <point x="258" y="172"/>
      <point x="347" y="60"/>
    </contour>
  </outline>
</glyph>
<glyph name="eng" format="2">
  <advance width="579"/>
  <unicode hex="014B"/>
  <outline>
    <contour>
      <point x="179" y="467" type="curve"/>
      <point x="148" y="451"/>
      <point x="86" y="436"/>
      <point x="45" y="433" type="curve"/>
      <point x="38" y="422"/>
      <point x="36" y="411"/>
      <point x="36" y="396" type="curve"/>
      <point x="102" y="394"/>
      <point x="111" y="372"/>
      <point x="111" y="325" type="curve" smooth="yes"/>
      <point x="111" y="151" type="line"/>
      <point x="201" y="151" type="line"/>
      <point x="201" y="234" type="line" smooth="yes"/>
      <point x="201" y="356"/>
      <point x="262" y="401"/>
      <point x="314" y="401" type="curve" smooth="yes"/>
      <point x="368" y="401"/>
      <point x="407" y="373"/>
      <point x="407" y="279" type="curve" smooth="yes"/>
      <point x="407" y="127" type="line"/>
      <point x="497" y="127" type="line"/>
      <point x="497" y="299" type="line" smooth="yes"/>
      <point x="497" y="421"/>
      <point x="430" y="462"/>
      <point x="354" y="462" type="curve" smooth="yes"/>
      <point x="283" y="462"/>
      <point x="231" y="421"/>
      <point x="209" y="390" type="curve" smooth="yes"/>
      <point x="201" y="379"/>
      <point x="198" y="371"/>
      <point x="194" y="364" type="curve"/>
      <point x="200" y="387"/>
      <point x="201" y="407"/>
      <point x="201" y="423" type="curve" smooth="yes"/>
      <point x="201" y="452"/>
      <point x="191" y="463"/>
    </contour>
    <contour>
      <point x="201" y="201" type="line"/>
      <point x="111" y="201" type="line"/>
      <point x="111" y="127" type="line" smooth="yes"/>
      <point x="111" y="60"/>
      <point x="94" y="40"/>
      <point x="42" y="40" type="curve"/>
      <point x="38" y="29"/>
      <point x="37" y="15"/>
      <point x="37" y="-3" type="curve"/>
      <point x="66" y="-1"/>
      <point x="115" y="0"/>
      <point x="156" y="0" type="curve" smooth="yes"/>
      <point x="197" y="0"/>
      <point x="247" y="-2"/>
      <point x="275" y="-3" type="curve"/>
      <point x="275" y="15"/>
      <point x="274" y="28"/>
      <point x="270" y="40" type="curve"/>
      <point x="218" y="40"/>
      <point x="201" y="60"/>
      <point x="201" y="127" type="curve" smooth="yes"/>
    </contour>
    <component base="_part.hook" xScale="-1" xOffset="554"/>
  </outline>
</glyph>
<glyph name="tcaron" format="2">
  <advance width="454"/>
  <unicode hex="0165"/>
  <outline>
    <contour>
      <point x="107" y="158" type="move"/>
    </contour>
    <component base="t"/>
    <component base="quoteright" xOffset="290"/>
  </outline>
</glyph>
<glyph name="Uogonek" format="2">
  <advance width="675"/>
  <unicode hex="0172"/>
  <outline>
    <contour>
      <point x="474" y="38" type="line"/>
      <point x="360" y="-21"/>
      <point x="326" y="-76"/>
      <point x="326" y="-140" type="curve" smooth="yes"/>
      <point x="326" y="-220"/>
      <point x="380" y="-249"/>
      <point x="423" y="-249" type="curve" smooth="yes"/>
      <point x="430" y="-249"/>
      <point x="436" y="-249"/>
      <point x="442" y="-247" type="curve"/>
      <point x="466" y="-224"/>
      <point x="490" y="-207"/>
      <point x="516" y="-194" type="curve"/>
      <point x="517" y="-178"/>
      <point x="515" y="-166"/>
      <point x="509" y="-155" type="curve"/>
      <point x="494" y="-161"/>
      <point x="479" y="-163"/>
      <point x="467" y="-163" type="curve" smooth="yes"/>
      <point x="434" y="-163"/>
      <point x="404" y="-148"/>
      <point x="404" y="-99" type="curve" smooth="yes"/>
      <point x="404" y="-50"/>
      <point x="434" y="-12"/>
      <point x="490" y="29" type="curve"/>
    </contour>
    <component base="U"/>
  </outline>
</glyph>
<glyph name="Ezh" format="2">
  <advance width="609"/>
  <unicode hex="01B7"/>
  <anchor x="286" y="0" name="bottom"/>
  <anchor x="291" y="676" name="top"/>
  <outline>
    <contour>
      <point x="280" y="-9" type="curve" smooth="yes"/>
      <point x="454" y="-9"/>
      <point x="554" y="68"/>
      <point x="554" y="195" type="curve" smooth="yes"/>
      <point x="554" y="309"/>
      <point x="473" y="377"/>
      <point x="322" y="380" type="curve"/>
      <point x="325" y="372" type="line"/>
      <point x="407" y="468"/>
      <point x="482" y="573"/>
      <point x="529" y="645" type="curve"/>
      <point x="529" y="658"/>
      <point x="524" y="671"/>
      <point x="518" y="678" type="curve"/>
      <point x="447" y="676"/>
      <point x="392" y="676"/>
      <point x="326" y="676" type="curve" smooth="yes"/>
      <point x="260" y="676"/>
      <point x="123" y="677"/>
      <point x="82" y="678" type="curve"/>
      <point x="82" y="624"/>
      <point x="75" y="560"/>
      <point x="63" y="518" type="curve"/>
      <point x="76" y="510"/>
      <point x="103" y="508"/>
      <point x="120" y="508" type="curve"/>
      <point x="141" y="617"/>
      <point x="175" y="636"/>
      <point x="263" y="636" type="curve" smooth="yes"/>
      <point x="422" y="636" type="line"/>
      <point x="421" y="664" type="line"/>
      <point x="365" y="574"/>
      <point x="287" y="464"/>
      <point x="215" y="382" type="curve"/>
      <point x="215" y="367"/>
      <point x="220" y="353"/>
      <point x="226" y="341" type="curve"/>
      <point x="364" y="341"/>
      <point x="446" y="285"/>
      <point x="446" y="182" type="curve" smooth="yes"/>
      <point x="446" y="94"/>
      <point x="387" y="39"/>
      <point x="279" y="39" type="curve" smooth="yes"/>
      <point x="172" y="39"/>
      <point x="129" y="93"/>
      <point x="119" y="197" type="curve"/>
      <point x="103" y="197"/>
      <point x="77" y="195"/>
      <point x="61" y="191" type="curve"/>
      <point x="67" y="147"/>
      <point x="70" y="86"/>
      <point x="68" y="41" type="curve"/>
      <point x="129" y="10"/>
      <point x="194" y="-9"/>
    </contour>
  </outline>
</glyph>
<glyph name="Gstroke" format="2">
  <advance width="731"/>
  <unicode hex="01E4"/>
  <outline>
    <contour>
      <point x="371.0" y="141" type="curve"/>
      <point x="437.6" y="143"/>
      <point x="468.20000000000005" y="143"/>
      <point x="516.8" y="143" type="curve"/>
      <point x="553.7" y="143" type="line"/>
      <point x="606.8" y="143"/>
      <point x="639.2" y="143"/>
      <point x="690.5" y="142" type="curve"/>
      <point x="698.6" y="156"/>
      <point x="700.4000000000001" y="172"/>
      <point x="700.4000000000001" y="192" type="curve"/>
      <point x="555.5" y="192" type="line"/>
      <point x="517.7" y="192" type="line"/>
      <point x="380.9" y="192" type="line"/>
      <point x="375.5" y="183"/>
      <point x="371.0" y="156"/>
    </contour>
    <component base="G"/>
  </outline>
</glyph>
<glyph name="yogh" format="2">
  <advance width="473"/>
  <unicode hex="021D"/>
  <outline>
    <contour>
      <point x="190" y="-249" type="curve" smooth="yes"/>
      <point x="341" y="-249"/>
      <point x="433" y="-160"/>
      <point x="433" y="-25" type="curve" smooth="yes"/>
      <point x="433" y="106"/>
      <point x="347" y="148"/>
      <point x="237" y="149" type="curve"/>
      <point x="237" y="142" type="line"/>
      <point x="329" y="165"/>
      <point x="413" y="228"/>
      <point x="413" y="325" type="curve" smooth="yes"/>
      <point x="413" y="415"/>
      <point x="339" y="467"/>
      <point x="224" y="467" type="curve" smooth="yes"/>
      <point x="153" y="467"/>
      <point x="85" y="447"/>
      <point x="46" y="418" type="curve"/>
      <point x="51" y="370"/>
      <point x="50" y="323"/>
      <point x="47" y="280" type="curve"/>
      <point x="64" y="275"/>
      <point x="82" y="274"/>
      <point x="101" y="275" type="curve"/>
      <point x="120" y="385"/>
      <point x="146" y="424"/>
      <point x="212" y="424" type="curve" smooth="yes"/>
      <point x="276" y="424"/>
      <point x="313" y="386"/>
      <point x="313" y="316" type="curve" smooth="yes"/>
      <point x="313" y="214"/>
      <point x="233" y="173"/>
      <point x="126" y="138" type="curve"/>
      <point x="123" y="130"/>
      <point x="126" y="115"/>
      <point x="133" y="101" type="curve"/>
      <point x="153" y="106"/>
      <point x="172" y="108"/>
      <point x="191" y="108" type="curve" smooth="yes"/>
      <point x="274" y="108"/>
      <point x="332" y="63"/>
      <point x="332" y="-38" type="curve" smooth="yes"/>
      <point x="332" y="-150"/>
      <point x="264" y="-200"/>
      <point x="174" y="-200" type="curve" smooth="yes"/>
      <point x="121" y="-200"/>
      <point x="69" y="-183"/>
      <point x="54" y="-171" type="curve"/>
      <point x="44" y="-182"/>
      <point x="40" y="-193"/>
      <point x="40" y="-202" type="curve"/>
      <point x="69" y="-227"/>
      <point x="117" y="-249"/>
    </contour>
  </outline>
</glyph>
<glyph name="jdotless" format="2">
  <advance width="283"/>
  <unicode hex="0237"/>
  <anchor x="156" y="233" name="center"/>
  <anchor x="149" y="458" name="top"/>
  <outline>
    <contour>
      <point x="35" y="-249" type="curve"/>
      <point x="115" y="-203"/>
      <point x="201" y="-111"/>
      <point x="201" y="33" type="curve" smooth="yes"/>
      <point x="201" y="427" type="line" smooth="yes"/>
      <point x="201" y="452"/>
      <point x="191" y="463"/>
      <point x="179" y="467" type="curve"/>
      <point x="155" y="450"/>
      <point x="75" y="433"/>
      <point x="45" y="433" type="curve"/>
      <point x="38" y="422"/>
      <point x="36" y="411"/>
      <point x="36" y="396" type="curve"/>
      <point x="104" y="396"/>
      <point x="111" y="372"/>
      <point x="111" y="325" type="curve" smooth="yes"/>
      <point x="111" y="19" type="line" smooth="yes"/>
      <point x="111" y="-79"/>
      <point x="90" y="-134"/>
      <point x="13" y="-221" type="curve"/>
      <point x="15" y="-234"/>
      <point x="25" y="-244"/>
    </contour>
  </outline>
</glyph>
<glyph name="ereversed" format="2">
  <advance width="468"/>
  <unicode hex="0258"/>
  <anchor x="210" y="0" name="bottom"/>
  <anchor x="224" y="249" name="center"/>
  <anchor x="428" y="239" name="right"/>
  <anchor x="231" y="458" name="top"/>
  <outline>
    <contour>
      <point x="204" y="-9" type="curve" smooth="yes"/>
      <point x="355" y="-9"/>
      <point x="428" y="81"/>
      <point x="428" y="236" type="curve" smooth="yes"/>
      <point x="428" y="385"/>
      <point x="360" y="467"/>
      <point x="238" y="467" type="curve" smooth="yes"/>
      <point x="113" y="467"/>
      <point x="40" y="378"/>
      <point x="40" y="290" type="curve" smooth="yes"/>
      <point x="40" y="269"/>
      <point x="44" y="239"/>
      <point x="59" y="220" type="curve"/>
      <point x="124" y="225"/>
      <point x="244" y="226"/>
      <point x="350" y="226" type="curve"/>
      <point x="350" y="271" type="line"/>
      <point x="148" y="271" type="line"/>
      <point x="143" y="283"/>
      <point x="141" y="296"/>
      <point x="141" y="309" type="curve" smooth="yes"/>
      <point x="141" y="364"/>
      <point x="176" y="419"/>
      <point x="231" y="419" type="curve" smooth="yes"/>
      <point x="293" y="419"/>
      <point x="330" y="351"/>
      <point x="330" y="228" type="curve" smooth="yes"/>
      <point x="330" y="109"/>
      <point x="295" y="39"/>
      <point x="216" y="39" type="curve" smooth="yes"/>
      <point x="163" y="39"/>
      <point x="111" y="71"/>
      <point x="103" y="133" type="curve"/>
      <point x="83" y="133"/>
      <point x="62" y="130"/>
      <point x="51" y="122" type="curve"/>
      <point x="54" y="98"/>
      <point x="54" y="52"/>
      <point x="50" y="28" type="curve"/>
      <point x="91" y="6"/>
      <point x="142" y="-9"/>
    </contour>
  </outline>
</glyph>
<glyph name="ringhalfright" format="2">
  <advance width="223"/>
  <unicode hex="02BE"/>
  <outline>
    <contour>
      <point x="44" y="466" type="curve"/>
      <point x="39" y="482"/>
      <point x="39" y="500"/>
      <point x="44" y="516" type="curve"/>
      <point x="82" y="516"/>
      <point x="108" y="548"/>
      <point x="108" y="594" type="curve" smooth="yes"/>
      <point x="108" y="637"/>
      <point x="85" y="668"/>
      <point x="44" y="668" type="curve"/>
      <point x="39" y="682"/>
      <point x="39" y="698"/>
      <point x="44" y="714" type="curve"/>
      <point x="129" y="714"/>
      <point x="183" y="661"/>
      <point x="183" y="587" type="curve" smooth="yes"/>
      <point x="183" y="512"/>
      <point x="126" y="466"/>
    </contour>
  </outline>
</glyph>
<glyph name="verticallinemod" format="2">
  <advance width="198"/>
  <unicode hex="02C8"/>
  <outline>
    <contour>
      <point x="77" y="437" type="curve"/>
      <point x="94" y="434"/>
      <point x="114" y="435"/>
      <point x="132" y="442" type="curve"/>
      <point x="132" y="533"/>
      <point x="134" y="618"/>
      <point x="138" y="701" type="curve"/>
      <point x="117" y="704"/>
      <point x="93" y="701"/>
      <point x="74" y="693" type="curve"/>
      <point x="78" y="611"/>
      <point x="79" y="524"/>
    </contour>
  </outline>
</glyph>
<glyph name="macroncomb" format="2">
  <unicode hex="0304"/>
  <anchor x="232" y="458" name="_top"/>
  <anchor x="232" y="631" name="top"/>
  <outline>
    <contour>
      <point x="50" y="585" type="curve"/>
      <point x="221" y="588"/>
      <point x="373" y="588"/>
      <point x="405" y="588" type="curve"/>
      <point x="411" y="603"/>
      <point x="414" y="617"/>
      <point x="414" y="631" type="curve"/>
      <point x="59" y="631" type="line"/>
      <point x="53" y="619"/>
      <point x="50" y="593"/>
    </contour>
  </outline>
</glyph>
<glyph name="brevecomb" format="2">
  <unicode hex="0306"/>
  <anchor x="217" y="458" name="_top"/>
  <anchor x="217" y="703" name="top"/>
  <outline>
    <contour>
      <point x="383" y="697" type="curve"/>
      <point x="377" y="701"/>
      <point x="364" y="703"/>
      <point x="350" y="703" type="curve"/>
      <point x="346" y="635"/>
      <point x="298" y="592"/>
      <point x="225" y="592" type="curve" smooth="yes"/>
      <point x="152" y="592"/>
      <point x="100" y="635"/>
      <point x="90" y="703" type="curve"/>
      <point x="77" y="703"/>
      <point x="62" y="699"/>
      <point x="50" y="692" type="curve"/>
      <point x="50" y="587"/>
      <point x="110" y="527"/>
      <point x="215" y="527" type="curve" smooth="yes"/>
      <point x="322" y="527"/>
      <point x="383" y="589"/>
    </contour>
  </outline>
</glyph>
<glyph name="dotaccentcomb" format="2">
  <unicode hex="0307"/>
  <anchor x="110" y="458" name="_top"/>
  <anchor x="110" y="649" name="top"/>
  <outline>
    <contour>
      <point x="109" y="530" type="curve" smooth="yes"/>
      <point x="142" y="530"/>
      <point x="169" y="557"/>
      <point x="169" y="588" type="curve" smooth="yes"/>
      <point x="169" y="624"/>
      <point x="145" y="649"/>
      <point x="109" y="649" type="curve" smooth="yes"/>
      <point x="78" y="649"/>
      <point x="50" y="624"/>
      <point x="50" y="588" type="curve" smooth="yes"/>
      <point x="50" y="556"/>
      <point x="75" y="530"/>
    </contour>
  </outline>
</glyph>
<glyph name="dieresiscomb" format="2">
  <unicode hex="0308"/>
  <anchor x="204" y="458" name="_top"/>
  <anchor x="204" y="640" name="top"/>
  <outline>
    <contour>
      <point x="303" y="532" type="curve" smooth="yes"/>
      <point x="343" y="532"/>
      <point x="357" y="561"/>
      <point x="357" y="589" type="curve" smooth="yes"/>
      <point x="357" y="619"/>
      <point x="333" y="640"/>
      <point x="300" y="640" type="curve" smooth="yes"/>
      <point x="267" y="640"/>
      <point x="244" y="621"/>
      <point x="244" y="589" type="curve" smooth="yes"/>
      <point x="244" y="556"/>
      <point x="264" y="532"/>
    </contour>
    <contour>
      <point x="107" y="532" type="curve" smooth="yes"/>
      <point x="138" y="532"/>
      <point x="162" y="554"/>
      <point x="162" y="585" type="curve" smooth="yes"/>
      <point x="162" y="616"/>
      <point x="145" y="640"/>
      <point x="105" y="640" type="curve" smooth="yes"/>
      <point x="66" y="640"/>
      <point x="50" y="612"/>
      <point x="50" y="583" type="curve" smooth="yes"/>
      <point x="50" y="554"/>
      <point x="73" y="532"/>
    </contour>
  </outline>
</glyph>
<glyph name="hookabovecomb" format="2">
  <unicode hex="0309"/>
  <anchor x="159" y="458" name="_top"/>
  <anchor x="159" y="714" name="top"/>
  <outline>
    <contour>
      <point x="142" y="520" type="curve"/>
      <point x="158" y="520"/>
      <point x="171" y="521"/>
      <point x="185" y="528" type="curve"/>
      <point x="181" y="536"/>
      <point x="178" y="550"/>
      <point x="178" y="557" type="curve" smooth="yes"/>
      <point x="178" y="593"/>
      <point x="267" y="608"/>
      <point x="267" y="659" type="curve" smooth="yes"/>
      <point x="267" y="695"/>
      <point x="224" y="714"/>
      <point x="164" y="714" type="curve" smooth="yes"/>
      <point x="108" y="714"/>
      <point x="74" y="697"/>
      <point x="50" y="681" type="curve"/>
      <point x="55" y="661"/>
      <point x="54" y="647"/>
      <point x="50" y="624" type="curve"/>
      <point x="62" y="618"/>
      <point x="86" y="616"/>
      <point x="104" y="616" type="curve"/>
      <point x="110" y="660"/>
      <point x="125" y="677"/>
      <point x="156" y="677" type="curve" smooth="yes"/>
      <point x="178" y="677"/>
      <point x="191" y="669"/>
      <point x="191" y="654" type="curve" smooth="yes"/>
      <point x="191" y="620"/>
      <point x="119" y="618"/>
      <point x="119" y="572" type="curve" smooth="yes"/>
      <point x="119" y="556"/>
      <point x="127" y="537"/>
    </contour>
  </outline>
</glyph>
<glyph name="ringcomb" format="2">
  <unicode hex="030A"/>
  <anchor x="151" y="458" name="_top"/>
  <anchor x="151" y="708" name="top"/>
  <outline>
    <contour>
      <point x="147" y="526" type="curve" smooth="yes"/>
      <point x="206" y="526"/>
      <point x="252" y="567"/>
      <point x="252" y="621" type="curve" smooth="yes"/>
      <point x="252" y="681"/>
      <point x="203" y="708"/>
      <point x="154" y="708" type="curve" smooth="yes"/>
      <point x="96" y="708"/>
      <point x="50" y="667"/>
      <point x="50" y="614" type="curve" smooth="yes"/>
      <point x="50" y="560"/>
      <point x="96" y="526"/>
    </contour>
    <contour>
      <point x="157" y="563" type="curve" smooth="yes"/>
      <point x="124" y="563"/>
      <point x="105" y="587"/>
      <point x="105" y="618" type="curve" smooth="yes"/>
      <point x="105" y="653"/>
      <point x="122" y="674"/>
      <point x="147" y="674" type="curve" smooth="yes"/>
      <point x="182" y="674"/>
      <point x="198" y="639"/>
      <point x="198" y="611" type="curve" smooth="yes"/>
      <point x="198" y="581"/>
      <point x="178" y="563"/>
    </contour>
  </outline>
</glyph>
<glyph name="breveinvertedcomb" format="2">
  <unicode hex="0311"/>
  <anchor x="217" y="458" name="_top"/>
  <anchor x="217" y="703" name="top"/>
  <outline>
    <contour>
      <point x="50" y="533" type="curve"/>
      <point x="56" y="529"/>
      <point x="69" y="527"/>
      <point x="83" y="527" type="curve"/>
      <point x="87" y="595"/>
      <point x="135" y="638"/>
      <point x="208" y="638" type="curve" smooth="yes"/>
      <point x="281" y="638"/>
      <point x="333" y="595"/>
      <point x="343" y="527" type="curve"/>
      <point x="356" y="527"/>
      <point x="371" y="531"/>
      <point x="383" y="538" type="curve"/>
      <point x="383" y="643"/>
      <point x="323" y="703"/>
      <point x="218" y="703" type="curve" smooth="yes"/>
      <point x="111" y="703"/>
      <point x="50" y="641"/>
    </contour>
  </outline>
</glyph>
<glyph name="commaabovecomb" format="2">
  <unicode hex="0313"/>
  <anchor x="113" y="458" name="_top"/>
  <anchor x="113" y="721" name="top"/>
  <outline>
    <contour>
      <point x="142" y="721" type="curve"/>
      <point x="120" y="708"/>
      <point x="92" y="697"/>
      <point x="62" y="692" type="curve"/>
      <point x="56" y="677"/>
      <point x="53" y="642"/>
      <point x="54" y="632" type="curve"/>
      <point x="79" y="629"/>
      <point x="91" y="621"/>
      <point x="91" y="599" type="curve" smooth="yes"/>
      <point x="91" y="581"/>
      <point x="83" y="557"/>
      <point x="50" y="527" type="curve"/>
      <point x="55" y="516"/>
      <point x="64" y="509"/>
      <point x="78" y="506" type="curve"/>
      <point x="141" y="552"/>
      <point x="176" y="603"/>
      <point x="176" y="657" type="curve" smooth="yes"/>
      <point x="176" y="687"/>
      <point x="165" y="713"/>
    </contour>
  </outline>
</glyph>
<glyph name="horncomb" format="2">
  <unicode hex="031B"/>
  <anchor x="4" y="458" name="_topright"/>
  <anchor x="0" y="458" name="topright"/>
  <outline>
    <contour>
      <point x="-75" y="402" type="line"/>
      <point x="24" y="402"/>
      <point x="105" y="434"/>
      <point x="105" y="515" type="curve" smooth="yes"/>
      <point x="105" y="536"/>
      <point x="99" y="555"/>
      <point x="84" y="576" type="curve"/>
      <point x="63" y="579"/>
      <point x="42" y="575"/>
      <point x="25" y="567" type="curve"/>
      <point x="29" y="550"/>
      <point x="31" y="534"/>
      <point x="31" y="521" type="curve" smooth="yes"/>
      <point x="31" y="461"/>
      <point x="-12" y="450"/>
      <point x="-46" y="441" type="curve"/>
    </contour>
  </outline>
</glyph>
<glyph name="dotbelowcomb" format="2">
  <unicode hex="0323"/>
  <anchor x="110" y="0" name="_bottom"/>
  <anchor x="112" y="-210" name="bottom"/>
  <outline>
    <contour>
      <point x="109" y="-210" type="curve" smooth="yes"/>
      <point x="142" y="-210"/>
      <point x="169" y="-183"/>
      <point x="169" y="-152" type="curve" smooth="yes"/>
      <point x="169" y="-116"/>
      <point x="145" y="-91"/>
      <point x="109" y="-91" type="curve" smooth="yes"/>
      <point x="78" y="-91"/>
      <point x="50" y="-116"/>
      <point x="50" y="-152" type="curve" smooth="yes"/>
      <point x="50" y="-184"/>
      <point x="75" y="-210"/>
    </contour>
  </outline>
</glyph>
<glyph name="macronbelowcomb" format="2">
  <unicode hex="0331"/>
  <anchor x="232" y="0" name="_bottom"/>
  <anchor x="232" y="-165" name="bottom"/>
  <outline>
    <contour>
      <point x="50" y="-165" type="curve"/>
      <point x="221" y="-162"/>
      <point x="373" y="-162"/>
      <point x="405" y="-162" type="curve"/>
      <point x="411" y="-147"/>
      <point x="414" y="-133"/>
      <point x="414" y="-119" type="curve"/>
      <point x="59" y="-119" type="line"/>
      <point x="53" y="-131"/>
      <point x="50" y="-157"/>
    </contour>
  </outline>
</glyph>
<glyph name="strokeshortcomb" format="2">
  <unicode hex="0335"/>
  <anchor x="178" y="355" name="_center"/>
  <outline>
    <contour>
      <point x="50" y="333" type="curve"/>
      <point x="130" y="334"/>
      <point x="265" y="334"/>
      <point x="297" y="334" type="curve"/>
      <point x="303" y="349"/>
      <point x="306" y="362"/>
      <point x="306" y="376" type="curve"/>
      <point x="60" y="376" type="line"/>
      <point x="54" y="364"/>
      <point x="50" y="351"/>
    </contour>
  </outline>
</glyph>
<glyph name="strokelongcomb" format="2">
  <unicode hex="0336"/>
  <anchor x="342" y="258" name="_center"/>
  <outline>
    <contour>
      <point x="50" y="235" type="curve"/>
      <point x="221" y="238"/>
      <point x="462" y="238"/>
      <point x="624" y="238" type="curve"/>
      <point x="630" y="253"/>
      <point x="633" y="267"/>
      <point x="633" y="281" type="curve"/>
      <point x="59" y="281" type="line"/>
      <point x="53" y="269"/>
      <point x="50" y="243"/>
    </contour>
  </outline>
</glyph>
<glyph name="slashshortcomb" format="2">
  <unicode hex="0337"/>
  <anchor x="273" y="326" name="_center"/>
  <outline>
    <contour>
      <point x="75" y="188" type="line"/>
      <point x="496" y="414" type="line"/>
      <point x="471" y="464" type="line"/>
      <point x="50" y="238" type="line"/>
    </contour>
  </outline>
</glyph>
<glyph name="slashlongcomb" format="2">
  <unicode hex="0338"/>
  <anchor x="273" y="326" name="_center"/>
  <outline>
    <contour>
      <point x="75" y="188" type="line"/>
      <point x="496" y="414" type="line"/>
      <point x="471" y="464" type="line"/>
      <point x="50" y="238" type="line"/>
    </contour>
  </outline>
</glyph>
<glyph name="tonos" format="2">
  <advance width="300"/>
  <unicode hex="0384"/>
  <anchor x="126" y="458" name="_top"/>
  <outline>
    <contour>
      <point x="139" y="531" type="curve"/>
      <point x="158" y="602"/>
      <point x="176" y="657"/>
      <point x="200" y="713" type="curve"/>
      <point x="187" y="718"/>
      <point x="170" y="721"/>
      <point x="153" y="721" type="curve" smooth="yes"/>
      <point x="137" y="721"/>
      <point x="121" y="718"/>
      <point x="105" y="714" type="curve"/>
      <point x="105" y="659"/>
      <point x="104" y="599"/>
      <point x="99" y="536" type="curve"/>
      <point x="111" y="530"/>
      <point x="122" y="529"/>
    </contour>
  </outline>
</glyph>
<glyph name="Lambda" format="2">
  <advance width="664"/>
  <unicode hex="039B"/>
  <anchor x="322" y="676" name="top"/>
  <outline>
    <contour>
      <point x="341" y="682" type="line"/>
      <point x="324" y="682"/>
      <point x="313" y="681"/>
      <point x="299" y="678" type="curve"/>
      <point x="106" y="147" type="line" smooth="yes"/>
      <point x="77" y="68"/>
      <point x="65" y="46"/>
      <point x="32" y="39" type="curve"/>
      <point x="27" y="27"/>
      <point x="25" y="10"/>
      <point x="25" y="-3" type="curve"/>
      <point x="43" y="-2"/>
      <point x="73" y="0"/>
      <point x="104" y="0" type="curve" smooth="yes"/>
      <point x="135" y="0"/>
      <point x="174" y="-1"/>
      <point x="196" y="-3" type="curve"/>
      <point x="196" y="13"/>
      <point x="194" y="28"/>
      <point x="189" y="40" type="curve"/>
      <point x="140" y="44"/>
      <point x="128" y="68"/>
      <point x="155" y="147" type="curve" smooth="yes"/>
      <point x="257" y="444" type="line" smooth="yes"/>
      <point x="268" y="477"/>
      <point x="280" y="508"/>
      <point x="295" y="559" type="curve"/>
      <point x="286" y="559" type="line"/>
      <point x="301" y="509"/>
      <point x="313" y="485"/>
      <point x="329" y="443" type="curve" smooth="yes"/>
      <point x="451" y="118" type="line" smooth="yes"/>
      <point x="474" y="56"/>
      <point x="468" y="46"/>
      <point x="419" y="40" type="curve"/>
      <point x="413" y="28"/>
      <point x="412" y="13"/>
      <point x="412" y="-3" type="curve"/>
      <point x="433" y="-2"/>
      <point x="497" y="0"/>
      <point x="527" y="0" type="curve" smooth="yes"/>
      <point x="556" y="0"/>
      <point x="617" y="-2"/>
      <point x="639" y="-3" type="curve"/>
      <point x="639" y="13"/>
      <point x="638" y="23"/>
      <point x="633" y="40" type="curve"/>
      <point x="605" y="45"/>
      <point x="591" y="60"/>
      <point x="560" y="136" type="curve" smooth="yes"/>
    </contour>
  </outline>
</glyph>
<glyph name="Phi" format="2">
  <advance width="743"/>
  <unicode hex="03A6"/>
  <anchor x="372" y="676" name="top"/>
  <outline>
    <contour>
      <point x="368" y="94" type="curve" smooth="yes"/>
      <point x="568" y="94"/>
      <point x="708" y="189"/>
      <point x="708" y="343" type="curve" smooth="yes"/>
      <point x="708" y="499"/>
      <point x="565" y="580"/>
      <point x="374" y="580" type="curve" smooth="yes"/>
      <point x="181" y="580"/>
      <point x="35" y="497"/>
      <point x="35" y="338" type="curve" smooth="yes"/>
      <point x="35" y="183"/>
      <point x="173" y="94"/>
    </contour>
    <contour>
      <point x="380" y="146" type="curve" smooth="yes"/>
      <point x="225" y="146"/>
      <point x="136" y="224"/>
      <point x="136" y="348" type="curve" smooth="yes"/>
      <point x="136" y="477"/>
      <point x="231" y="529"/>
      <point x="359" y="529" type="curve" smooth="yes"/>
      <point x="503" y="529"/>
      <point x="607" y="464"/>
      <point x="607" y="332" type="curve" smooth="yes"/>
      <point x="607" y="214"/>
      <point x="524" y="146"/>
    </contour>
    <contour>
      <point x="253" y="-3" type="curve"/>
      <point x="287" y="-1"/>
      <point x="335" y="0"/>
      <point x="372" y="0" type="curve" smooth="yes"/>
      <point x="409" y="0"/>
      <point x="451" y="-1"/>
      <point x="491" y="-3" type="curve"/>
      <point x="491" y="15"/>
      <point x="490" y="29"/>
      <point x="486" y="40" type="curve"/>
      <point x="433" y="43"/>
      <point x="417" y="60"/>
      <point x="417" y="127" type="curve" smooth="yes"/>
      <point x="417" y="549" type="line" smooth="yes"/>
      <point x="417" y="616"/>
      <point x="433" y="633"/>
      <point x="486" y="636" type="curve"/>
      <point x="490" y="647"/>
      <point x="491" y="661"/>
      <point x="491" y="679" type="curve"/>
      <point x="451" y="677"/>
      <point x="413" y="676"/>
      <point x="372" y="676" type="curve" smooth="yes"/>
      <point x="331" y="676"/>
      <point x="290" y="677"/>
      <point x="253" y="679" type="curve"/>
      <point x="253" y="661"/>
      <point x="254" y="647"/>
      <point x="258" y="636" type="curve"/>
      <point x="311" y="633"/>
      <point x="327" y="616"/>
      <point x="327" y="549" type="curve" smooth="yes"/>
      <point x="327" y="127" type="line" smooth="yes"/>
      <point x="327" y="60"/>
      <point x="311" y="43"/>
      <point x="258" y="40" type="curve"/>
      <point x="254" y="29"/>
      <point x="253" y="15"/>
    </contour>
  </outline>
</glyph>
<glyph name="Psi" format="2">
  <advance width="719"/>
  <unicode hex="03A8"/>
  <anchor x="370" y="676" name="top"/>
  <outline>
    <contour>
      <point x="238" y="-3" type="curve"/>
      <point x="275" y="-1"/>
      <point x="327" y="0"/>
      <point x="369" y="0" type="curve" smooth="yes"/>
      <point x="411" y="0"/>
      <point x="457" y="-1"/>
      <point x="500" y="-3" type="curve"/>
      <point x="500" y="15"/>
      <point x="499" y="29"/>
      <point x="495" y="40" type="curve"/>
      <point x="430" y="43"/>
      <point x="417" y="60"/>
      <point x="417" y="127" type="curve" smooth="yes"/>
      <point x="417" y="549" type="line" smooth="yes"/>
      <point x="417" y="616"/>
      <point x="433" y="633"/>
      <point x="486" y="636" type="curve"/>
      <point x="490" y="647"/>
      <point x="491" y="661"/>
      <point x="491" y="679" type="curve"/>
      <point x="451" y="677"/>
      <point x="413" y="676"/>
      <point x="370" y="676" type="curve" smooth="yes"/>
      <point x="327" y="676"/>
      <point x="286" y="677"/>
      <point x="249" y="679" type="curve"/>
      <point x="249" y="661"/>
      <point x="250" y="647"/>
      <point x="254" y="636" type="curve"/>
      <point x="307" y="633"/>
      <point x="323" y="616"/>
      <point x="323" y="549" type="curve" smooth="yes"/>
      <point x="323" y="127" type="line" smooth="yes"/>
      <point x="323" y="60"/>
      <point x="307" y="43"/>
      <point x="243" y="40" type="curve"/>
      <point x="239" y="29"/>
      <point x="238" y="15"/>
    </contour>
    <contour>
      <point x="363" y="233" type="curve"/>
      <point x="363" y="280" type="line"/>
      <point x="219" y="280"/>
      <point x="175" y="341"/>
      <point x="175" y="543" type="curve" smooth="yes"/>
      <point x="175" y="641" type="line" smooth="yes"/>
      <point x="175" y="670"/>
      <point x="165" y="681"/>
      <point x="153" y="685" type="curve"/>
      <point x="123" y="674"/>
      <point x="71" y="663"/>
      <point x="32" y="661" type="curve"/>
      <point x="26" y="649"/>
      <point x="25" y="639"/>
      <point x="25" y="624" type="curve"/>
      <point x="82" y="621"/>
      <point x="83" y="602"/>
      <point x="85" y="542" type="curve" smooth="yes"/>
      <point x="94" y="309"/>
      <point x="132" y="233"/>
    </contour>
    <contour>
      <point x="371" y="233" type="line"/>
      <point x="652" y="233"/>
      <point x="633" y="395"/>
      <point x="646" y="592" type="curve" smooth="yes"/>
      <point x="648" y="623"/>
      <point x="649" y="643"/>
      <point x="672" y="643" type="curve" smooth="yes"/>
      <point x="678" y="643"/>
      <point x="683" y="642"/>
      <point x="688" y="641" type="curve"/>
      <point x="693" y="655"/>
      <point x="695" y="665"/>
      <point x="693" y="678" type="curve"/>
      <point x="682" y="681"/>
      <point x="669" y="682"/>
      <point x="658" y="682" type="curve" smooth="yes"/>
      <point x="598" y="682"/>
      <point x="557" y="655"/>
      <point x="556" y="600" type="curve" smooth="yes"/>
      <point x="550" y="336"/>
      <point x="548" y="280"/>
      <point x="371" y="280" type="curve"/>
    </contour>
  </outline>
</glyph>
<glyph name="alpha" format="2">
  <advance width="601"/>
  <unicode hex="03B1"/>
  <anchor x="261" y="458" name="top"/>
  <outline>
    <contour>
      <point x="229" y="-9" type="curve" smooth="yes"/>
      <point x="308" y="-9"/>
      <point x="390" y="23"/>
      <point x="450" y="230" type="curve" smooth="yes"/>
      <point x="497" y="392"/>
      <point x="502" y="410"/>
      <point x="555" y="415" type="curve"/>
      <point x="555" y="434"/>
      <point x="554" y="447"/>
      <point x="550" y="458" type="curve"/>
      <point x="510" y="458"/>
      <point x="472" y="460"/>
      <point x="452" y="467" type="curve"/>
      <point x="426" y="458"/>
      <point x="422" y="451"/>
      <point x="358" y="242" type="curve" smooth="yes"/>
      <point x="309" y="82"/>
      <point x="281" y="39"/>
      <point x="242" y="39" type="curve" smooth="yes"/>
      <point x="203" y="39"/>
      <point x="139" y="81"/>
      <point x="139" y="238" type="curve" smooth="yes"/>
      <point x="139" y="384"/>
      <point x="195" y="421"/>
      <point x="246" y="421" type="curve" smooth="yes"/>
      <point x="301" y="421"/>
      <point x="336" y="377"/>
      <point x="376" y="265" type="curve"/>
      <point x="415" y="271" type="line"/>
      <point x="370" y="432"/>
      <point x="320" y="467"/>
      <point x="246" y="467" type="curve" smooth="yes"/>
      <point x="110" y="467"/>
      <point x="40" y="349"/>
      <point x="40" y="206" type="curve" smooth="yes"/>
      <point x="40" y="61"/>
      <point x="111" y="-9"/>
    </contour>
    <contour>
      <point x="496" y="-9" type="curve" smooth="yes"/>
      <point x="529" y="-9"/>
      <point x="563" y="5"/>
      <point x="581" y="26" type="curve"/>
      <point x="580" y="37"/>
      <point x="574" y="50"/>
      <point x="566" y="59" type="curve"/>
      <point x="551" y="50"/>
      <point x="535" y="45"/>
      <point x="518" y="45" type="curve" smooth="yes"/>
      <point x="481" y="45"/>
      <point x="455" y="70"/>
      <point x="427" y="195" type="curve"/>
      <point x="402" y="130" type="line"/>
      <point x="402" y="39"/>
      <point x="437" y="-9"/>
    </contour>
  </outline>
</glyph>
<glyph name="beta" format="2">
  <advance width="530"/>
  <unicode hex="03B2"/>
  <anchor x="264" y="708" name="top"/>
  <outline>
    <contour>
      <point x="85" y="-242" type="curve"/>
      <point x="108" y="-215"/>
      <point x="147" y="-183"/>
      <point x="178" y="-167" type="curve"/>
      <point x="169" y="-137"/>
      <point x="164" y="-99"/>
      <point x="164" y="-40" type="curve" smooth="yes"/>
      <point x="164" y="519" type="line" smooth="yes"/>
      <point x="164" y="627"/>
      <point x="194" y="660"/>
      <point x="252" y="660" type="curve" smooth="yes"/>
      <point x="324" y="660"/>
      <point x="363" y="608"/>
      <point x="363" y="537" type="curve" smooth="yes"/>
      <point x="363" y="452"/>
      <point x="308" y="403"/>
      <point x="215" y="393" type="curve"/>
      <point x="210" y="386"/>
      <point x="209" y="369"/>
      <point x="212" y="354" type="curve"/>
      <point x="321" y="354"/>
      <point x="389" y="297"/>
      <point x="389" y="185" type="curve" smooth="yes"/>
      <point x="389" y="93"/>
      <point x="343" y="36"/>
      <point x="249" y="36" type="curve" smooth="yes"/>
      <point x="199" y="36"/>
      <point x="170" y="57"/>
      <point x="147" y="94" type="curve"/>
      <point x="148" y="18" type="line"/>
      <point x="172" y="0"/>
      <point x="207" y="-9"/>
      <point x="266" y="-9" type="curve" smooth="yes"/>
      <point x="402" y="-9"/>
      <point x="490" y="70"/>
      <point x="490" y="202" type="curve" smooth="yes"/>
      <point x="490" y="324"/>
      <point x="416" y="390"/>
      <point x="287" y="390" type="curve"/>
      <point x="287" y="383" type="line"/>
      <point x="399" y="383"/>
      <point x="463" y="441"/>
      <point x="463" y="546" type="curve" smooth="yes"/>
      <point x="463" y="651"/>
      <point x="399" y="715"/>
      <point x="297" y="715" type="curve" smooth="yes"/>
      <point x="190" y="715"/>
      <point x="74" y="644"/>
      <point x="74" y="488" type="curve" smooth="yes"/>
      <point x="74" y="-85" type="line" smooth="yes"/>
      <point x="74" y="-160"/>
      <point x="68" y="-190"/>
      <point x="65" y="-220" type="curve"/>
      <point x="68" y="-228"/>
      <point x="75" y="-238"/>
    </contour>
  </outline>
</glyph>
<glyph name="delta" format="2">
  <advance width="516"/>
  <unicode hex="03B4"/>
  <anchor x="258" y="708" name="top"/>
  <outline>
    <contour>
      <point x="253" y="-8" type="curve" smooth="yes"/>
      <point x="394" y="-8"/>
      <point x="476" y="74"/>
      <point x="476" y="196" type="curve" smooth="yes"/>
      <point x="476" y="318"/>
      <point x="395" y="390"/>
      <point x="350" y="427" type="curve" smooth="yes"/>
      <point x="310" y="460"/>
      <point x="174" y="568"/>
      <point x="174" y="601" type="curve" smooth="yes"/>
      <point x="174" y="620"/>
      <point x="220" y="627"/>
      <point x="291" y="627" type="curve" smooth="yes"/>
      <point x="337" y="627"/>
      <point x="372" y="624"/>
      <point x="387" y="621" type="curve"/>
      <point x="391" y="638"/>
      <point x="393" y="674"/>
      <point x="388" y="694" type="curve"/>
      <point x="375" y="704"/>
      <point x="341" y="717"/>
      <point x="287" y="717" type="curve" smooth="yes"/>
      <point x="180" y="717"/>
      <point x="114" y="667"/>
      <point x="114" y="585" type="curve" smooth="yes"/>
      <point x="114" y="502"/>
      <point x="182" y="444"/>
      <point x="278" y="363" type="curve" smooth="yes"/>
      <point x="348" y="304"/>
      <point x="376" y="250"/>
      <point x="376" y="181" type="curve" smooth="yes"/>
      <point x="376" y="97"/>
      <point x="335" y="40"/>
      <point x="263" y="40" type="curve" smooth="yes"/>
      <point x="187" y="40"/>
      <point x="140" y="102"/>
      <point x="140" y="210" type="curve" smooth="yes"/>
      <point x="140" y="296"/>
      <point x="170" y="364"/>
      <point x="246" y="416" type="curve"/>
      <point x="214" y="449" type="line"/>
      <point x="108" y="400"/>
      <point x="40" y="316"/>
      <point x="40" y="196" type="curve" smooth="yes"/>
      <point x="40" y="66"/>
      <point x="120" y="-8"/>
    </contour>
  </outline>
</glyph>
<glyph name="zeta" format="2">
  <advance width="440"/>
  <unicode hex="03B6"/>
  <anchor x="227" y="708" name="top"/>
  <outline>
    <contour>
      <point x="258" y="-249" type="curve"/>
      <point x="329" y="-218"/>
      <point x="416" y="-133"/>
      <point x="416" y="-38" type="curve" smooth="yes"/>
      <point x="416" y="54"/>
      <point x="334" y="67"/>
      <point x="240" y="96" type="curve" smooth="yes"/>
      <point x="181" y="114"/>
      <point x="140" y="132"/>
      <point x="140" y="233" type="curve" smooth="yes"/>
      <point x="140" y="373"/>
      <point x="219" y="462"/>
      <point x="425" y="636" type="curve"/>
      <point x="423" y="669"/>
      <point x="417" y="693"/>
      <point x="408" y="710" type="curve"/>
      <point x="379" y="710"/>
      <point x="299" y="708"/>
      <point x="211" y="708" type="curve" smooth="yes"/>
      <point x="149" y="708"/>
      <point x="86" y="709"/>
      <point x="57" y="710" type="curve"/>
      <point x="57" y="654"/>
      <point x="52" y="608"/>
      <point x="41" y="559" type="curve"/>
      <point x="51" y="550"/>
      <point x="67" y="546"/>
      <point x="80" y="546" type="curve"/>
      <point x="98" y="607"/>
      <point x="121" y="622"/>
      <point x="175" y="622" type="curve" smooth="yes"/>
      <point x="362" y="622" type="line"/>
      <point x="365" y="634" type="line"/>
      <point x="132" y="462"/>
      <point x="40" y="358"/>
      <point x="40" y="208" type="curve" smooth="yes"/>
      <point x="40" y="61"/>
      <point x="127" y="26"/>
      <point x="188" y="10" type="curve" smooth="yes"/>
      <point x="250" y="-6"/>
      <point x="333" y="-15"/>
      <point x="333" y="-76" type="curve" smooth="yes"/>
      <point x="333" y="-111"/>
      <point x="306" y="-158"/>
      <point x="236" y="-221" type="curve"/>
      <point x="238" y="-234"/>
      <point x="248" y="-244"/>
    </contour>
  </outline>
</glyph>
<glyph name="eta" format="2">
  <advance width="579"/>
  <unicode hex="03B7"/>
  <anchor x="290" y="458" name="top"/>
  <outline>
    <contour>
      <point x="404" y="-242" type="curve"/>
      <point x="427" y="-215"/>
      <point x="466" y="-183"/>
      <point x="497" y="-167" type="curve"/>
      <point x="488" y="-137"/>
      <point x="483" y="-99"/>
      <point x="483" y="-40" type="curve" smooth="yes"/>
      <point x="483" y="299" type="line" smooth="yes"/>
      <point x="483" y="421"/>
      <point x="419" y="462"/>
      <point x="348" y="462" type="curve" smooth="yes"/>
      <point x="281" y="462"/>
      <point x="234" y="425"/>
      <point x="209" y="390" type="curve" smooth="yes"/>
      <point x="201" y="379"/>
      <point x="198" y="371"/>
      <point x="194" y="364" type="curve"/>
      <point x="200" y="387"/>
      <point x="201" y="408"/>
      <point x="201" y="419" type="curve" smooth="yes"/>
      <point x="201" y="451"/>
      <point x="193" y="462"/>
      <point x="179" y="467" type="curve"/>
      <point x="148" y="451"/>
      <point x="86" y="436"/>
      <point x="45" y="433" type="curve"/>
      <point x="38" y="422"/>
      <point x="36" y="411"/>
      <point x="36" y="396" type="curve"/>
      <point x="102" y="394"/>
      <point x="111" y="372"/>
      <point x="111" y="325" type="curve" smooth="yes"/>
      <point x="111" y="0" type="line"/>
      <point x="201" y="0" type="line"/>
      <point x="201" y="234" type="line" smooth="yes"/>
      <point x="201" y="356"/>
      <point x="256" y="401"/>
      <point x="311" y="401" type="curve" smooth="yes"/>
      <point x="355" y="401"/>
      <point x="393" y="373"/>
      <point x="393" y="279" type="curve" smooth="yes"/>
      <point x="393" y="-85" type="line" smooth="yes"/>
      <point x="393" y="-160"/>
      <point x="387" y="-190"/>
      <point x="384" y="-220" type="curve"/>
      <point x="387" y="-228"/>
      <point x="394" y="-238"/>
    </contour>
  </outline>
</glyph>
<glyph name="theta" format="2">
  <advance width="545"/>
  <unicode hex="03B8"/>
  <anchor x="273" y="708" name="top"/>
  <outline>
    <contour>
      <point x="267" y="-10" type="curve" smooth="yes"/>
      <point x="423" y="-10"/>
      <point x="505" y="120"/>
      <point x="505" y="369" type="curve" smooth="yes"/>
      <point x="505" y="598"/>
      <point x="426" y="716"/>
      <point x="276" y="716" type="curve" smooth="yes"/>
      <point x="121" y="716"/>
      <point x="40" y="589"/>
      <point x="40" y="345" type="curve" smooth="yes"/>
      <point x="40" y="112"/>
      <point x="118" y="-10"/>
    </contour>
    <contour>
      <point x="276" y="38" type="curve" smooth="yes"/>
      <point x="186" y="38"/>
      <point x="139" y="150"/>
      <point x="139" y="365" type="curve" smooth="yes"/>
      <point x="139" y="565"/>
      <point x="183" y="669"/>
      <point x="267" y="669" type="curve" smooth="yes"/>
      <point x="358" y="669"/>
      <point x="406" y="559"/>
      <point x="406" y="349" type="curve" smooth="yes"/>
      <point x="406" y="144"/>
      <point x="361" y="38"/>
    </contour>
    <contour>
      <point x="122" y="331" type="line"/>
      <point x="259" y="334"/>
      <point x="323" y="334"/>
      <point x="426" y="334" type="curve"/>
      <point x="426" y="387" type="line"/>
      <point x="122" y="387" type="line"/>
    </contour>
  </outline>
</glyph>
<glyph name="iota" format="2">
  <advance width="326"/>
  <unicode hex="03B9"/>
  <anchor x="155" y="458" name="top"/>
  <anchor x="20" y="458" name="topleft"/>
  <outline>
    <contour>
      <point x="203" y="-9" type="curve" smooth="yes"/>
      <point x="247" y="-9"/>
      <point x="282" y="9"/>
      <point x="300" y="29" type="curve"/>
      <point x="299" y="40"/>
      <point x="293" y="53"/>
      <point x="285" y="62" type="curve"/>
      <point x="270" y="49"/>
      <point x="254" y="45"/>
      <point x="242" y="45" type="curve" smooth="yes"/>
      <point x="215" y="45"/>
      <point x="201" y="65"/>
      <point x="201" y="111" type="curve" smooth="yes"/>
      <point x="201" y="427" type="line" smooth="yes"/>
      <point x="201" y="452"/>
      <point x="191" y="463"/>
      <point x="179" y="467" type="curve"/>
      <point x="155" y="450"/>
      <point x="75" y="433"/>
      <point x="45" y="433" type="curve"/>
      <point x="38" y="422"/>
      <point x="36" y="411"/>
      <point x="36" y="396" type="curve"/>
      <point x="104" y="396"/>
      <point x="111" y="372"/>
      <point x="111" y="325" type="curve" smooth="yes"/>
      <point x="111" y="100" type="line" smooth="yes"/>
      <point x="111" y="25"/>
      <point x="142" y="-9"/>
    </contour>
  </outline>
</glyph>
<glyph name="kappa" format="2">
  <advance width="546"/>
  <unicode hex="03BA"/>
  <anchor x="250" y="458" name="top"/>
  <outline>
    <contour>
      <point x="495" y="460" type="curve"/>
      <point x="459" y="458"/>
      <point x="423" y="458"/>
      <point x="401" y="458" type="curve" smooth="yes"/>
      <point x="374" y="458"/>
      <point x="340" y="458"/>
      <point x="297" y="460" type="curve"/>
      <point x="297" y="445"/>
      <point x="299" y="432"/>
      <point x="303" y="419" type="curve"/>
      <point x="321" y="419"/>
      <point x="332" y="414"/>
      <point x="332" y="403" type="curve" smooth="yes"/>
      <point x="332" y="389"/>
      <point x="313" y="364"/>
      <point x="268" y="323" type="curve" smooth="yes"/>
      <point x="186" y="248" type="line"/>
      <point x="253" y="181"/>
      <point x="358" y="46"/>
      <point x="393" y="-9" type="curve"/>
      <point x="437" y="-2"/>
      <point x="473" y="0"/>
      <point x="521" y="0" type="curve"/>
      <point x="525" y="11"/>
      <point x="526" y="24"/>
      <point x="526" y="43" type="curve"/>
      <point x="480" y="45"/>
      <point x="468" y="49"/>
      <point x="422" y="106" type="curve" smooth="yes"/>
      <point x="352" y="194"/>
      <point x="308" y="247"/>
      <point x="261" y="297" type="curve"/>
      <point x="256" y="257" type="line"/>
      <point x="366" y="357" type="line" smooth="yes"/>
      <point x="416" y="403"/>
      <point x="449" y="417"/>
      <point x="488" y="418" type="curve"/>
      <point x="493" y="430"/>
      <point x="495" y="447"/>
    </contour>
    <contour>
      <point x="201" y="295" type="line"/>
      <point x="111" y="295" type="line"/>
      <point x="111" y="0" type="line"/>
      <point x="201" y="0" type="line"/>
    </contour>
    <contour>
      <point x="179" y="467" type="curve"/>
      <point x="155" y="450"/>
      <point x="75" y="433"/>
      <point x="45" y="433" type="curve"/>
      <point x="38" y="422"/>
      <point x="36" y="411"/>
      <point x="36" y="396" type="curve"/>
      <point x="104" y="396"/>
      <point x="111" y="372"/>
      <point x="111" y="325" type="curve" smooth="yes"/>
      <point x="111" y="288" type="line"/>
      <point x="201" y="288" type="line"/>
      <point x="201" y="427" type="line" smooth="yes"/>
      <point x="201" y="452"/>
      <point x="191" y="463"/>
    </contour>
  </outline>
</glyph>
<glyph name="lambda" format="2">
  <advance width="543"/>
  <unicode hex="03BB"/>
  <anchor x="238" y="708" name="top"/>
  <outline>
    <contour>
      <point x="428" y="-9" type="curve" smooth="yes"/>
      <point x="465" y="-9"/>
      <point x="506" y="9"/>
      <point x="528" y="35" type="curve"/>
      <point x="527" y="46"/>
      <point x="522" y="57"/>
      <point x="513" y="68" type="curve"/>
      <point x="494" y="51"/>
      <point x="478" y="45"/>
      <point x="465" y="45" type="curve" smooth="yes"/>
      <point x="434" y="45"/>
      <point x="424" y="80"/>
      <point x="420" y="93" type="curve" smooth="yes"/>
      <point x="260" y="625" type="line" smooth="yes"/>
      <point x="249" y="663"/>
      <point x="229" y="717"/>
      <point x="159" y="717" type="curve" smooth="yes"/>
      <point x="115" y="717"/>
      <point x="66" y="696"/>
      <point x="44" y="669" type="curve"/>
      <point x="45" y="659"/>
      <point x="50" y="646"/>
      <point x="59" y="636" type="curve"/>
      <point x="78" y="654"/>
      <point x="99" y="662"/>
      <point x="118" y="662" type="curve" smooth="yes"/>
      <point x="155" y="662"/>
      <point x="165" y="631"/>
      <point x="170" y="614" type="curve" smooth="yes"/>
      <point x="330" y="82" type="line" smooth="yes"/>
      <point x="338" y="55"/>
      <point x="358" y="-9"/>
    </contour>
    <contour>
      <point x="19" y="-4" type="curve"/>
      <point x="61" y="0"/>
      <point x="98" y="0"/>
      <point x="126" y="0" type="curve"/>
      <point x="165" y="165"/>
      <point x="201" y="292"/>
      <point x="261" y="500" type="curve"/>
      <point x="226" y="519" type="line"/>
      <point x="114" y="218"/>
      <point x="73" y="118"/>
      <point x="54" y="76" type="curve" smooth="yes"/>
      <point x="40" y="45"/>
      <point x="37" y="42"/>
      <point x="15" y="39" type="curve"/>
      <point x="15" y="25"/>
      <point x="16" y="7"/>
    </contour>
  </outline>
</glyph>
<glyph name="nu" format="2">
  <advance width="481"/>
  <unicode hex="03BD"/>
  <outline>
    <contour>
      <point x="225" y="-9" type="curve"/>
      <point x="241" y="-9"/>
      <point x="259" y="-6"/>
      <point x="271" y="0" type="curve"/>
      <point x="402" y="216"/>
      <point x="466" y="326"/>
      <point x="466" y="418" type="curve" smooth="yes"/>
      <point x="466" y="453"/>
      <point x="457" y="462"/>
      <point x="444" y="467" type="curve"/>
      <point x="413" y="451"/>
      <point x="351" y="436"/>
      <point x="310" y="433" type="curve"/>
      <point x="303" y="422"/>
      <point x="301" y="411"/>
      <point x="301" y="396" type="curve"/>
      <point x="371" y="394"/>
      <point x="383" y="371"/>
      <point x="383" y="340" type="curve" smooth="yes"/>
      <point x="383" y="292"/>
      <point x="354" y="222"/>
      <point x="267" y="86" type="curve"/>
      <point x="286" y="86" type="line"/>
      <point x="245" y="217"/>
      <point x="184" y="377"/>
      <point x="154" y="437" type="curve" smooth="yes"/>
      <point x="144" y="457"/>
      <point x="140" y="460"/>
      <point x="122" y="467" type="curve"/>
      <point x="99" y="451"/>
      <point x="55" y="436"/>
      <point x="24" y="433" type="curve"/>
      <point x="17" y="422"/>
      <point x="15" y="411"/>
      <point x="15" y="396" type="curve"/>
      <point x="54" y="395"/>
      <point x="74" y="387"/>
      <point x="85" y="363" type="curve" smooth="yes"/>
      <point x="144" y="235"/>
      <point x="184" y="127"/>
    </contour>
  </outline>
</glyph>
<glyph name="xi" format="2">
  <advance width="433"/>
  <unicode hex="03BE"/>
  <anchor x="232" y="708" name="top"/>
  <outline>
    <contour>
      <point x="257" y="-249" type="curve"/>
      <point x="328" y="-218"/>
      <point x="415" y="-133"/>
      <point x="415" y="-37" type="curve" smooth="yes"/>
      <point x="415" y="47"/>
      <point x="348" y="65"/>
      <point x="242" y="92" type="curve" smooth="yes"/>
      <point x="195" y="104"/>
      <point x="141" y="116"/>
      <point x="141" y="177" type="curve" smooth="yes"/>
      <point x="141" y="248"/>
      <point x="216" y="289"/>
      <point x="331" y="289" type="curve"/>
      <point x="339" y="303"/>
      <point x="341" y="319"/>
      <point x="341" y="332" type="curve"/>
      <point x="225" y="338"/>
      <point x="179" y="386"/>
      <point x="179" y="447" type="curve" smooth="yes"/>
      <point x="179" y="557"/>
      <point x="325" y="617"/>
      <point x="418" y="632" type="curve"/>
      <point x="417" y="657"/>
      <point x="413" y="687"/>
      <point x="407" y="710" type="curve"/>
      <point x="368" y="709"/>
      <point x="298" y="708"/>
      <point x="210" y="708" type="curve" smooth="yes"/>
      <point x="148" y="708"/>
      <point x="85" y="709"/>
      <point x="56" y="710" type="curve"/>
      <point x="56" y="661"/>
      <point x="51" y="622"/>
      <point x="40" y="579" type="curve"/>
      <point x="51" y="570"/>
      <point x="67" y="566"/>
      <point x="81" y="566" type="curve"/>
      <point x="99" y="613"/>
      <point x="121" y="624"/>
      <point x="174" y="624" type="curve" smooth="yes"/>
      <point x="336" y="624" type="line"/>
      <point x="305" y="634" type="line"/>
      <point x="169" y="584"/>
      <point x="78" y="531"/>
      <point x="78" y="442" type="curve" smooth="yes"/>
      <point x="78" y="367"/>
      <point x="145" y="310"/>
      <point x="289" y="310" type="curve"/>
      <point x="289" y="317" type="line"/>
      <point x="133" y="317"/>
      <point x="41" y="258"/>
      <point x="41" y="153" type="curve" smooth="yes"/>
      <point x="41" y="46"/>
      <point x="137" y="19"/>
      <point x="192" y="7" type="curve" smooth="yes"/>
      <point x="250" y="-6"/>
      <point x="332" y="-15"/>
      <point x="332" y="-76" type="curve" smooth="yes"/>
      <point x="332" y="-111"/>
      <point x="305" y="-158"/>
      <point x="235" y="-221" type="curve"/>
      <point x="237" y="-234"/>
      <point x="247" y="-244"/>
    </contour>
  </outline>
</glyph>
<glyph name="pi" format="2">
  <advance width="579"/>
  <unicode hex="03C0"/>
  <anchor x="277" y="458" name="top"/>
  <outline>
    <contour>
      <point x="63" y="333" type="curve"/>
      <point x="97" y="369"/>
      <point x="109" y="371"/>
      <point x="151" y="371" type="curve" smooth="yes"/>
      <point x="202" y="371"/>
      <point x="305" y="368"/>
      <point x="456" y="368" type="curve" smooth="yes"/>
      <point x="513" y="368"/>
      <point x="523" y="377"/>
      <point x="528" y="389" type="curve"/>
      <point x="528" y="424"/>
      <point x="534" y="473"/>
      <point x="543" y="509" type="curve"/>
      <point x="530" y="515"/>
      <point x="514" y="519"/>
      <point x="497" y="520" type="curve"/>
      <point x="485" y="471"/>
      <point x="468" y="458"/>
      <point x="419" y="458" type="curve" smooth="yes"/>
      <point x="310" y="458"/>
      <point x="248" y="460"/>
      <point x="220" y="460" type="curve" smooth="yes"/>
      <point x="126" y="460"/>
      <point x="78" y="438"/>
      <point x="36" y="355" type="curve"/>
      <point x="41" y="345"/>
      <point x="51" y="334"/>
    </contour>
    <contour>
      <point x="79" y="-9" type="curve"/>
      <point x="109" y="-1"/>
      <point x="137" y="-1"/>
      <point x="168" y="0" type="curve"/>
      <point x="180" y="14"/>
      <point x="217" y="118"/>
      <point x="217" y="381" type="curve"/>
      <point x="167" y="382" type="line"/>
      <point x="168" y="294"/>
      <point x="147" y="96"/>
      <point x="68" y="31" type="curve"/>
      <point x="68" y="16"/>
      <point x="71" y="2"/>
    </contour>
    <contour>
      <point x="433" y="-9" type="curve" smooth="yes"/>
      <point x="477" y="-9"/>
      <point x="512" y="10"/>
      <point x="531" y="34" type="curve"/>
      <point x="530" y="45"/>
      <point x="524" y="58"/>
      <point x="516" y="67" type="curve"/>
      <point x="503" y="54"/>
      <point x="489" y="48"/>
      <point x="474" y="48" type="curve" smooth="yes"/>
      <point x="446" y="48"/>
      <point x="432" y="67"/>
      <point x="432" y="121" type="curve" smooth="yes"/>
      <point x="432" y="391" type="line"/>
      <point x="342" y="391" type="line"/>
      <point x="342" y="100" type="line" smooth="yes"/>
      <point x="342" y="26"/>
      <point x="373" y="-9"/>
    </contour>
  </outline>
</glyph>
<glyph name="rho" format="2">
  <advance width="507"/>
  <unicode hex="03C1"/>
  <anchor x="252" y="458" name="top"/>
  <outline>
    <contour>
      <point x="271" y="467" type="curve" smooth="yes"/>
      <point x="146" y="467"/>
      <point x="45" y="382"/>
      <point x="45" y="225" type="curve" smooth="yes"/>
      <point x="45" y="-85" type="line" smooth="yes"/>
      <point x="45" y="-160"/>
      <point x="39" y="-190"/>
      <point x="36" y="-220" type="curve"/>
      <point x="39" y="-228"/>
      <point x="46" y="-238"/>
      <point x="56" y="-242" type="curve"/>
      <point x="79" y="-215"/>
      <point x="118" y="-183"/>
      <point x="149" y="-167" type="curve"/>
      <point x="140" y="-137"/>
      <point x="135" y="-99"/>
      <point x="135" y="-40" type="curve" smooth="yes"/>
      <point x="135" y="233" type="line" smooth="yes"/>
      <point x="135" y="377"/>
      <point x="199" y="418"/>
      <point x="252" y="418" type="curve" smooth="yes"/>
      <point x="321" y="418"/>
      <point x="368" y="350"/>
      <point x="368" y="233" type="curve" smooth="yes"/>
      <point x="368" y="72"/>
      <point x="278" y="37"/>
      <point x="221" y="37" type="curve" smooth="yes"/>
      <point x="177" y="37"/>
      <point x="148" y="58"/>
      <point x="121" y="86" type="curve"/>
      <point x="121" y="9" type="line"/>
      <point x="155" y="-2"/>
      <point x="180" y="-9"/>
      <point x="218" y="-9" type="curve" smooth="yes"/>
      <point x="368" y="-9"/>
      <point x="467" y="104"/>
      <point x="467" y="256" type="curve" smooth="yes"/>
      <point x="467" y="389"/>
      <point x="391" y="467"/>
    </contour>
  </outline>
</glyph>
<glyph name="sigma" format="2">
  <advance width="579"/>
  <unicode hex="03C3"/>
  <anchor x="267" y="458" name="top"/>
  <outline>
    <contour>
      <point x="262" y="-9" type="curve" smooth="yes"/>
      <point x="401" y="-9"/>
      <point x="492" y="92"/>
      <point x="492" y="215" type="curve" smooth="yes"/>
      <point x="492" y="301"/>
      <point x="448" y="350"/>
      <point x="387" y="381" type="curve"/>
      <point x="380" y="374" type="line"/>
      <point x="434" y="371"/>
      <point x="472" y="366"/>
      <point x="500" y="366" type="curve" smooth="yes"/>
      <point x="525" y="366"/>
      <point x="540" y="370"/>
      <point x="548" y="384" type="curve"/>
      <point x="550" y="419"/>
      <point x="556" y="462"/>
      <point x="564" y="504" type="curve"/>
      <point x="552" y="508"/>
      <point x="534" y="509"/>
      <point x="519" y="509" type="curve"/>
      <point x="512" y="473"/>
      <point x="502" y="456"/>
      <point x="455" y="456" type="curve" smooth="yes"/>
      <point x="422" y="456"/>
      <point x="340" y="464"/>
      <point x="293" y="464" type="curve" smooth="yes"/>
      <point x="130" y="464"/>
      <point x="40" y="369"/>
      <point x="40" y="226" type="curve" smooth="yes"/>
      <point x="40" y="83"/>
      <point x="129" y="-9"/>
    </contour>
    <contour>
      <point x="273" y="39" type="curve" smooth="yes"/>
      <point x="197" y="39"/>
      <point x="141" y="116"/>
      <point x="141" y="229" type="curve" smooth="yes"/>
      <point x="141" y="335"/>
      <point x="190" y="402"/>
      <point x="264" y="402" type="curve" smooth="yes"/>
      <point x="341" y="402"/>
      <point x="392" y="327"/>
      <point x="392" y="215" type="curve" smooth="yes"/>
      <point x="392" y="109"/>
      <point x="346" y="39"/>
    </contour>
  </outline>
</glyph>
<glyph name="omega" format="2">
  <advance width="718"/>
  <unicode hex="03C9"/>
  <anchor x="359" y="0" name="bottom"/>
  <anchor x="359" y="458" name="top"/>
  <outline>
    <contour>
      <point x="223" y="-9" type="curve" smooth="yes"/>
      <point x="330" y="-9"/>
      <point x="376" y="91"/>
      <point x="376" y="209" type="curve"/>
      <point x="342" y="209" type="line"/>
      <point x="342" y="91"/>
      <point x="388" y="-9"/>
      <point x="495" y="-9" type="curve" smooth="yes"/>
      <point x="599" y="-9"/>
      <point x="678" y="85"/>
      <point x="678" y="224" type="curve" smooth="yes"/>
      <point x="678" y="331"/>
      <point x="629" y="411"/>
      <point x="534" y="466" type="curve"/>
      <point x="518" y="463"/>
      <point x="507" y="454"/>
      <point x="501" y="440" type="curve"/>
      <point x="548" y="388"/>
      <point x="567" y="335"/>
      <point x="567" y="243" type="curve" smooth="yes"/>
      <point x="567" y="120"/>
      <point x="532" y="40"/>
      <point x="478" y="40" type="curve" smooth="yes"/>
      <point x="427" y="40"/>
      <point x="394" y="109"/>
      <point x="391" y="177" type="curve"/>
      <point x="403" y="201"/>
      <point x="406" y="223"/>
      <point x="406" y="256" type="curve" smooth="yes"/>
      <point x="406" y="337"/>
      <point x="388" y="349"/>
      <point x="359" y="349" type="curve" smooth="yes"/>
      <point x="330" y="349"/>
      <point x="312" y="337"/>
      <point x="312" y="256" type="curve" smooth="yes"/>
      <point x="312" y="223"/>
      <point x="315" y="201"/>
      <point x="327" y="177" type="curve"/>
      <point x="324" y="109"/>
      <point x="291" y="40"/>
      <point x="240" y="40" type="curve" smooth="yes"/>
      <point x="186" y="40"/>
      <point x="151" y="120"/>
      <point x="151" y="243" type="curve" smooth="yes"/>
      <point x="151" y="335"/>
      <point x="170" y="388"/>
      <point x="217" y="440" type="curve"/>
      <point x="211" y="454"/>
      <point x="200" y="463"/>
      <point x="184" y="466" type="curve"/>
      <point x="89" y="411"/>
      <point x="40" y="331"/>
      <point x="40" y="224" type="curve" smooth="yes"/>
      <point x="40" y="85"/>
      <point x="119" y="-9"/>
    </contour>
  </outline>
</glyph>
<glyph name="thetaSymbol" format="2">
  <advance width="564"/>
  <unicode hex="03D1"/>
  <anchor x="285" y="708" name="top"/>
  <outline>
    <contour>
      <point x="257" y="-8" type="curve" smooth="yes"/>
      <point x="436" y="-8"/>
      <point x="490" y="149"/>
      <point x="490" y="355" type="curve" smooth="yes"/>
      <point x="490" y="602"/>
      <point x="413" y="714"/>
      <point x="267" y="714" type="curve" smooth="yes"/>
      <point x="162" y="714"/>
      <point x="85" y="657"/>
      <point x="85" y="548" type="curve" smooth="yes"/>
      <point x="85" y="393"/>
      <point x="239" y="333"/>
      <point x="405" y="333" type="curve" smooth="yes"/>
      <point x="549" y="333" type="line"/>
      <point x="549" y="349"/>
      <point x="547" y="365"/>
      <point x="541" y="381" type="curve"/>
      <point x="415" y="381" type="line" smooth="yes"/>
      <point x="285" y="381"/>
      <point x="185" y="394"/>
      <point x="185" y="547" type="curve" smooth="yes"/>
      <point x="185" y="629"/>
      <point x="214" y="666"/>
      <point x="262" y="666" type="curve" smooth="yes"/>
      <point x="339" y="666"/>
      <point x="390" y="570"/>
      <point x="390" y="355" type="curve" smooth="yes"/>
      <point x="390" y="198"/>
      <point x="363" y="40"/>
      <point x="268" y="40" type="curve" smooth="yes"/>
      <point x="172" y="40"/>
      <point x="183" y="200"/>
      <point x="180" y="278" type="curve" smooth="yes"/>
      <point x="179" y="299"/>
      <point x="177" y="315"/>
      <point x="158" y="322" type="curve"/>
      <point x="127" y="306"/>
      <point x="65" y="291"/>
      <point x="24" y="288" type="curve"/>
      <point x="17" y="277"/>
      <point x="15" y="266"/>
      <point x="15" y="251" type="curve"/>
      <point x="87" y="248"/>
      <point x="88" y="226"/>
      <point x="90" y="180" type="curve" smooth="yes"/>
      <point x="93" y="113"/>
      <point x="100" y="-8"/>
    </contour>
  </outline>
</glyph>
<glyph name="UpsilonhookSymbol" format="2">
  <advance width="637"/>
  <unicode hex="03D2"/>
  <anchor x="311" y="676" name="top"/>
  <outline>
    <contour>
      <point x="178" y="-3" type="curve"/>
      <point x="206" y="-1"/>
      <point x="273" y="0"/>
      <point x="307" y="0" type="curve" smooth="yes"/>
      <point x="356" y="0"/>
      <point x="395" y="-2"/>
      <point x="441" y="-3" type="curve"/>
      <point x="441" y="13"/>
      <point x="439" y="28"/>
      <point x="435" y="40" type="curve"/>
      <point x="367" y="49"/>
      <point x="358" y="57"/>
      <point x="358" y="163" type="curve" smooth="yes"/>
      <point x="358" y="310" type="line" smooth="yes"/>
      <point x="358" y="416"/>
      <point x="432" y="612"/>
      <point x="503" y="612" type="curve" smooth="yes"/>
      <point x="527" y="612"/>
      <point x="546" y="590"/>
      <point x="548" y="534" type="curve"/>
      <point x="570" y="534"/>
      <point x="593" y="539"/>
      <point x="605" y="543" type="curve"/>
      <point x="605" y="578"/>
      <point x="607" y="628"/>
      <point x="612" y="661" type="curve"/>
      <point x="591" y="677"/>
      <point x="570" y="685"/>
      <point x="544" y="685" type="curve" smooth="yes"/>
      <point x="417" y="685"/>
      <point x="332" y="496"/>
      <point x="332" y="339" type="curve"/>
      <point x="344" y="339" type="line"/>
      <point x="344" y="435"/>
      <point x="286" y="563"/>
      <point x="225" y="633" type="curve" smooth="yes"/>
      <point x="188" y="675"/>
      <point x="159" y="684"/>
      <point x="129" y="684" type="curve" smooth="yes"/>
      <point x="77" y="684"/>
      <point x="53" y="657"/>
      <point x="25" y="623" type="curve"/>
      <point x="27" y="610"/>
      <point x="36" y="603"/>
      <point x="49" y="597" type="curve"/>
      <point x="72" y="621"/>
      <point x="85" y="627"/>
      <point x="96" y="627" type="curve" smooth="yes"/>
      <point x="164" y="627"/>
      <point x="264" y="420"/>
      <point x="264" y="309" type="curve" smooth="yes"/>
      <point x="264" y="150" type="line" smooth="yes"/>
      <point x="264" y="56"/>
      <point x="255" y="46"/>
      <point x="184" y="40" type="curve"/>
      <point x="180" y="28"/>
      <point x="178" y="12"/>
    </contour>
  </outline>
</glyph>
<glyph name="piSymbol" format="2">
  <advance width="769"/>
  <unicode hex="03D6"/>
  <anchor x="405" y="458" name="top"/>
  <outline>
    <contour>
      <point x="280" y="-8" type="curve" smooth="yes"/>
      <point x="383" y="-8"/>
      <point x="420" y="77"/>
      <point x="420" y="203" type="curve"/>
      <point x="390" y="203" type="line"/>
      <point x="390" y="77"/>
      <point x="427" y="-8"/>
      <point x="530" y="-8" type="curve" smooth="yes"/>
      <point x="630" y="-8"/>
      <point x="692" y="72"/>
      <point x="692" y="192" type="curve" smooth="yes"/>
      <point x="692" y="283"/>
      <point x="656" y="348"/>
      <point x="587" y="391" type="curve"/>
      <point x="542" y="377" type="line"/>
      <point x="566" y="345"/>
      <point x="589" y="300"/>
      <point x="589" y="214" type="curve" smooth="yes"/>
      <point x="589" y="110"/>
      <point x="555" y="44"/>
      <point x="508" y="44" type="curve" smooth="yes"/>
      <point x="464" y="44"/>
      <point x="437" y="100"/>
      <point x="437" y="158" type="curve"/>
      <point x="457" y="274"/>
      <point x="440" y="300"/>
      <point x="405" y="300" type="curve" smooth="yes"/>
      <point x="370" y="300"/>
      <point x="353" y="274"/>
      <point x="373" y="158" type="curve"/>
      <point x="373" y="100"/>
      <point x="346" y="44"/>
      <point x="302" y="44" type="curve" smooth="yes"/>
      <point x="255" y="44"/>
      <point x="221" y="110"/>
      <point x="221" y="214" type="curve" smooth="yes"/>
      <point x="221" y="300"/>
      <point x="244" y="345"/>
      <point x="268" y="377" type="curve"/>
      <point x="223" y="391" type="line"/>
      <point x="154" y="348"/>
      <point x="118" y="283"/>
      <point x="118" y="192" type="curve" smooth="yes"/>
      <point x="118" y="72"/>
      <point x="180" y="-8"/>
    </contour>
    <contour>
      <point x="63" y="333" type="curve"/>
      <point x="106" y="371"/>
      <point x="135" y="378"/>
      <point x="215" y="378" type="curve" smooth="yes"/>
      <point x="320" y="378"/>
      <point x="475" y="371"/>
      <point x="630" y="371" type="curve" smooth="yes"/>
      <point x="688" y="371"/>
      <point x="709" y="372"/>
      <point x="718" y="392" type="curve"/>
      <point x="718" y="426"/>
      <point x="724" y="473"/>
      <point x="733" y="509" type="curve"/>
      <point x="720" y="515"/>
      <point x="704" y="519"/>
      <point x="687" y="520" type="curve"/>
      <point x="675" y="471"/>
      <point x="658" y="458"/>
      <point x="609" y="458" type="curve" smooth="yes"/>
      <point x="458" y="458"/>
      <point x="363" y="463"/>
      <point x="296" y="463" type="curve" smooth="yes"/>
      <point x="155" y="463"/>
      <point x="86" y="441"/>
      <point x="36" y="355" type="curve"/>
      <point x="41" y="345"/>
      <point x="51" y="334"/>
    </contour>
  </outline>
</glyph>
<glyph name="kaiSymbol" format="2">
  <advance width="546"/>
  <unicode hex="03D7"/>
  <anchor x="257" y="458" name="top"/>
  <outline>
    <contour>
      <point x="301" y="-249" type="curve" smooth="yes"/>
      <point x="426" y="-249"/>
      <point x="527" y="-159"/>
      <point x="527" y="-27" type="curve" smooth="yes"/>
      <point x="527" y="-1"/>
      <point x="523" y="26"/>
      <point x="514" y="54" type="curve"/>
      <point x="473" y="56"/>
      <point x="463" y="59"/>
      <point x="422" y="106" type="curve" smooth="yes"/>
      <point x="352" y="194"/>
      <point x="308" y="247"/>
      <point x="261" y="297" type="curve"/>
      <point x="256" y="257" type="line"/>
      <point x="366" y="357" type="line" smooth="yes"/>
      <point x="416" y="403"/>
      <point x="449" y="417"/>
      <point x="488" y="418" type="curve"/>
      <point x="493" y="430"/>
      <point x="495" y="447"/>
      <point x="495" y="460" type="curve"/>
      <point x="459" y="458"/>
      <point x="423" y="458"/>
      <point x="401" y="458" type="curve" smooth="yes"/>
      <point x="374" y="458"/>
      <point x="340" y="458"/>
      <point x="297" y="460" type="curve"/>
      <point x="297" y="445"/>
      <point x="299" y="432"/>
      <point x="303" y="419" type="curve"/>
      <point x="321" y="419"/>
      <point x="332" y="414"/>
      <point x="332" y="403" type="curve" smooth="yes"/>
      <point x="332" y="389"/>
      <point x="313" y="364"/>
      <point x="268" y="323" type="curve" smooth="yes"/>
      <point x="186" y="248" type="line"/>
      <point x="253" y="181"/>
      <point x="358" y="46"/>
      <point x="393" y="-9" type="curve"/>
      <point x="418" y="-5"/>
      <point x="440" y="-3"/>
      <point x="463" y="-1" type="curve"/>
      <point x="424" y="17" type="line"/>
      <point x="431" y="-7"/>
      <point x="434" y="-28"/>
      <point x="434" y="-48" type="curve" smooth="yes"/>
      <point x="434" y="-134"/>
      <point x="377" y="-186"/>
      <point x="297" y="-186" type="curve" smooth="yes"/>
      <point x="262" y="-186"/>
      <point x="220" y="-176"/>
      <point x="179" y="-152" type="curve"/>
      <point x="165" y="-159"/>
      <point x="159" y="-174"/>
      <point x="158" y="-185" type="curve"/>
      <point x="199" y="-232"/>
      <point x="243" y="-249"/>
    </contour>
    <contour>
      <point x="111" y="0" type="line"/>
      <point x="201" y="0" type="line"/>
      <point x="201" y="427" type="line" smooth="yes"/>
      <point x="201" y="452"/>
      <point x="191" y="463"/>
      <point x="179" y="467" type="curve"/>
      <point x="155" y="450"/>
      <point x="75" y="433"/>
      <point x="45" y="433" type="curve"/>
      <point x="38" y="422"/>
      <point x="36" y="411"/>
      <point x="36" y="396" type="curve"/>
      <point x="104" y="396"/>
      <point x="111" y="372"/>
      <point x="111" y="325" type="curve" smooth="yes"/>
    </contour>
  </outline>
</glyph>
<glyph name="kappaSymbol" format="2">
  <advance width="568"/>
  <unicode hex="03F0"/>
  <anchor x="297" y="458" name="top"/>
  <outline>
    <contour>
      <point x="130" y="-9" type="curve"/>
      <point x="197" y="77"/>
      <point x="273" y="171"/>
      <point x="343" y="253" type="curve"/>
      <point x="356" y="256" type="line"/>
      <point x="413" y="317"/>
      <point x="467" y="372"/>
      <point x="514" y="419" type="curve"/>
      <point x="495" y="445"/>
      <point x="468" y="460"/>
      <point x="429" y="466" type="curve"/>
      <point x="362" y="394"/>
      <point x="278" y="298"/>
      <point x="194" y="198" type="curve"/>
      <point x="182" y="195" type="line"/>
      <point x="137" y="143"/>
      <point x="92" y="92"/>
      <point x="51" y="42" type="curve"/>
      <point x="65" y="14"/>
      <point x="97" y="-6"/>
    </contour>
    <contour>
      <point x="102" y="81" type="curve"/>
      <point x="185" y="185" type="line"/>
      <point x="214" y="277"/>
      <point x="221" y="332"/>
      <point x="221" y="368" type="curve" smooth="yes"/>
      <point x="221" y="434"/>
      <point x="197" y="463"/>
      <point x="146" y="463" type="curve" smooth="yes"/>
      <point x="110" y="463"/>
      <point x="67" y="449"/>
      <point x="40" y="427" type="curve"/>
      <point x="40" y="406"/>
      <point x="46" y="390"/>
      <point x="57" y="375" type="curve"/>
      <point x="70" y="379"/>
      <point x="79" y="380"/>
      <point x="90" y="380" type="curve" smooth="yes"/>
      <point x="134" y="380"/>
      <point x="150" y="361"/>
      <point x="151" y="309" type="curve" smooth="yes"/>
      <point x="152" y="248"/>
      <point x="135" y="160"/>
    </contour>
    <contour>
      <point x="429" y="-9" type="curve" smooth="yes"/>
      <point x="470" y="-9"/>
      <point x="501" y="9"/>
      <point x="528" y="34" type="curve"/>
      <point x="527" y="53"/>
      <point x="520" y="68"/>
      <point x="509" y="80" type="curve"/>
      <point x="493" y="73"/>
      <point x="472" y="69"/>
      <point x="457" y="69" type="curve" smooth="yes"/>
      <point x="399" y="69"/>
      <point x="369" y="126"/>
      <point x="369" y="229" type="curve" smooth="yes"/>
      <point x="369" y="256"/>
      <point x="371" y="275"/>
      <point x="378" y="293" type="curve"/>
      <point x="321" y="235" type="line"/>
      <point x="311" y="200"/>
      <point x="305" y="160"/>
      <point x="305" y="131" type="curve" smooth="yes"/>
      <point x="305" y="48"/>
      <point x="356" y="-9"/>
    </contour>
  </outline>
</glyph>
